<svg xmlns="http://www.w3.org/2000/svg" xmlns:xlink="http://www.w3.org/1999/xlink" width="4000" zoomAndPan="magnify" viewBox="0 0 3000 1499.999933" height="2000" preserveAspectRatio="xMidYMid meet" version="1.0"><defs><g/><clipPath id="954dc86481"><path d="M 912.066406 1023 L 1763.316406 1023 L 1763.316406 1349.902344 L 912.066406 1349.902344 Z M 912.066406 1023 " clip-rule="nonzero"/></clipPath></defs><g clip-path="url(#954dc86481)"><path fill="#000000" d="M 1763.316406 1186.605469 C 1763.316406 1189.269531 1763.144531 1191.9375 1762.804688 1194.601562 C 1762.464844 1197.261719 1761.949219 1199.921875 1761.269531 1202.574219 C 1760.585938 1205.230469 1759.734375 1207.875 1758.710938 1210.511719 C 1757.6875 1213.148438 1756.496094 1215.777344 1755.140625 1218.390625 C 1753.78125 1221.007812 1752.253906 1223.609375 1750.5625 1226.195312 C 1748.871094 1228.78125 1747.011719 1231.351562 1744.988281 1233.902344 C 1742.96875 1236.453125 1740.785156 1238.984375 1738.4375 1241.496094 C 1736.089844 1244.003906 1733.585938 1246.492188 1730.917969 1248.957031 C 1728.253906 1251.417969 1725.429688 1253.855469 1722.453125 1256.265625 C 1719.472656 1258.675781 1716.34375 1261.058594 1713.058594 1263.410156 C 1709.777344 1265.761719 1706.34375 1268.082031 1702.761719 1270.367188 C 1699.183594 1272.65625 1695.457031 1274.90625 1691.585938 1277.125 C 1687.714844 1279.34375 1683.707031 1281.519531 1679.558594 1283.664062 C 1675.40625 1285.804688 1671.125 1287.90625 1666.703125 1289.96875 C 1662.285156 1292.027344 1657.738281 1294.046875 1653.058594 1296.023438 C 1648.382812 1298 1643.578125 1299.929688 1638.65625 1301.816406 C 1633.730469 1303.699219 1628.6875 1305.539062 1623.523438 1307.328125 C 1618.363281 1309.121094 1613.089844 1310.859375 1607.707031 1312.550781 C 1602.320312 1314.242188 1596.832031 1315.882812 1591.238281 1317.472656 C 1585.640625 1319.0625 1579.949219 1320.597656 1574.15625 1322.078125 C 1568.363281 1323.558594 1562.480469 1324.984375 1556.507812 1326.355469 C 1550.53125 1327.726562 1544.472656 1329.039062 1538.332031 1330.296875 C 1532.1875 1331.554688 1525.96875 1332.753906 1519.671875 1333.894531 C 1513.375 1335.03125 1507.007812 1336.113281 1500.570312 1337.132812 C 1494.136719 1338.152344 1487.640625 1339.113281 1481.082031 1340.011719 C 1474.523438 1340.910156 1467.910156 1341.746094 1461.246094 1342.519531 C 1454.578125 1343.292969 1447.867188 1344.003906 1441.109375 1344.652344 C 1434.355469 1345.300781 1427.558594 1345.886719 1420.726562 1346.40625 C 1413.894531 1346.925781 1407.035156 1347.382812 1400.144531 1347.773438 C 1393.253906 1348.164062 1386.34375 1348.492188 1379.410156 1348.75 C 1372.480469 1349.011719 1365.535156 1349.210938 1358.578125 1349.339844 C 1351.621094 1349.472656 1344.65625 1349.535156 1337.691406 1349.535156 C 1330.726562 1349.535156 1323.765625 1349.472656 1316.808594 1349.339844 C 1309.851562 1349.210938 1302.90625 1349.011719 1295.972656 1348.75 C 1289.042969 1348.492188 1282.128906 1348.164062 1275.242188 1347.773438 C 1268.351562 1347.382812 1261.488281 1346.925781 1254.65625 1346.40625 C 1247.824219 1345.886719 1241.03125 1345.300781 1234.273438 1344.652344 C 1227.515625 1344.003906 1220.804688 1343.292969 1214.140625 1342.519531 C 1207.472656 1341.746094 1200.863281 1340.910156 1194.304688 1340.011719 C 1187.746094 1339.113281 1181.25 1338.152344 1174.8125 1337.132812 C 1168.378906 1336.113281 1162.011719 1335.03125 1155.714844 1333.894531 C 1149.417969 1332.753906 1143.199219 1331.554688 1137.054688 1330.296875 C 1130.910156 1329.039062 1124.851562 1327.726562 1118.878906 1326.355469 C 1112.902344 1324.984375 1107.019531 1323.558594 1101.226562 1322.078125 C 1095.4375 1320.597656 1089.742188 1319.0625 1084.148438 1317.472656 C 1078.554688 1315.882812 1073.0625 1314.246094 1067.679688 1312.550781 C 1062.292969 1310.859375 1057.019531 1309.121094 1051.859375 1307.328125 C 1046.699219 1305.539062 1041.65625 1303.699219 1036.730469 1301.816406 C 1031.804688 1299.929688 1027.003906 1298 1022.324219 1296.023438 C 1017.648438 1294.046875 1013.097656 1292.027344 1008.679688 1289.96875 C 1004.261719 1287.90625 999.976562 1285.804688 995.828125 1283.664062 C 991.679688 1281.519531 987.667969 1279.34375 983.796875 1277.125 C 979.929688 1274.90625 976.203125 1272.65625 972.621094 1270.367188 C 969.039062 1268.082031 965.609375 1265.761719 962.324219 1263.410156 C 959.042969 1261.058594 955.910156 1258.675781 952.933594 1256.265625 C 949.953125 1253.855469 947.132812 1251.417969 944.464844 1248.957031 C 941.800781 1246.492188 939.292969 1244.003906 936.949219 1241.496094 C 934.601562 1238.984375 932.417969 1236.453125 930.394531 1233.902344 C 928.371094 1231.351562 926.515625 1228.78125 924.824219 1226.195312 C 923.128906 1223.609375 921.605469 1221.007812 920.246094 1218.390625 C 918.886719 1215.777344 917.695312 1213.148438 916.675781 1210.511719 C 915.652344 1207.875 914.800781 1205.230469 914.117188 1202.574219 C 913.433594 1199.921875 912.921875 1197.261719 912.582031 1194.601562 C 912.238281 1191.9375 912.066406 1189.269531 912.066406 1186.605469 C 912.066406 1183.9375 912.238281 1181.273438 912.582031 1178.609375 C 912.921875 1175.945312 913.433594 1173.289062 914.117188 1170.636719 C 914.800781 1167.980469 915.652344 1165.335938 916.675781 1162.699219 C 917.695312 1160.058594 918.886719 1157.433594 920.246094 1154.820312 C 921.605469 1152.203125 923.128906 1149.601562 924.824219 1147.015625 C 926.515625 1144.429688 928.371094 1141.859375 930.394531 1139.308594 C 932.417969 1136.757812 934.601562 1134.226562 936.949219 1131.714844 C 939.292969 1129.203125 941.800781 1126.71875 944.464844 1124.253906 C 947.132812 1121.789062 949.953125 1119.351562 952.933594 1116.941406 C 955.910156 1114.53125 959.042969 1112.152344 962.324219 1109.800781 C 965.609375 1107.449219 969.039062 1105.128906 972.621094 1102.839844 C 976.203125 1100.554688 979.929688 1098.300781 983.796875 1096.085938 C 987.667969 1093.867188 991.679688 1091.6875 995.828125 1089.546875 C 999.976562 1087.40625 1004.261719 1085.304688 1008.679688 1083.242188 C 1013.097656 1081.179688 1017.648438 1079.164062 1022.324219 1077.1875 C 1027.003906 1075.210938 1031.804688 1073.28125 1036.730469 1071.394531 C 1041.65625 1069.507812 1046.699219 1067.671875 1051.859375 1065.882812 C 1057.019531 1064.089844 1062.292969 1062.347656 1067.679688 1060.65625 C 1073.0625 1058.964844 1078.554688 1057.324219 1084.148438 1055.738281 C 1089.742188 1054.148438 1095.4375 1052.613281 1101.226562 1051.132812 C 1107.019531 1049.652344 1112.902344 1048.226562 1118.878906 1046.855469 C 1124.851562 1045.484375 1130.910156 1044.167969 1137.054688 1042.914062 C 1143.199219 1041.65625 1149.417969 1040.457031 1155.714844 1039.316406 C 1162.011719 1038.175781 1168.378906 1037.097656 1174.8125 1036.074219 C 1181.25 1035.054688 1187.746094 1034.097656 1194.304688 1033.199219 C 1200.863281 1032.300781 1207.472656 1031.464844 1214.140625 1030.691406 C 1220.804688 1029.914062 1227.515625 1029.203125 1234.273438 1028.554688 C 1241.03125 1027.910156 1247.824219 1027.324219 1254.65625 1026.804688 C 1261.488281 1026.285156 1268.351562 1025.828125 1275.242188 1025.4375 C 1282.128906 1025.046875 1289.042969 1024.71875 1295.972656 1024.457031 C 1302.90625 1024.195312 1309.851562 1024 1316.808594 1023.871094 C 1323.765625 1023.738281 1330.726562 1023.675781 1337.691406 1023.671875 C 1344.65625 1023.675781 1351.621094 1023.738281 1358.578125 1023.871094 C 1365.535156 1024 1372.480469 1024.195312 1379.410156 1024.457031 C 1386.34375 1024.71875 1393.253906 1025.046875 1400.144531 1025.4375 C 1407.035156 1025.828125 1413.894531 1026.285156 1420.726562 1026.804688 C 1427.558594 1027.324219 1434.355469 1027.910156 1441.109375 1028.554688 C 1447.867188 1029.203125 1454.578125 1029.914062 1461.246094 1030.691406 C 1467.910156 1031.464844 1474.523438 1032.300781 1481.082031 1033.199219 C 1487.640625 1034.097656 1494.136719 1035.054688 1500.570312 1036.074219 C 1507.007812 1037.097656 1513.375 1038.175781 1519.671875 1039.316406 C 1525.96875 1040.457031 1532.1875 1041.65625 1538.332031 1042.914062 C 1544.472656 1044.167969 1550.53125 1045.484375 1556.507812 1046.855469 C 1562.480469 1048.226562 1568.363281 1049.652344 1574.15625 1051.132812 C 1579.949219 1052.613281 1585.640625 1054.148438 1591.238281 1055.738281 C 1596.832031 1057.324219 1602.320312 1058.964844 1607.707031 1060.65625 C 1613.089844 1062.347656 1618.363281 1064.089844 1623.523438 1065.882812 C 1628.6875 1067.671875 1633.730469 1069.507812 1638.65625 1071.394531 C 1643.578125 1073.28125 1648.382812 1075.210938 1653.058594 1077.1875 C 1657.738281 1079.164062 1662.285156 1081.179688 1666.703125 1083.242188 C 1671.125 1085.304688 1675.40625 1087.40625 1679.558594 1089.546875 C 1683.707031 1091.6875 1687.714844 1093.867188 1691.585938 1096.085938 C 1695.457031 1098.300781 1699.183594 1100.554688 1702.761719 1102.839844 C 1706.34375 1105.128906 1709.777344 1107.449219 1713.058594 1109.800781 C 1716.34375 1112.152344 1719.472656 1114.53125 1722.453125 1116.941406 C 1725.429688 1119.351562 1728.253906 1121.789062 1730.917969 1124.253906 C 1733.585938 1126.71875 1736.089844 1129.203125 1738.4375 1131.714844 C 1740.785156 1134.226562 1742.96875 1136.757812 1744.988281 1139.308594 C 1747.011719 1141.859375 1748.871094 1144.429688 1750.5625 1147.015625 C 1752.253906 1149.601562 1753.78125 1152.203125 1755.140625 1154.820312 C 1756.496094 1157.433594 1757.6875 1160.058594 1758.710938 1162.699219 C 1759.734375 1165.335938 1760.585938 1167.980469 1761.269531 1170.636719 C 1761.949219 1173.289062 1762.464844 1175.945312 1762.804688 1178.609375 C 1763.144531 1181.273438 1763.316406 1183.9375 1763.316406 1186.605469 Z M 1763.316406 1186.605469 " fill-opacity="0.15" fill-rule="nonzero"/></g><path fill="#ce994d" d="M 1337.691406 1317.839844 L 1721.984375 1197.738281 L 1721.984375 813.429688 L 1337.691406 933.53125 Z M 1337.691406 1317.839844 " fill-opacity="1" fill-rule="nonzero"/><path fill="#f2ba68" d="M 1337.691406 1317.839844 L 953.402344 1197.738281 L 953.402344 813.429688 L 1337.691406 933.53125 Z M 1337.691406 1317.839844 " fill-opacity="1" fill-rule="nonzero"/><path fill="#c49658" d="M 1337.691406 645.300781 L 1337.691406 1024.082031 L 953.402344 909.691406 L 953.402344 758.320312 Z M 1337.691406 645.300781 " fill-opacity="1" fill-rule="nonzero"/><path fill="#755938" d="M 1721.984375 758.320312 L 1721.984375 910.121094 L 1337.691406 1023.652344 L 1337.691406 645.300781 Z M 1721.984375 758.320312 " fill-opacity="1" fill-rule="nonzero"/><path fill="#996c44" d="M 1337.691406 885.484375 L 1746.007812 765.402344 L 1746.007812 885.484375 L 1337.691406 1005.582031 Z M 1337.691406 885.484375 " fill-opacity="1" fill-rule="nonzero"/><path fill="#bf8852" d="M 1746.007812 765.402344 L 1721.984375 772.460938 L 1337.691406 885.484375 L 953.402344 772.460938 L 929.378906 765.402344 L 953.402344 758.320312 L 1337.691406 645.300781 L 1721.984375 758.320312 Z M 1746.007812 765.402344 " fill-opacity="1" fill-rule="nonzero"/><path fill="#513f29" d="M 1427.566406 799.71875 L 1221.199219 739.046875 L 1247.820312 731.066406 L 1454.1875 791.738281 Z M 1427.566406 799.71875 " fill-opacity="1" fill-rule="nonzero"/><path fill="#aa784f" d="M 929.378906 765.402344 L 929.378906 885.484375 L 1337.691406 1005.582031 L 1337.691406 885.484375 Z M 929.378906 765.402344 " fill-opacity="1" fill-rule="nonzero"/><path fill="#f4f4f4" d="M 1291.199219 1198.71875 L 998.726562 1108.230469 L 998.523438 967.5625 L 1290.996094 1058.03125 Z M 1291.199219 1198.71875 " fill-opacity="1" fill-rule="nonzero"/><path fill="#000000" d="M 1015.34375 1005.421875 L 1035.375 1011.621094 L 1049.414062 1066.035156 L 1063.125 1020.195312 L 1082.5625 1026.210938 L 1059.644531 1088.707031 L 1038.875 1082.28125 Z M 1015.34375 1005.421875 " fill-opacity="1" fill-rule="nonzero"/><path fill="#000000" d="M 1083.523438 1061.347656 C 1083.503906 1049.988281 1086.308594 1042.007812 1091.957031 1037.425781 C 1097.601562 1032.839844 1105.441406 1032.105469 1115.507812 1035.214844 C 1125.820312 1038.40625 1133.78125 1043.972656 1139.386719 1051.933594 C 1144.972656 1059.875 1147.777344 1069.449219 1147.796875 1080.664062 C 1147.820312 1088.808594 1146.613281 1095.09375 1144.175781 1099.554688 C 1141.742188 1104.015625 1138.222656 1106.960938 1133.617188 1108.433594 C 1129.011719 1109.90625 1123.261719 1109.582031 1116.386719 1107.453125 C 1109.390625 1105.28125 1103.597656 1102.253906 1099.015625 1098.324219 C 1094.429688 1094.417969 1090.707031 1089.300781 1087.84375 1083.019531 C 1084.957031 1076.695312 1083.523438 1069.492188 1083.523438 1061.347656 Z M 1102.679688 1067.382812 C 1102.699219 1074.402344 1103.863281 1079.824219 1106.199219 1083.613281 C 1108.53125 1087.398438 1111.703125 1089.914062 1115.691406 1091.164062 C 1119.804688 1092.429688 1122.996094 1091.921875 1125.25 1089.609375 C 1127.5 1087.296875 1128.625 1082.242188 1128.605469 1074.464844 C 1128.582031 1067.917969 1127.417969 1062.757812 1125.042969 1059.015625 C 1122.691406 1055.269531 1119.476562 1052.773438 1115.445312 1051.523438 C 1111.578125 1050.339844 1108.488281 1050.910156 1106.136719 1053.242188 C 1103.84375 1055.554688 1102.679688 1060.285156 1102.679688 1067.382812 Z M 1102.679688 1067.382812 " fill-opacity="1" fill-rule="nonzero"/><path fill="#000000" d="M 1151.460938 1047.535156 L 1209.71875 1065.5625 L 1209.738281 1082.753906 L 1190.195312 1076.695312 L 1190.277344 1129.121094 L 1171.105469 1123.1875 L 1171.023438 1070.761719 L 1151.480469 1064.722656 Z M 1151.460938 1047.535156 " fill-opacity="1" fill-rule="nonzero"/><path fill="#000000" d="M 1218.332031 1068.222656 L 1269.695312 1084.125 L 1269.714844 1098.980469 L 1237.566406 1089.035156 L 1237.589844 1100.105469 L 1267.421875 1109.335938 L 1267.445312 1123.535156 L 1237.609375 1114.308594 L 1237.628906 1128.039062 L 1270.71875 1138.269531 L 1270.738281 1154.027344 L 1218.457031 1137.839844 Z M 1218.332031 1068.222656 " fill-opacity="1" fill-rule="nonzero"/><path fill="#775e37" d="M 1247.820312 731.066406 L 1221.199219 739.046875 L 1247.820312 746.863281 Z M 1247.820312 731.066406 " fill-opacity="1" fill-rule="nonzero"/><path fill="#e5e5e5" d="M 1450.277344 422.492188 L 1252.484375 363.230469 L 1247.820312 683.179688 L 1445.613281 742.441406 Z M 1450.277344 422.492188 " fill-opacity="1" fill-rule="nonzero"/><path fill="#a5a4a4" d="M 1292.941406 427.179688 L 1268.222656 419.773438 L 1268.671875 388.8125 L 1293.390625 396.21875 Z M 1292.941406 427.179688 " fill-opacity="1" fill-rule="nonzero"/><path fill="#a5a4a4" d="M 1292.039062 489.101562 L 1267.320312 481.695312 L 1267.769531 450.734375 L 1292.492188 458.140625 Z M 1292.039062 489.101562 " fill-opacity="1" fill-rule="nonzero"/><path fill="#a5a4a4" d="M 1291.140625 551.046875 L 1266.421875 543.617188 L 1266.871094 512.65625 L 1291.589844 520.0625 Z M 1291.140625 551.046875 " fill-opacity="1" fill-rule="nonzero"/><path fill="#a5a4a4" d="M 1290.238281 612.96875 L 1265.5 605.5625 L 1265.949219 574.601562 L 1290.691406 582.007812 Z M 1290.238281 612.96875 " fill-opacity="1" fill-rule="nonzero"/><path fill="#a5a4a4" d="M 1289.339844 674.890625 L 1264.597656 667.484375 L 1265.050781 636.523438 L 1289.789062 643.929688 Z M 1289.339844 674.890625 " fill-opacity="1" fill-rule="nonzero"/><path fill="#a5a4a4" d="M 1429.058594 457.609375 L 1313.691406 423.046875 C 1311.417969 422.371094 1309.597656 419.507812 1309.636719 416.640625 C 1309.679688 413.796875 1311.5625 412.035156 1313.832031 412.710938 L 1429.203125 447.273438 C 1431.472656 447.949219 1433.292969 450.816406 1433.253906 453.679688 C 1433.210938 456.523438 1431.351562 458.285156 1429.058594 457.609375 Z M 1429.058594 457.609375 " fill-opacity="1" fill-rule="nonzero"/><path fill="#a5a4a4" d="M 1428.160156 519.53125 L 1312.789062 484.96875 C 1310.519531 484.292969 1308.695312 481.429688 1308.738281 478.5625 C 1308.777344 475.71875 1310.660156 473.960938 1312.933594 474.636719 L 1428.300781 509.199219 C 1430.574219 509.875 1432.394531 512.738281 1432.351562 515.601562 C 1432.3125 518.449219 1430.429688 520.207031 1428.160156 519.53125 Z M 1428.160156 519.53125 " fill-opacity="1" fill-rule="nonzero"/><path fill="#a5a4a4" d="M 1427.257812 581.457031 L 1311.890625 546.890625 C 1309.617188 546.214844 1307.796875 543.351562 1307.835938 540.488281 C 1307.878906 537.640625 1309.761719 535.882812 1312.03125 536.558594 L 1427.402344 571.121094 C 1429.671875 571.796875 1431.492188 574.660156 1431.453125 577.527344 C 1431.410156 580.390625 1429.527344 582.152344 1427.257812 581.457031 Z M 1427.257812 581.457031 " fill-opacity="1" fill-rule="nonzero"/><path fill="#a5a4a4" d="M 1426.359375 643.378906 L 1310.988281 608.816406 C 1308.71875 608.140625 1306.894531 605.273438 1306.9375 602.410156 C 1306.976562 599.566406 1308.859375 597.804688 1311.132812 598.480469 L 1426.5 633.042969 C 1428.773438 633.71875 1430.59375 636.585938 1430.550781 639.449219 C 1430.511719 642.3125 1428.628906 644.074219 1426.359375 643.378906 Z M 1426.359375 643.378906 " fill-opacity="1" fill-rule="nonzero"/><path fill="#a5a4a4" d="M 1425.457031 705.320312 L 1310.089844 670.757812 C 1307.816406 670.082031 1305.996094 667.21875 1306.035156 664.351562 C 1306.078125 661.507812 1307.960938 659.75 1310.230469 660.425781 L 1425.601562 694.988281 C 1427.871094 695.664062 1429.691406 698.527344 1429.652344 701.390625 C 1429.609375 704.238281 1427.730469 705.996094 1425.457031 705.320312 Z M 1425.457031 705.320312 " fill-opacity="1" fill-rule="nonzero"/><path fill="#f40000" d="M 1300.574219 514.929688 L 1278.226562 535.820312 L 1270.023438 522.847656 L 1265.765625 526.835938 L 1273.992188 539.8125 L 1273.972656 539.8125 L 1278.085938 546.296875 L 1304.6875 521.394531 Z M 1300.574219 514.929688 " fill-opacity="1" fill-rule="nonzero"/><g fill="#000000" fill-opacity="1"><g transform="translate(125.980836, 555.662463)"><g><path d="M 566.828125 -449.890625 C 631.609375 -440.085938 659.285156 -403.992188 649.859375 -341.609375 C 644.953125 -309.210938 631.960938 -284.1875 610.890625 -266.53125 C 574.191406 -226.675781 519.753906 -195.332031 447.578125 -172.5 C 375.410156 -149.675781 315.660156 -140 268.328125 -143.46875 C 251.359375 -144.8125 243.085938 -150.972656 243.515625 -161.953125 C 243.046875 -166.929688 245 -169.703125 249.375 -170.265625 C 253.757812 -170.835938 257.15625 -170.941406 259.5625 -170.578125 C 287.507812 -168.796875 324.890625 -176.632812 371.703125 -194.09375 C 458.617188 -225.125 524.113281 -260.625 568.1875 -300.59375 C 587.039062 -319.820312 597.960938 -339.332031 600.953125 -359.125 C 603.953125 -378.914062 595.859375 -390.265625 576.671875 -393.171875 C 561.078125 -395.523438 539.082031 -392.101562 510.6875 -382.90625 C 450.3125 -365.039062 383.992188 -328.132812 311.734375 -272.1875 C 239.472656 -216.238281 189.023438 -158.53125 160.390625 -99.0625 C 151.484375 -80.769531 145.625 -62.328125 142.8125 -43.734375 C 140 -25.140625 145.117188 -6.265625 158.171875 12.890625 C 171.234375 32.046875 193.960938 44.070312 226.359375 48.96875 C 262.335938 54.40625 305.171875 51.0625 354.859375 38.9375 C 498.765625 4.257812 615.738281 -63.328125 705.78125 -163.828125 C 714.445312 -172.328125 721.320312 -173.128906 726.40625 -166.234375 C 730.84375 -163.109375 732.785156 -159.742188 732.234375 -156.140625 C 731.691406 -152.546875 729.257812 -148.617188 724.9375 -144.359375 C 679.875 -89.828125 626.210938 -43.335938 563.953125 -4.890625 C 443.410156 70.140625 332.753906 100.03125 231.984375 84.78125 C 145.609375 71.71875 88.925781 36.757812 61.9375 -20.09375 C 51.820312 -42.476562 48.941406 -68.0625 53.296875 -96.84375 C 57.648438 -125.632812 70.617188 -158.648438 92.203125 -195.890625 C 132.535156 -259.722656 207.328125 -320.191406 316.578125 -377.296875 C 425.828125 -434.398438 509.242188 -458.597656 566.828125 -449.890625 Z M 566.828125 -449.890625 "/></g></g></g><g fill="#000000" fill-opacity="1"><g transform="translate(313.242966, 1263.918164)"><g><path d="M 69.953125 -884.78125 C 75.441406 -884.78125 82.300781 -877.921875 90.53125 -864.203125 C 100.59375 -846.828125 121.171875 -770.007812 152.265625 -633.75 C 178.785156 -519.445312 201.421875 -427.082031 220.171875 -356.65625 C 238.921875 -286.238281 253.78125 -236.398438 264.75 -207.140625 C 277.550781 -173.304688 288.753906 -147.472656 298.359375 -129.640625 C 307.960938 -111.804688 315.507812 -101.515625 321 -98.765625 C 323.738281 -97.847656 327.394531 -98.765625 331.96875 -101.515625 C 342.945312 -109.742188 354.835938 -126.660156 367.640625 -152.265625 C 380.441406 -177.867188 392.554688 -205.757812 403.984375 -235.9375 C 415.421875 -266.125 425.9375 -295.390625 435.53125 -323.734375 C 445.132812 -352.085938 451.769531 -373.125 455.4375 -386.84375 C 475.550781 -456.34375 492.234375 -521.039062 505.484375 -580.9375 C 518.742188 -640.832031 528.578125 -697.300781 534.984375 -750.34375 C 537.722656 -772.289062 540.234375 -790.351562 542.515625 -804.53125 C 544.804688 -818.707031 547.09375 -830.140625 549.375 -838.828125 C 551.664062 -847.515625 554.179688 -853.914062 556.921875 -858.03125 C 559.671875 -862.144531 563.332031 -865.578125 567.90625 -868.328125 C 577.050781 -879.296875 588.9375 -880.664062 603.5625 -872.4375 C 611.800781 -866.945312 617.0625 -860.316406 619.34375 -852.546875 C 621.625 -844.773438 622.765625 -829 622.765625 -805.21875 C 622.765625 -775.039062 619.789062 -738.914062 613.84375 -696.84375 C 607.90625 -654.78125 600.132812 -610.203125 590.53125 -563.109375 C 580.925781 -516.015625 569.492188 -467.773438 556.234375 -418.390625 C 542.972656 -369.003906 528.570312 -321.675781 513.03125 -276.40625 C 497.488281 -231.144531 481.257812 -189.535156 464.34375 -151.578125 C 447.425781 -113.628906 430.28125 -82.304688 412.90625 -57.609375 C 396.445312 -34.742188 380.671875 -18.738281 365.578125 -9.59375 C 350.492188 -0.457031 331.972656 4.109375 310.015625 4.109375 C 294.472656 4.109375 280.984375 1.140625 269.546875 -4.796875 C 258.117188 -10.742188 248.289062 -18.519531 240.0625 -28.125 C 231.832031 -37.726562 224.285156 -48.703125 217.421875 -61.046875 C 210.566406 -73.390625 204.394531 -85.960938 198.90625 -98.765625 C 170.5625 -161.867188 145.867188 -239.144531 124.828125 -330.59375 C 115.679688 -372.664062 106.765625 -419.535156 98.078125 -471.203125 C 89.390625 -522.867188 80.472656 -579.335938 71.328125 -640.609375 C 53.953125 -761.328125 47.09375 -834.03125 50.75 -858.71875 C 51.664062 -863.289062 53.953125 -868.773438 57.609375 -875.171875 C 61.273438 -881.578125 65.390625 -884.78125 69.953125 -884.78125 Z M 69.953125 -884.78125 "/></g></g></g><g fill="#000000" fill-opacity="1"><g transform="translate(1552.452044, 1275.497988)"><g><path d="M 562.484375 -901.9375 C 578.378906 -901.9375 591.234375 -901 601.046875 -899.125 C 610.867188 -897.257812 618.117188 -895.390625 622.796875 -893.515625 C 626.535156 -892.585938 630.039062 -889.082031 633.3125 -883 C 636.59375 -876.925781 638.234375 -871.082031 638.234375 -865.46875 C 638.234375 -858.925781 635.894531 -852.144531 631.21875 -845.125 C 626.539062 -838.113281 620.929688 -833.207031 614.390625 -830.40625 C 602.234375 -823.851562 562.957031 -819.175781 496.5625 -816.375 C 469.4375 -815.4375 447.457031 -815.203125 430.625 -815.671875 C 413.789062 -816.140625 403.039062 -815.4375 398.375 -813.5625 C 388.082031 -810.757812 382.9375 -804.21875 382.9375 -793.9375 C 382.9375 -792.0625 383.632812 -779.429688 385.03125 -756.046875 C 386.4375 -732.671875 388.078125 -703.6875 389.953125 -669.09375 C 391.816406 -621.394531 393.6875 -574.632812 395.5625 -528.8125 C 397.4375 -483 399.304688 -437.179688 401.171875 -391.359375 C 403.046875 -348.335938 404.210938 -306.019531 404.671875 -264.40625 C 405.140625 -222.789062 405.375 -185.148438 405.375 -151.484375 C 405.375 -117.828125 405.140625 -90.007812 404.671875 -68.03125 C 404.210938 -46.050781 403.046875 -32.722656 401.171875 -28.046875 C 394.628906 -4.671875 376.863281 7.015625 347.875 7.015625 C 330.101562 7.015625 317.476562 0.46875 310 -12.625 C 309.0625 -15.425781 308.125 -29.21875 307.1875 -54 C 306.257812 -78.78125 305.5625 -110.804688 305.09375 -150.078125 C 304.625 -189.359375 304.390625 -234.710938 304.390625 -286.140625 C 304.390625 -337.578125 304.390625 -391.816406 304.390625 -448.859375 C 305.328125 -540.503906 305.796875 -616.484375 305.796875 -676.796875 C 305.796875 -737.117188 306.257812 -773.828125 307.1875 -786.921875 L 308.59375 -810.765625 L 196.375 -816.375 C 139.332031 -819.175781 102.394531 -821.984375 85.5625 -824.796875 C 66.863281 -827.597656 56.109375 -830.398438 53.296875 -833.203125 C 50.492188 -836.941406 48.859375 -842.082031 48.390625 -848.625 C 47.921875 -855.175781 48.625 -860.789062 50.5 -865.46875 C 54.238281 -871.082031 62.1875 -875.289062 74.34375 -878.09375 C 86.5 -880.894531 108.941406 -883.234375 141.671875 -885.109375 C 211.804688 -888.847656 281.707031 -892.117188 351.375 -894.921875 C 421.039062 -897.722656 491.410156 -900.0625 562.484375 -901.9375 Z M 562.484375 -901.9375 "/></g></g></g><g fill="#000000" fill-opacity="1"><g transform="translate(1942.308602, 1276.051741)"><g><path d="M 505.765625 -916.15625 C 519.242188 -918.082031 540.4375 -917.597656 569.34375 -914.703125 C 599.207031 -914.703125 617.75 -913.5 624.96875 -911.09375 C 632.195312 -908.6875 637.738281 -902.179688 641.59375 -891.578125 C 644.476562 -881.953125 645.195312 -871.117188 643.75 -859.078125 C 642.3125 -847.035156 638.703125 -839.566406 632.921875 -836.671875 C 628.109375 -833.785156 616.546875 -831.132812 598.234375 -828.71875 C 579.929688 -826.3125 557.535156 -824.382812 531.046875 -822.9375 C 504.554688 -821.5 475.894531 -820.054688 445.0625 -818.609375 C 414.238281 -817.160156 384.375 -816.195312 355.46875 -815.71875 C 326.570312 -815.238281 300.082031 -814.753906 276 -814.265625 C 251.914062 -813.785156 233.613281 -813.546875 221.09375 -813.546875 C 213.382812 -811.617188 208.566406 -806.804688 206.640625 -799.109375 C 206.640625 -798.140625 206.394531 -792.351562 205.90625 -781.75 C 205.425781 -771.15625 204.945312 -757.910156 204.46875 -742.015625 C 203.988281 -726.128906 203.75 -708.066406 203.75 -687.828125 C 203.75 -667.597656 203.75 -647.367188 203.75 -627.140625 C 203.75 -587.640625 203.988281 -561.628906 204.46875 -549.109375 C 204.945312 -536.585938 205.671875 -529.363281 206.640625 -527.4375 C 208.566406 -522.625 210.972656 -519.734375 213.859375 -518.765625 C 217.710938 -517.804688 236.738281 -517.804688 270.9375 -518.765625 C 305.132812 -519.734375 354.507812 -522.625 419.0625 -527.4375 C 465.300781 -530.320312 502.144531 -532.726562 529.59375 -534.65625 C 557.050781 -536.582031 575.597656 -538.03125 585.234375 -539 C 594.867188 -539.957031 602.816406 -540.195312 609.078125 -539.71875 C 615.335938 -539.238281 620.394531 -538.515625 624.25 -537.546875 C 631 -533.691406 637.257812 -526.222656 643.03125 -515.140625 C 648.8125 -504.066406 650.738281 -494.195312 648.8125 -485.53125 C 645.925781 -466.257812 631.957031 -452.769531 606.90625 -445.0625 C 599.207031 -443.132812 581.144531 -441.445312 552.71875 -440 C 524.300781 -438.5625 485.046875 -436.398438 434.953125 -433.515625 C 279.847656 -424.835938 201.335938 -420.019531 199.421875 -419.0625 C 198.453125 -419.0625 197.96875 -406.773438 197.96875 -382.203125 C 197.96875 -357.640625 197.96875 -330.425781 197.96875 -300.5625 C 197.96875 -272.625 198.445312 -249.503906 199.40625 -231.203125 C 200.375 -212.898438 201.820312 -199.894531 203.75 -192.1875 C 214.34375 -136.3125 241.316406 -104.039062 284.671875 -95.375 C 290.453125 -94.40625 298.878906 -93.679688 309.953125 -93.203125 C 321.035156 -92.722656 334.765625 -92.484375 351.140625 -92.484375 C 373.296875 -92.484375 393.765625 -92.960938 412.546875 -93.921875 C 431.335938 -94.890625 449.882812 -96.578125 468.1875 -98.984375 C 486.488281 -101.390625 505.03125 -104.035156 523.8125 -106.921875 C 542.601562 -109.816406 563.078125 -113.191406 585.234375 -117.046875 C 599.679688 -119.929688 612.445312 -121.851562 623.53125 -122.8125 C 634.613281 -123.78125 644.003906 -124.265625 651.703125 -124.265625 C 660.378906 -124.265625 667.609375 -123.300781 673.390625 -121.375 C 684.941406 -116.5625 688.789062 -103.554688 684.9375 -82.359375 C 682.050781 -67.910156 676.515625 -57.796875 668.328125 -52.015625 C 660.140625 -46.234375 643.519531 -40.457031 618.46875 -34.6875 C 598.238281 -29.863281 575.597656 -25.285156 550.546875 -20.953125 C 525.503906 -16.617188 499.976562 -12.765625 473.96875 -9.390625 C 447.957031 -6.015625 422.425781 -3.363281 397.375 -1.4375 C 372.332031 0.476562 348.734375 1.4375 326.578125 1.4375 C 291.898438 1.4375 261.070312 -1.691406 234.09375 -7.953125 C 207.125 -14.210938 180.148438 -29.382812 153.171875 -53.46875 C 130.054688 -77.550781 114.644531 -117.53125 106.9375 -173.40625 C 103.082031 -192.664062 101.15625 -239.867188 101.15625 -315.015625 C 101.15625 -334.285156 101.632812 -359.332031 102.59375 -390.15625 C 103.5625 -420.988281 104.765625 -455.1875 106.203125 -492.75 C 107.648438 -530.320312 109.335938 -570.785156 111.265625 -614.140625 C 113.191406 -657.492188 115.601562 -701.804688 118.5 -747.078125 C 123.3125 -806.804688 124.753906 -839.5625 122.828125 -845.34375 C 119.941406 -851.125 118.015625 -854.492188 117.046875 -855.453125 C 116.085938 -858.347656 118.492188 -863.40625 124.265625 -870.625 C 130.046875 -877.851562 135.828125 -883.394531 141.609375 -887.25 C 155.097656 -893.03125 185.6875 -898.328125 233.375 -903.140625 C 281.0625 -907.960938 347.289062 -911.335938 432.0625 -913.265625 C 475.414062 -913.265625 499.984375 -914.226562 505.765625 -916.15625 Z M 505.765625 -916.15625 "/></g></g></g></svg>