<svg xmlns="http://www.w3.org/2000/svg" xmlns:xlink="http://www.w3.org/1999/xlink" width="4000" zoomAndPan="magnify" viewBox="0 0 3000 2999.999989" height="4000" preserveAspectRatio="xMidYMid meet" version="1.0"><defs><clipPath id="1ada51acea"><path d="M 658 2369 L 1567 2369 L 1567 2911.441406 L 658 2911.441406 Z M 658 2369 " clip-rule="nonzero"/></clipPath><clipPath id="516819d319"><path d="M 556.75 1450 L 1710 1450 L 1710 2525 L 556.75 2525 Z M 556.75 1450 " clip-rule="nonzero"/></clipPath><clipPath id="87ad56e668"><path d="M 1609 707 L 1730.347656 707 L 1730.347656 1068 L 1609 1068 Z M 1609 707 " clip-rule="nonzero"/></clipPath></defs><path fill="#582d2a" d="M 1121.773438 758.085938 C 1249.765625 674.085938 1376.652344 774.222656 1433.90625 891.164062 C 1494.257812 1014.511719 1485.855469 1126.589844 1494.476562 1270.054688 C 1502.4375 1401.804688 1671.765625 1540.1875 1541.785156 1709.296875 C 1440.761719 1840.605469 854.292969 1933.449219 703.089844 1656.90625 C 638.542969 1538.640625 717.679688 1372.183594 732.933594 1271.160156 C 754.820312 1125.261719 735.367188 942.667969 824.007812 829.929688 C 967.917969 646.453125 1121.773438 758.085938 1121.773438 758.085938 " fill-opacity="1" fill-rule="evenodd"/><g clip-path="url(#1ada51acea)"><path fill="#ffbd59" d="M 1453.804688 2369.375 L 1566.761719 2823.207031 C 1262.808594 2936.832031 932.769531 2944.789062 658.878906 2830.28125 L 734.039062 2374.019531 L 1453.804688 2369.375 " fill-opacity="1" fill-rule="evenodd"/></g><g clip-path="url(#516819d319)"><path fill="#ff914d" d="M 1254.410156 1494.652344 L 1303.042969 1511.671875 L 1457.5625 1450.21875 C 1457.5625 1450.21875 1812.359375 1986.503906 1679.503906 2102.78125 C 1578.039062 2191.425781 1442.308594 2082 1442.308594 2082 L 1513.046875 2461.335938 C 1267.894531 2548.652344 919.949219 2541.359375 688.28125 2467.082031 L 716.796875 2222.371094 C 716.796875 2222.371094 619.53125 2250.003906 574.214844 2166.445312 C 512.761719 2052.378906 627.933594 1619.546875 698.007812 1571.136719 C 735.144531 1545.714844 782.449219 1531.125 782.449219 1531.125 L 801.683594 1473.648438 L 1001.960938 1524.933594 L 1254.410156 1494.652344 " fill-opacity="1" fill-rule="evenodd"/></g><path fill="#582d2a" d="M 1405.390625 1899.40625 C 1406.496094 1925.714844 1408.707031 1951.796875 1411.582031 1977.441406 C 1414.453125 2003.746094 1418.210938 2029.390625 1423.074219 2055.03125 C 1432.800781 2107.203125 1446.066406 2157.824219 1461.097656 2206.898438 C 1462.425781 2210.878906 1466.625 2213.085938 1470.601562 2211.984375 C 1474.582031 2210.65625 1476.792969 2206.457031 1475.6875 2202.476562 C 1461.320312 2153.84375 1449.160156 2103.441406 1439.433594 2051.9375 C 1434.570312 2026.734375 1430.371094 2001.316406 1426.613281 1975.449219 C 1423.296875 1950.25 1420.421875 1924.609375 1418.433594 1898.523438 C 1418.210938 1894.984375 1415.117188 1892.113281 1411.582031 1892.332031 C 1407.824219 1892.554688 1405.171875 1895.648438 1405.390625 1899.40625 " fill-opacity="1" fill-rule="evenodd"/><path fill="#582d2a" d="M 1315.640625 2226.128906 C 1290 2252.4375 1262.367188 2274.542969 1232.964844 2293.109375 C 1202.679688 2312.121094 1170.847656 2327.152344 1137.027344 2338.871094 C 1117.132812 2345.945312 1096.792969 2351.910156 1075.574219 2356.554688 C 1028.710938 2367.386719 978.972656 2373.132812 927.464844 2374.460938 C 925.03125 2374.460938 923.265625 2376.449219 923.265625 2378.882812 C 923.265625 2381.089844 925.253906 2382.859375 927.6875 2382.859375 C 979.855469 2381.753906 1030.035156 2376.449219 1077.785156 2365.617188 C 1099.003906 2360.753906 1120.007812 2354.785156 1140.121094 2347.492188 C 1174.386719 2335.332031 1206.882812 2319.636719 1237.386719 2299.742188 C 1266.789062 2280.730469 1294.640625 2257.519531 1320.0625 2230.332031 C 1321.390625 2229.003906 1321.390625 2227.015625 1320.0625 2225.910156 C 1318.738281 2224.804688 1316.746094 2224.804688 1315.640625 2226.128906 " fill-opacity="1" fill-rule="evenodd"/><path fill="#fcbfa3" d="M 1015.667969 1258.339844 L 1217.714844 1258.339844 L 1220.367188 1480.945312 L 1267.007812 1494.429688 C 1237.609375 1640.105469 999.75 1637.894531 961.066406 1492.21875 L 1003.289062 1480.722656 L 1015.667969 1258.339844 " fill-opacity="1" fill-rule="evenodd"/><path fill="#f7907f" d="M 1222.578125 1457.511719 C 1095.691406 1455.082031 1026.71875 1416.394531 1001.078125 1349.195312 L 1222.355469 1334.824219 L 1222.578125 1457.511719 " fill-opacity="1" fill-rule="evenodd"/><path fill="#fcbfa3" d="M 1111.382812 838.109375 C 1278.0625 833.023438 1337.085938 1000.367188 1340.621094 1146.707031 C 1343.9375 1295.035156 1285.355469 1409.101562 1118.015625 1415.070312 C 969.023438 1420.152344 893.199219 1298.792969 887.011719 1174.339844 C 879.054688 1010.535156 919.066406 843.855469 1111.382812 838.109375 " fill-opacity="1" fill-rule="evenodd"/><path fill="#582d2a" d="M 1364.054688 1091.21875 C 1306.359375 894.699219 1183.226562 889.617188 1183.226562 889.617188 C 1150.289062 965.4375 1022.960938 1038.386719 876.621094 1021.367188 L 792.175781 1127.253906 L 908.675781 811.582031 L 1135.921875 810.035156 L 1336.421875 871.046875 L 1364.054688 1091.21875 " fill-opacity="1" fill-rule="evenodd"/><path fill="#582d2a" d="M 1220.144531 1072.871094 C 1233.851562 1072.429688 1245.125 1083.703125 1245.34375 1098.074219 C 1245.566406 1112.222656 1234.957031 1123.9375 1221.25 1124.378906 C 1207.765625 1124.601562 1196.492188 1113.328125 1196.050781 1099.179688 C 1195.828125 1084.808594 1206.660156 1073.09375 1220.144531 1072.871094 " fill-opacity="1" fill-rule="evenodd"/><path fill="#f7907f" d="M 1254.851562 1156.433594 C 1282.703125 1155.769531 1305.695312 1170.582031 1305.914062 1189.148438 C 1306.359375 1207.9375 1284.25 1223.632812 1256.398438 1224.296875 C 1228.546875 1224.960938 1205.777344 1210.148438 1205.335938 1191.582031 C 1204.890625 1172.789062 1226.996094 1157.09375 1254.851562 1156.433594 " fill-opacity="1" fill-rule="evenodd"/><path fill="#f7907f" d="M 978.308594 1162.621094 C 1006.160156 1161.957031 1029.152344 1176.769531 1029.59375 1195.558594 C 1030.035156 1214.347656 1007.707031 1230.042969 980.078125 1230.707031 C 952.222656 1231.148438 929.234375 1216.558594 928.792969 1197.769531 C 928.347656 1178.980469 950.675781 1163.285156 978.308594 1162.621094 " fill-opacity="1" fill-rule="evenodd"/><path fill="#582d2a" d="M 1018.761719 1082.15625 C 1032.46875 1081.714844 1043.742188 1092.988281 1043.960938 1107.136719 C 1044.402344 1121.503906 1033.574219 1133.222656 1019.867188 1133.664062 C 1006.382812 1133.882812 995.109375 1122.609375 994.667969 1108.464844 C 994.445312 1094.09375 1005.277344 1082.378906 1018.761719 1082.15625 " fill-opacity="1" fill-rule="evenodd"/><path fill="#582d2a" d="M 1192.511719 1008.101562 C 1197.597656 1004.785156 1202.902344 1002.578125 1208.207031 1000.585938 C 1213.734375 998.820312 1219.480469 997.714844 1225.007812 997.050781 C 1232.082031 996.164062 1239.15625 995.503906 1246.230469 995.945312 C 1251.3125 996.164062 1256.175781 996.609375 1261.039062 997.492188 C 1265.683594 998.820312 1270.324219 996.164062 1271.652344 991.523438 C 1272.976562 987.101562 1270.324219 982.238281 1265.683594 981.132812 C 1255.957031 977.375 1246.007812 974.722656 1235.617188 974.058594 C 1231.199219 973.839844 1226.554688 973.839844 1222.132812 974.503906 C 1217.492188 974.945312 1213.070312 976.050781 1208.648438 977.597656 C 1198.921875 981.132812 1189.640625 986.4375 1181.460938 994.398438 C 1177.703125 997.492188 1177.039062 1003.019531 1180.132812 1006.777344 C 1183.226562 1010.535156 1188.753906 1011.199219 1192.511719 1008.101562 " fill-opacity="1" fill-rule="evenodd"/><path fill="#582d2a" d="M 1045.066406 1003.902344 C 1035.121094 998.597656 1024.730469 995.945312 1014.339844 995.28125 C 1009.699219 995.058594 1005.054688 995.28125 1000.636719 995.945312 C 995.992188 996.609375 991.570312 997.933594 987.371094 999.480469 C 977.867188 1003.019531 968.800781 1008.101562 960.402344 1014.511719 C 956.421875 1016.945312 955.316406 1022.25 957.75 1026.230469 C 960.179688 1030.429688 965.488281 1031.535156 969.464844 1029.101562 C 974.109375 1026.671875 978.75 1024.902344 983.390625 1023.355469 C 990.023438 1020.925781 997.097656 1019.597656 1003.949219 1018.492188 C 1009.699219 1017.609375 1015.222656 1016.945312 1021.191406 1017.386719 C 1026.71875 1017.609375 1032.46875 1018.269531 1038.4375 1020.039062 C 1042.855469 1022.03125 1047.941406 1019.820312 1049.929688 1015.398438 C 1051.699219 1010.753906 1049.710938 1005.671875 1045.066406 1003.902344 " fill-opacity="1" fill-rule="evenodd"/><path fill="#f7907f" d="M 1123.765625 1237.5625 C 1145.207031 1236.457031 1163.996094 1259.667969 1165.765625 1289.289062 C 1167.535156 1319.128906 1151.617188 1344.332031 1130.175781 1345.65625 C 1108.730469 1346.984375 1089.941406 1323.773438 1088.394531 1293.929688 C 1086.625 1264.085938 1102.542969 1238.886719 1123.765625 1237.5625 " fill-opacity="1" fill-rule="evenodd"/><path fill="#f7907f" d="M 1131.058594 1058.28125 C 1130.394531 1106.695312 1141.007812 1143.167969 1145.648438 1167.707031 C 1148.082031 1180.75 1148.742188 1190.917969 1146.089844 1197.992188 C 1142.332031 1207.9375 1132.386719 1213.6875 1110.28125 1212.582031 C 1107.625 1212.359375 1105.417969 1209.929688 1105.417969 1207.054688 C 1105.636719 1204.179688 1108.070312 1201.96875 1110.941406 1202.191406 C 1119.121094 1202.632812 1125.3125 1202.191406 1129.734375 1200.644531 C 1133.046875 1199.316406 1135.257812 1197.328125 1136.363281 1194.453125 C 1138.574219 1188.707031 1137.46875 1180.308594 1135.257812 1169.695312 C 1130.617188 1144.496094 1120.007812 1107.359375 1120.890625 1058.28125 C 1120.890625 1055.1875 1123.101562 1052.976562 1125.972656 1052.976562 C 1128.847656 1052.976562 1131.28125 1055.410156 1131.058594 1058.28125 " fill-opacity="1" fill-rule="evenodd"/><path fill="#ff914d" d="M 1289.777344 1670.832031 L 1242.691406 1539.082031 L 1456.675781 1449.777344 L 1501.332031 1569.589844 L 1289.777344 1670.832031 " fill-opacity="1" fill-rule="evenodd"/><path fill="#582d2a" d="M 1236.722656 1544.386719 C 1236.722656 1544.386719 1248.441406 1570.03125 1264.578125 1604.738281 C 1272.976562 1623.085938 1282.703125 1644.085938 1292.652344 1665.085938 C 1321.390625 1724.992188 1351.011719 1784.679688 1351.011719 1784.679688 C 1352.78125 1788.4375 1357.421875 1789.984375 1361.179688 1788.214844 C 1364.9375 1786.445312 1366.484375 1781.804688 1364.714844 1778.046875 C 1364.714844 1778.046875 1336.640625 1717.699219 1307.683594 1657.792969 C 1297.734375 1637.011719 1287.347656 1616.230469 1278.28125 1598.105469 C 1261.261719 1563.839844 1248.441406 1538.640625 1248.441406 1538.640625 C 1246.894531 1535.324219 1243.136719 1534 1239.820312 1535.546875 C 1236.503906 1537.09375 1235.175781 1541.074219 1236.722656 1544.386719 " fill-opacity="1" fill-rule="evenodd"/><path fill="#fcbfa3" d="M 1301.496094 1517.863281 L 1404.949219 1473.207031 C 1404.949219 1473.207031 1373.78125 1387.660156 1376.652344 1343.890625 C 1379.304688 1301.226562 1396.328125 1215.675781 1364.9375 1174.558594 C 1349.464844 1154.222656 1295.746094 1159.75 1289.777344 1207.496094 C 1282.925781 1261.65625 1280.9375 1335.488281 1249.546875 1402.691406 C 1225.671875 1453.976562 1301.496094 1517.863281 1301.496094 1517.863281 " fill-opacity="1" fill-rule="evenodd"/><path fill="#f7907f" d="M 1326.914062 1175.664062 C 1341.0625 1186.9375 1347.472656 1208.824219 1349.464844 1234.023438 C 1350.570312 1246.84375 1350.347656 1260.328125 1349.464844 1273.8125 C 1347.695312 1294.371094 1344.160156 1315.152344 1338.851562 1333.058594 C 1337.96875 1335.710938 1339.515625 1338.582031 1342.167969 1339.46875 C 1345.042969 1340.132812 1347.917969 1338.804688 1348.578125 1335.929688 C 1354.546875 1317.582031 1358.75 1296.140625 1360.515625 1274.699219 C 1361.621094 1260.550781 1361.84375 1246.402344 1360.515625 1233.140625 C 1357.644531 1204.84375 1348.578125 1180.96875 1332.441406 1168.8125 C 1330.453125 1167.265625 1327.578125 1167.484375 1326.253906 1169.476562 C 1324.707031 1171.464844 1324.925781 1174.339844 1326.914062 1175.664062 " fill-opacity="1" fill-rule="evenodd"/><path fill="#f7907f" d="M 1298.621094 1194.453125 C 1312.769531 1205.726562 1319.179688 1227.613281 1321.167969 1252.8125 C 1322.273438 1265.414062 1322.050781 1279.121094 1321.167969 1292.824219 C 1319.621094 1313.164062 1315.863281 1333.941406 1310.558594 1351.847656 C 1309.671875 1354.5 1311.222656 1357.375 1314.09375 1358.257812 C 1316.746094 1359.140625 1319.621094 1357.59375 1320.503906 1354.722656 C 1326.253906 1336.152344 1330.453125 1314.929688 1332.441406 1293.488281 C 1333.546875 1279.339844 1333.546875 1265.191406 1332.222656 1251.929688 C 1329.347656 1223.632812 1320.285156 1199.757812 1304.148438 1187.601562 C 1302.15625 1186.054688 1299.285156 1186.496094 1297.957031 1188.265625 C 1296.410156 1190.253906 1296.851562 1193.128906 1298.621094 1194.453125 " fill-opacity="1" fill-rule="evenodd"/><path fill="#f7907f" d="M 1285.578125 1491.113281 C 1285.578125 1491.113281 1259.492188 1468.34375 1250.652344 1441.816406 C 1246.671875 1429.878906 1246.007812 1417.058594 1253.746094 1405.34375 C 1265.902344 1386.996094 1273.199219 1365.109375 1278.0625 1341.898438 C 1285.800781 1304.761719 1286.683594 1264.75 1290.21875 1233.800781 C 1292.210938 1215.453125 1295.082031 1200.644531 1301.273438 1192.023438 C 1311.441406 1177.875 1326.914062 1169.917969 1341.503906 1171.683594 C 1354.769531 1173.234375 1366.707031 1182.960938 1373.78125 1202.414062 C 1376.210938 1209.484375 1377.316406 1220.097656 1377.539062 1232.699219 C 1378.421875 1273.152344 1371.347656 1332.394531 1373.78125 1363.121094 C 1374.441406 1372.625 1376.875 1384.785156 1379.527344 1397.164062 C 1385.273438 1421.921875 1393.011719 1446.460938 1393.011719 1446.460938 C 1393.675781 1449.332031 1396.550781 1450.882812 1399.421875 1449.996094 C 1402.074219 1449.113281 1403.621094 1446.238281 1402.738281 1443.585938 C 1402.738281 1443.585938 1395.445312 1419.269531 1389.917969 1394.734375 C 1387.265625 1383.015625 1385.054688 1371.300781 1384.390625 1362.238281 C 1381.960938 1331.730469 1389.476562 1272.707031 1388.8125 1232.476562 C 1388.371094 1218.328125 1387.042969 1206.390625 1384.167969 1198.65625 C 1375.546875 1173.894531 1359.410156 1162.402344 1342.832031 1160.410156 C 1324.484375 1158.199219 1305.03125 1167.707031 1292.210938 1185.390625 C 1285.136719 1195.117188 1281.378906 1211.917969 1279.167969 1232.476562 C 1276.074219 1263.203125 1275.410156 1302.773438 1267.894531 1339.910156 C 1263.472656 1361.796875 1256.839844 1382.574219 1245.566406 1400.039062 C 1236.28125 1414.40625 1236.503906 1430.101562 1241.585938 1444.914062 C 1251.535156 1473.429688 1279.609375 1497.746094 1279.609375 1497.746094 C 1281.597656 1499.292969 1284.25 1499.070312 1286.019531 1497.304688 C 1287.566406 1495.535156 1287.347656 1492.660156 1285.578125 1491.113281 " fill-opacity="1" fill-rule="evenodd"/><path fill="#ff914d" d="M 807.429688 1482.714844 L 1037.992188 1536.871094 L 997.980469 1734.277344 L 807.429688 1482.714844 " fill-opacity="1" fill-rule="evenodd"/><path fill="#fcbfa3" d="M 975.214844 1543.726562 L 850.09375 1496.859375 C 850.09375 1496.859375 890.988281 1413.523438 887.675781 1369.753906 C 884.578125 1327.089844 864.90625 1241.539062 901.378906 1200.421875 C 919.285156 1180.085938 981.84375 1185.613281 988.699219 1233.359375 C 996.65625 1287.519531 998.867188 1361.351562 1035.339844 1428.554688 C 1062.972656 1479.839844 975.214844 1543.726562 975.214844 1543.726562 " fill-opacity="1" fill-rule="evenodd"/><path fill="#f7907f" d="M 927.464844 1194.675781 C 911.328125 1206.832031 902.265625 1230.707031 899.390625 1259.003906 C 898.0625 1272.265625 898.0625 1286.414062 899.167969 1300.5625 C 900.9375 1322.003906 905.359375 1343.226562 911.105469 1361.796875 C 911.992188 1364.449219 914.863281 1366.214844 917.515625 1365.332031 C 920.167969 1364.449219 921.71875 1361.574219 921.054688 1358.921875 C 915.75 1341.015625 911.992188 1320.234375 910.441406 1299.679688 C 909.339844 1286.191406 909.339844 1272.488281 910.441406 1259.886719 C 912.433594 1234.6875 918.84375 1212.800781 932.769531 1201.527344 C 934.757812 1200.203125 935.203125 1197.328125 933.65625 1195.339844 C 932.105469 1193.570312 929.234375 1193.128906 927.464844 1194.675781 " fill-opacity="1" fill-rule="evenodd"/><path fill="#f7907f" d="M 946.695312 1201.085938 C 931.886719 1214.792969 925.476562 1239.550781 925.476562 1268.066406 C 925.695312 1281.328125 927.023438 1295.476562 929.894531 1309.40625 C 933.875 1330.40625 940.285156 1351.183594 948.023438 1369.089844 C 949.128906 1371.742188 952.222656 1372.847656 954.875 1371.742188 C 957.527344 1370.636719 958.632812 1367.761719 957.527344 1365.109375 C 950.453125 1347.867188 944.484375 1327.753906 940.949219 1307.414062 C 938.296875 1293.929688 936.96875 1280.445312 936.527344 1267.84375 C 935.863281 1242.425781 940.066406 1220.097656 952.886719 1207.496094 C 954.65625 1205.726562 954.65625 1202.855469 952.886719 1201.085938 C 951.339844 1199.316406 948.464844 1199.316406 946.695312 1201.085938 " fill-opacity="1" fill-rule="evenodd"/><path fill="#f7907f" d="M 959.738281 1205.066406 C 952.222656 1223.855469 950.453125 1247.289062 952.003906 1272.265625 C 952.886719 1285.308594 954.65625 1298.792969 956.867188 1312.058594 C 960.402344 1332.617188 964.824219 1352.511719 968.800781 1370.417969 C 969.464844 1373.289062 972.339844 1375.058594 974.992188 1374.394531 C 977.867188 1373.953125 979.632812 1371.078125 978.972656 1368.425781 C 975.433594 1350.519531 971.234375 1330.40625 967.917969 1310.289062 C 965.707031 1297.246094 963.9375 1284.203125 963.054688 1271.382812 C 961.066406 1248.171875 961.507812 1226.066406 967.917969 1208.160156 C 968.800781 1205.949219 967.695312 1203.296875 965.488281 1202.414062 C 963.277344 1201.527344 960.625 1202.632812 959.738281 1205.066406 " fill-opacity="1" fill-rule="evenodd"/><path fill="#f7907f" d="M 999.085938 1523.832031 C 999.085938 1523.832031 1030.917969 1500.175781 1042.855469 1472.101562 C 1049.265625 1456.851562 1050.152344 1440.710938 1038.65625 1425.460938 C 1025.835938 1408.4375 1017.878906 1387.878906 1012.792969 1366.4375 C 1003.949219 1329.078125 1003.289062 1289.066406 999.308594 1258.117188 C 996.65625 1237.5625 992.457031 1220.761719 984.277344 1210.8125 C 969.90625 1193.792969 948.023438 1184.507812 927.464844 1186.273438 C 907.789062 1187.824219 889 1199.316406 878.609375 1224.074219 C 875.515625 1232.035156 873.746094 1243.972656 873.527344 1258.339844 C 872.640625 1298.574219 881.265625 1357.59375 878.609375 1388.101562 C 877.726562 1397.164062 875.074219 1408.878906 872.199219 1420.597656 C 865.570312 1444.914062 857.167969 1469.230469 857.167969 1469.230469 C 856.0625 1471.882812 857.609375 1474.753906 860.261719 1475.859375 C 862.914062 1476.746094 865.789062 1475.199219 866.894531 1472.542969 C 866.894531 1472.542969 875.738281 1448.007812 882.148438 1423.25 C 885.683594 1411.089844 888.335938 1398.492188 889.222656 1388.984375 C 892.09375 1358.257812 883.695312 1299.015625 884.578125 1258.5625 C 885.023438 1245.960938 886.125 1235.570312 889 1228.496094 C 897.402344 1208.382812 912.433594 1198.875 928.347656 1197.550781 C 945.589844 1196 963.71875 1203.960938 975.65625 1218.109375 C 982.949219 1226.730469 986.046875 1241.539062 988.476562 1259.667969 C 992.457031 1290.613281 993.5625 1331.289062 1002.84375 1368.867188 C 1008.371094 1391.636719 1016.992188 1413.300781 1030.917969 1431.648438 C 1039.984375 1443.363281 1039.097656 1456.40625 1034.234375 1468.34375 C 1023.402344 1494.652344 993.78125 1516.757812 993.78125 1516.757812 C 991.792969 1518.304688 991.351562 1520.957031 992.898438 1522.945312 C 994.222656 1524.933594 997.097656 1525.378906 999.085938 1523.832031 " fill-opacity="1" fill-rule="evenodd"/><path fill="#582d2a" d="M 789.523438 1492.660156 C 789.523438 1492.660156 766.757812 1566.050781 743.101562 1644.75 C 737.132812 1665.085938 731.164062 1685.867188 725.195312 1705.761719 C 714.808594 1741.351562 705.300781 1774.066406 698.226562 1797.277344 C 692.703125 1815.625 689.164062 1827.5625 688.058594 1829.109375 C 685.847656 1832.648438 687.175781 1837.289062 690.710938 1839.5 C 694.25 1841.710938 698.890625 1840.605469 701.101562 1837.070312 C 703.535156 1833.3125 723.207031 1770.972656 744.207031 1700.234375 C 752.167969 1673.484375 760.34375 1645.410156 767.859375 1618.886719 C 786.871094 1552.347656 802.125 1496.199219 802.125 1496.199219 C 803.007812 1492.882812 801.019531 1489.125 797.703125 1488.238281 C 794.167969 1487.132812 790.410156 1489.125 789.523438 1492.660156 " fill-opacity="1" fill-rule="evenodd"/><path fill="#582d2a" d="M 619.308594 2222.59375 C 619.308594 2222.59375 647.828125 2233.867188 678.554688 2235.195312 C 692.703125 2235.855469 707.292969 2234.308594 719.890625 2228.78125 C 801.902344 2192.308594 866.675781 2100.128906 915.304688 1994.460938 C 940.949219 1938.3125 962.171875 1878.40625 979.414062 1821.375 C 1022.960938 1677.464844 1040.867188 1551.90625 1040.867188 1551.90625 C 1041.53125 1547.703125 1038.65625 1543.945312 1034.457031 1543.285156 C 1030.257812 1542.621094 1026.5 1545.492188 1025.835938 1549.695312 C 1025.835938 1549.695312 1007.046875 1673.929688 963.71875 1816.730469 C 946.476562 1872.878906 925.476562 1932.125 900.054688 1987.609375 C 853.632812 2089.738281 793.0625 2179.929688 713.921875 2215.960938 C 703.3125 2220.605469 690.933594 2221.929688 678.996094 2221.488281 C 650.699219 2220.605469 624.171875 2210.433594 624.171875 2210.433594 C 620.859375 2209.109375 616.878906 2210.65625 615.773438 2213.972656 C 614.226562 2217.289062 615.996094 2221.265625 619.308594 2222.59375 " fill-opacity="1" fill-rule="evenodd"/><g clip-path="url(#87ad56e668)"><path fill="#ffbd59" d="M 1609.207031 1059.832031 L 1656.511719 707.90625 L 1730.347656 721.390625 L 1652.089844 1067.125 L 1609.207031 1059.832031 " fill-opacity="1" fill-rule="evenodd"/></g><path fill="#ffbd59" d="M 1614.289062 1101.609375 C 1637.5 1101.609375 1656.511719 1121.0625 1656.511719 1145.160156 C 1656.511719 1169.253906 1637.5 1188.707031 1614.289062 1188.707031 C 1590.859375 1188.707031 1571.847656 1169.253906 1571.847656 1145.160156 C 1571.847656 1121.0625 1590.859375 1101.609375 1614.289062 1101.609375 " fill-opacity="1" fill-rule="evenodd"/><path fill="#582d2a" d="M 867.117188 590.304688 C 867.117188 590.304688 869.769531 602.683594 873.746094 619.261719 C 875.957031 628.105469 878.167969 638.273438 881.042969 648.222656 C 888.78125 676.957031 897.84375 705.253906 897.84375 705.253906 C 899.167969 710.339844 904.476562 713.210938 909.558594 711.886719 C 914.644531 710.339844 917.515625 705.253906 916.191406 700.167969 C 916.191406 700.167969 909.339844 671.210938 900.9375 642.695312 C 898.285156 632.746094 894.96875 622.800781 892.316406 614.179688 C 887.011719 597.820312 882.8125 585.882812 882.8125 585.882812 C 881.707031 581.683594 877.285156 579.03125 872.863281 580.355469 C 868.441406 581.460938 865.789062 585.882812 867.117188 590.304688 " fill-opacity="1" fill-rule="evenodd"/><path fill="#582d2a" d="M 754.375 661.925781 C 754.375 661.925781 762.113281 672.09375 772.722656 685.359375 C 778.472656 692.652344 784.660156 700.832031 791.292969 708.570312 C 810.523438 731.339844 830.640625 753.222656 830.640625 753.222656 C 833.957031 757.203125 840.148438 757.644531 844.125 754.328125 C 848.105469 751.011719 848.546875 745.042969 845.230469 740.84375 C 845.230469 740.84375 826.664062 717.632812 807.210938 695.085938 C 800.578125 687.347656 793.503906 679.609375 787.3125 672.980469 C 775.597656 660.378906 766.976562 651.316406 766.976562 651.316406 C 764.101562 648 758.796875 647.558594 755.480469 650.429688 C 751.945312 653.304688 751.503906 658.390625 754.375 661.925781 " fill-opacity="1" fill-rule="evenodd"/><path fill="#582d2a" d="M 683.195312 766.707031 C 683.195312 766.707031 693.363281 774.445312 707.070312 784.390625 C 714.585938 789.699219 722.988281 795.886719 731.386719 801.636719 C 756.144531 818.214844 781.566406 833.6875 781.566406 833.6875 C 785.765625 836.78125 791.734375 835.457031 794.609375 831.035156 C 797.484375 826.835938 796.378906 820.867188 791.957031 817.992188 C 791.957031 817.992188 767.859375 800.53125 743.101562 784.171875 C 734.480469 778.644531 725.417969 773.339844 717.679688 768.476562 C 703.089844 759.632812 692.257812 753.222656 692.257812 753.222656 C 688.5 750.792969 683.417969 751.675781 680.984375 755.433594 C 678.332031 759.191406 679.4375 764.277344 683.195312 766.707031 " fill-opacity="1" fill-rule="evenodd"/><path fill="#161010" d="M 1708.820312 502.1875 C 1707.035156 490.207031 1708.054688 479.503906 1711.878906 469.820312 C 1715.703125 460.136719 1721.5625 451.726562 1728.953125 444.335938 C 1736.597656 436.945312 1745.261719 431.085938 1755.457031 426.5 C 1765.394531 421.910156 1775.84375 418.851562 1786.546875 417.324219 C 1792.152344 416.558594 1797.503906 416.816406 1802.855469 418.089844 C 1807.953125 419.363281 1813.050781 421.65625 1818.148438 424.460938 C 1822.988281 427.261719 1827.574219 430.832031 1831.90625 434.910156 C 1835.984375 438.984375 1839.808594 443.316406 1843.121094 447.90625 C 1846.433594 452.492188 1848.984375 457.335938 1851.019531 462.175781 C 1853.058594 467.019531 1854.589844 471.859375 1855.097656 476.703125 C 1856.882812 487.660156 1856.117188 497.855469 1853.058594 507.28125 C 1850 516.710938 1845.160156 524.867188 1838.789062 531.746094 C 1832.417969 538.882812 1824.773438 544.488281 1815.851562 549.078125 C 1806.933594 553.664062 1797.757812 556.722656 1788.074219 557.996094 C 1778.136719 559.523438 1768.707031 559.269531 1760.042969 557.484375 C 1751.125 555.703125 1743.222656 552.390625 1736.34375 547.546875 C 1729.207031 542.960938 1723.347656 536.589844 1718.757812 528.6875 C 1713.40625 521.300781 1710.347656 512.378906 1708.820312 502.1875 Z M 1724.367188 497.089844 C 1725.386719 503.714844 1727.679688 510.085938 1730.992188 515.949219 C 1734.304688 521.808594 1738.636719 526.652344 1743.734375 530.472656 C 1748.832031 534.296875 1754.691406 537.097656 1761.0625 538.882812 C 1767.433594 540.667969 1774.3125 541.175781 1781.195312 539.902344 C 1785.019531 539.902344 1789.351562 538.628906 1794.445312 536.078125 C 1799.542969 533.785156 1804.386719 530.472656 1809.226562 526.652344 C 1814.070312 522.828125 1818.65625 518.242188 1822.734375 512.890625 C 1827.066406 507.792969 1830.378906 502.1875 1832.671875 496.324219 C 1835.222656 490.464844 1836.242188 484.601562 1836.242188 478.742188 C 1836.242188 472.878906 1834.203125 467.273438 1830.632812 461.921875 C 1827.066406 456.570312 1821.203125 451.726562 1813.304688 447.648438 C 1805.40625 443.316406 1794.703125 440.003906 1781.449219 437.203125 C 1774.3125 438.222656 1766.925781 440.515625 1759.789062 443.574219 C 1752.398438 446.886719 1745.773438 450.964844 1740.164062 456.058594 C 1734.558594 461.15625 1729.972656 467.019531 1726.914062 473.898438 C 1724.109375 481.289062 1723.089844 488.933594 1724.367188 497.089844 Z M 1724.367188 497.089844 " fill-opacity="1" fill-rule="nonzero"/><path fill="#161010" d="M 1870.898438 477.722656 C 1869.113281 465.742188 1870.132812 455.039062 1873.957031 445.355469 C 1877.78125 435.671875 1883.640625 427.261719 1891.03125 419.871094 C 1898.675781 412.480469 1907.339844 406.621094 1917.535156 402.035156 C 1927.472656 397.445312 1937.921875 394.390625 1948.625 392.859375 C 1954.230469 392.09375 1959.582031 392.351562 1964.933594 393.625 C 1970.03125 394.898438 1975.128906 397.191406 1980.226562 399.996094 C 1985.320312 402.796875 1989.652344 406.367188 1993.988281 410.445312 C 1998.0625 414.519531 2001.886719 418.851562 2005.199219 423.441406 C 2008.511719 428.027344 2011.0625 432.871094 2013.097656 437.710938 C 2015.136719 442.554688 2016.667969 447.394531 2017.175781 452.238281 C 2018.960938 463.195312 2018.195312 473.390625 2015.136719 482.816406 C 2012.078125 492.246094 2007.238281 500.402344 2000.867188 507.28125 C 1994.496094 514.417969 1986.851562 520.023438 1977.929688 524.613281 C 1969.011719 529.199219 1959.835938 532.257812 1950.152344 533.53125 C 1940.214844 535.058594 1930.785156 534.804688 1922.121094 533.023438 C 1913.203125 531.238281 1905.300781 527.925781 1898.421875 523.082031 C 1891.285156 518.496094 1885.425781 512.125 1880.835938 504.226562 C 1875.484375 496.835938 1872.429688 487.914062 1870.898438 477.722656 Z M 1886.445312 472.878906 C 1887.464844 479.503906 1889.757812 485.875 1893.070312 491.738281 C 1896.382812 497.597656 1900.714844 502.441406 1905.8125 506.261719 C 1910.910156 510.085938 1916.769531 512.890625 1923.140625 514.671875 C 1929.511719 516.457031 1936.394531 516.964844 1943.273438 515.691406 C 1947.097656 515.691406 1951.429688 514.417969 1956.523438 511.871094 C 1961.621094 509.578125 1966.464844 506.261719 1971.304688 502.441406 C 1976.148438 498.617188 1980.734375 494.03125 1984.8125 488.679688 C 1989.144531 483.582031 1992.457031 477.976562 1994.75 472.113281 C 1997.300781 466.253906 1998.320312 460.390625 1998.320312 454.53125 C 1998.320312 448.667969 1996.28125 443.0625 1992.710938 437.710938 C 1989.144531 432.359375 1983.28125 427.519531 1975.382812 423.441406 C 1967.484375 419.109375 1956.78125 415.796875 1943.527344 412.992188 C 1936.394531 414.011719 1929.003906 416.304688 1921.867188 419.363281 C 1914.476562 422.675781 1907.851562 426.753906 1902.242188 431.851562 C 1896.636719 436.945312 1892.050781 442.808594 1888.992188 449.6875 C 1886.1875 457.078125 1885.167969 464.46875 1886.445312 472.878906 Z M 1886.445312 472.878906 " fill-opacity="1" fill-rule="nonzero"/><path fill="#161010" d="M 2036.542969 477.210938 C 2034.507812 463.449219 2035.269531 451.726562 2038.582031 441.789062 C 2041.894531 431.851562 2047.246094 423.441406 2054.128906 416.558594 C 2061.265625 409.679688 2069.675781 404.328125 2079.867188 399.996094 C 2090.0625 395.917969 2100.765625 392.859375 2112.230469 391.074219 C 2121.660156 389.800781 2130.835938 389.800781 2140.011719 391.585938 C 2149.183594 393.371094 2157.59375 396.425781 2165.492188 400.757812 C 2173.140625 405.09375 2179.765625 410.953125 2185.117188 418.089844 C 2190.46875 425.222656 2193.78125 433.890625 2195.308594 443.828125 C 2196.585938 452.492188 2196.074219 459.882812 2193.527344 465.742188 C 2191.234375 471.859375 2187.410156 476.703125 2182.058594 480.78125 C 2176.960938 484.855469 2171.101562 487.914062 2164.472656 490.207031 C 2157.847656 492.503906 2150.96875 494.285156 2143.832031 495.304688 C 2136.953125 496.324219 2129.816406 497.089844 2122.425781 497.597656 C 2115.035156 498.109375 2108.15625 497.597656 2101.785156 496.070312 C 2095.414062 494.539062 2089.804688 491.738281 2085.21875 487.660156 C 2080.632812 483.582031 2077.574219 476.957031 2076.300781 468.292969 C 2080.886719 467.527344 2085.472656 467.78125 2089.804688 469.058594 C 2094.394531 470.332031 2098.980469 471.605469 2103.566406 472.878906 C 2108.15625 474.410156 2112.742188 475.429688 2117.328125 476.703125 C 2121.660156 477.976562 2126.25 478.230469 2131.089844 477.722656 C 2134.65625 477.210938 2138.992188 476.191406 2144.851562 474.664062 C 2150.457031 473.132812 2155.808594 471.09375 2160.652344 468.546875 C 2165.492188 466 2169.570312 462.6875 2172.628906 458.863281 C 2175.941406 455.039062 2176.960938 450.707031 2176.195312 445.613281 C 2175.179688 438.222656 2172.628906 432.105469 2168.550781 427.261719 C 2164.472656 422.421875 2159.632812 418.597656 2153.769531 415.796875 C 2148.164062 412.992188 2141.792969 411.207031 2134.914062 410.1875 C 2128.03125 409.167969 2121.40625 409.167969 2115.035156 410.1875 C 2114.269531 410.445312 2111.976562 410.953125 2108.917969 411.71875 C 2105.605469 412.738281 2101.785156 414.011719 2097.707031 415.539062 C 2093.628906 417.070312 2089.042969 419.109375 2084.710938 421.148438 C 2080.121094 423.1875 2076.046875 425.734375 2072.222656 428.28125 C 2068.398438 430.832031 2065.597656 433.890625 2063.304688 436.691406 C 2061.007812 439.75 2060.246094 442.808594 2060.753906 446.121094 L 2061.265625 449.945312 C 2061.773438 452.238281 2062.539062 455.550781 2063.558594 459.371094 C 2064.578125 463.449219 2065.34375 467.273438 2066.105469 471.351562 C 2066.871094 475.429688 2067.890625 478.742188 2068.65625 481.800781 C 2069.417969 484.855469 2069.929688 486.386719 2070.183594 486.894531 C 2071.203125 490.207031 2072.730469 495.558594 2074.769531 502.695312 C 2077.066406 509.832031 2079.359375 517.730469 2081.90625 526.394531 C 2084.453125 535.058594 2087.511719 544.488281 2090.570312 554.171875 C 2093.628906 563.855469 2096.6875 573.03125 2099.492188 581.949219 C 2102.292969 590.617188 2104.84375 598.515625 2107.136719 605.652344 C 2109.429688 612.53125 2111.214844 617.628906 2112.234375 620.941406 C 2112.234375 621.449219 2112.488281 621.707031 2112.488281 621.960938 C 2112.742188 622.214844 2112.742188 622.726562 2112.742188 622.980469 L 2112.488281 623.746094 L 2112.488281 624.507812 C 2112.234375 625.273438 2111.214844 626.546875 2109.9375 628.078125 C 2108.410156 629.605469 2107.390625 630.625 2107.136719 631.136719 L 2105.097656 631.390625 C 2102.804688 631.644531 2100.253906 630.117188 2097.453125 626.292969 C 2094.394531 622.726562 2091.335938 617.628906 2087.769531 611.257812 C 2084.199219 604.886719 2080.632812 597.242188 2076.808594 588.832031 C 2072.988281 580.421875 2069.164062 571.503906 2065.34375 562.328125 C 2061.519531 553.152344 2057.953125 543.980469 2054.636719 535.058594 C 2051.324219 526.140625 2048.269531 517.730469 2045.464844 509.832031 C 2042.660156 501.929688 2040.621094 495.304688 2038.839844 489.445312 C 2037.820312 483.582031 2036.800781 479.503906 2036.542969 477.210938 Z M 2036.542969 477.210938 " fill-opacity="1" fill-rule="nonzero"/><path fill="#161010" d="M 2209.328125 454.53125 C 2210.855469 453 2212.382812 451.984375 2213.660156 451.472656 C 2214.933594 450.964844 2216.460938 450.453125 2218.246094 450.199219 C 2220.285156 449.945312 2222.324219 450.199219 2224.363281 450.707031 C 2226.402344 451.472656 2228.4375 452.238281 2230.222656 453.511719 C 2232.007812 454.785156 2234.046875 455.804688 2235.828125 456.824219 C 2237.867188 457.84375 2239.652344 458.609375 2241.945312 459.117188 C 2247.808594 460.648438 2252.648438 461.921875 2256.214844 462.941406 C 2259.785156 463.960938 2263.097656 464.722656 2265.902344 465.234375 C 2268.957031 465.742188 2272.273438 465.742188 2275.839844 465.488281 C 2279.660156 465.234375 2284.25 464.46875 2290.109375 463.707031 C 2294.699219 462.941406 2300.304688 462.175781 2306.675781 461.410156 C 2313.300781 460.648438 2319.164062 459.117188 2325.023438 457.078125 C 2330.628906 455.039062 2335.21875 451.984375 2339.039062 448.414062 C 2342.609375 444.59375 2344.136719 439.496094 2343.117188 433.125 C 2342.351562 426.753906 2340.058594 422.167969 2335.980469 419.109375 C 2331.90625 416.050781 2326.550781 414.011719 2320.183594 412.992188 C 2313.8125 411.972656 2306.675781 411.71875 2299.03125 411.972656 C 2291.382812 412.226562 2283.484375 412.738281 2275.328125 412.992188 C 2267.175781 413.246094 2259.273438 413.246094 2251.121094 412.738281 C 2243.21875 412.226562 2235.828125 410.699219 2229.457031 408.148438 C 2222.832031 405.601562 2217.226562 401.523438 2212.640625 396.171875 C 2208.050781 390.566406 2204.992188 383.175781 2203.210938 373.746094 C 2203.464844 366.609375 2206.011719 360.238281 2210.855469 354.886719 C 2215.695312 349.28125 2221.8125 344.949219 2228.949219 341.128906 C 2236.339844 337.558594 2244.238281 335.011719 2252.902344 333.480469 C 2261.570312 331.953125 2269.722656 331.953125 2277.367188 333.226562 C 2285.015625 334.5 2291.640625 337.050781 2297.246094 341.382812 C 2302.851562 345.714844 2306.421875 351.320312 2307.695312 358.710938 C 2308.714844 363.042969 2308.96875 366.609375 2308.203125 369.667969 C 2307.441406 372.726562 2306.421875 375.019531 2304.890625 376.550781 C 2303.363281 378.332031 2301.578125 379.097656 2299.539062 379.351562 C 2297.5 379.609375 2295.972656 379.097656 2294.699219 377.824219 C 2293.421875 376.550781 2292.660156 374.511719 2292.402344 371.960938 C 2292.148438 369.160156 2292.914062 365.59375 2294.699219 361.257812 C 2293.167969 357.183594 2290.109375 354.378906 2285.777344 352.59375 C 2281.191406 350.8125 2276.347656 349.792969 2270.742188 349.792969 C 2265.136719 349.535156 2259.273438 350.300781 2253.160156 351.832031 C 2247.042969 353.359375 2241.691406 355.398438 2236.847656 357.691406 C 2232.007812 360.238281 2228.183594 363.042969 2225.636719 366.355469 C 2222.832031 369.667969 2222.070312 372.980469 2223.085938 376.804688 C 2224.105469 383.175781 2226.65625 388.019531 2230.988281 391.074219 C 2235.320312 394.132812 2240.671875 396.171875 2247.042969 397.191406 C 2253.414062 398.210938 2260.550781 398.464844 2268.703125 398.210938 C 2276.859375 397.957031 2285.015625 397.445312 2293.421875 396.9375 C 2301.832031 396.425781 2309.988281 396.425781 2318.144531 396.425781 C 2326.042969 396.683594 2333.433594 397.957031 2340.3125 400.25 C 2347.195312 402.542969 2352.800781 406.113281 2357.132812 411.207031 C 2361.722656 416.050781 2364.523438 423.1875 2365.796875 431.851562 C 2366.816406 438.476562 2366.054688 444.59375 2363.25 449.945312 C 2360.445312 455.296875 2356.625 460.136719 2352.035156 464.214844 C 2347.195312 468.292969 2341.84375 471.605469 2335.726562 473.898438 C 2329.609375 476.449219 2323.75 477.976562 2318.144531 478.742188 C 2312.535156 479.503906 2306.421875 480.523438 2300.050781 481.289062 C 2293.679688 482.054688 2287.050781 482.816406 2280.425781 483.074219 C 2273.800781 483.328125 2266.921875 483.328125 2260.039062 483.074219 C 2253.160156 482.5625 2246.53125 481.542969 2240.417969 479.503906 C 2234.300781 477.464844 2228.4375 474.410156 2223.34375 470.585938 C 2217.734375 466.253906 2213.148438 460.902344 2209.328125 454.53125 Z M 2209.328125 454.53125 " fill-opacity="1" fill-rule="nonzero"/><path fill="#161010" d="M 2382.871094 377.570312 C 2381.089844 371.960938 2379.304688 364.574219 2377.519531 354.886719 C 2375.738281 345.203125 2373.953125 334.757812 2372.167969 323.289062 C 2370.386719 311.820312 2368.601562 299.589844 2366.816406 286.847656 C 2365.035156 274.105469 2363.25 262.125 2361.464844 250.402344 C 2359.683594 238.9375 2358.152344 228.234375 2356.625 218.804688 C 2355.09375 208.863281 2353.820312 200.964844 2352.546875 195.613281 L 2368.089844 190.515625 L 2369.367188 196.378906 C 2369.875 200.199219 2370.640625 205.296875 2371.914062 211.667969 C 2372.933594 218.039062 2374.207031 225.175781 2375.480469 233.328125 C 2376.757812 241.484375 2378.285156 250.148438 2379.8125 258.8125 C 2381.34375 267.734375 2382.871094 276.652344 2384.148438 285.570312 C 2385.421875 294.492188 2386.949219 302.902344 2388.222656 310.800781 C 2389.5 318.445312 2390.773438 325.328125 2391.792969 331.441406 C 2392.8125 337.304688 2393.574219 341.636719 2394.085938 344.183594 C 2394.085938 344.695312 2394.339844 345.460938 2394.339844 346.734375 C 2394.59375 348.007812 2394.851562 349.28125 2395.105469 350.8125 C 2395.359375 352.339844 2395.867188 353.871094 2395.867188 355.398438 C 2396.125 356.925781 2396.378906 358.203125 2396.378906 358.964844 C 2396.632812 360.75 2396.886719 362.789062 2397.398438 364.828125 C 2397.90625 367.121094 2398.164062 369.414062 2398.164062 371.453125 C 2398.164062 373.746094 2397.652344 375.53125 2396.886719 377.058594 C 2396.125 378.589844 2394.339844 379.609375 2391.792969 380.117188 C 2390.261719 380.371094 2388.734375 380.371094 2386.949219 380.628906 C 2385.164062 380.628906 2383.890625 379.863281 2382.871094 377.570312 Z M 2383.636719 452.238281 C 2382.617188 445.867188 2384.402344 440.769531 2388.734375 437.203125 C 2393.574219 433.378906 2399.183594 431.085938 2405.554688 430.066406 C 2407.589844 429.8125 2409.886719 430.066406 2411.667969 431.085938 C 2413.707031 432.105469 2415.238281 433.378906 2417.019531 435.164062 C 2418.550781 436.691406 2419.824219 438.730469 2420.589844 440.515625 C 2421.351562 442.554688 2422.117188 444.335938 2422.371094 446.375 C 2422.628906 448.667969 2422.117188 450.964844 2420.84375 453.257812 C 2419.3125 455.550781 2417.53125 457.589844 2415.492188 459.371094 C 2413.453125 461.15625 2410.90625 462.6875 2408.101562 463.960938 C 2405.296875 465.234375 2403.003906 466 2401.222656 466.253906 C 2395.867188 467.019531 2391.792969 466.253906 2388.988281 463.707031 C 2386.183594 460.902344 2384.402344 457.335938 2383.636719 452.238281 Z M 2383.636719 452.238281 " fill-opacity="1" fill-rule="nonzero"/><path fill="#161010" d="M 1923.652344 660.695312 C 1950.917969 642.859375 1980.226562 627.820312 2009.53125 613.804688 C 2072.222656 583.988281 2139.246094 560.035156 2208.308594 550.351562 C 2250.863281 544.234375 2295.207031 543.214844 2337.257812 553.664062 C 2338.019531 553.917969 2347.449219 555.703125 2347.449219 555.191406 C 2347.195312 553.664062 2338.53125 551.878906 2337.765625 551.878906 C 2201.171875 517.730469 2056.167969 569.972656 1937.410156 636.230469 C 1926.199219 642.601562 1914.984375 648.972656 1904.027344 656.109375 C 1904.027344 656.109375 1912.691406 659.421875 1913.710938 659.421875 C 1915.75 659.933594 1921.613281 662.226562 1923.652344 660.695312 Z M 1923.652344 660.695312 " fill-opacity="1" fill-rule="nonzero"/><path fill="#161010" d="M 2200.917969 731.796875 C 2138.734375 731.796875 2074.007812 724.660156 2009.023438 710.136719 C 1977.421875 703 1945.058594 693.824219 1913.964844 684.90625 C 1822.480469 658.65625 1727.679688 631.390625 1631.859375 654.835938 C 1584.714844 666.304688 1558.71875 692.296875 1529.667969 725.171875 C 1523.808594 731.796875 1515.652344 731.542969 1510.300781 728.738281 C 1504.695312 725.679688 1500.105469 719.054688 1502.398438 710.390625 C 1505.457031 699.433594 1510.046875 688.472656 1514.378906 678.027344 C 1517.179688 671.65625 1519.730469 665.539062 1521.769531 659.675781 C 1535.019531 622.726562 1539.605469 582.714844 1543.9375 544.234375 C 1547.761719 511.613281 1551.585938 477.976562 1560.503906 445.867188 C 1592.867188 330.425781 1685.121094 236.386719 1820.1875 181.34375 C 2025.839844 97.5 2301.832031 114.574219 2476.144531 222.117188 C 2567.375 278.4375 2618.34375 366.101562 2615.542969 462.941406 C 2612.992188 557.230469 2552.597656 639.800781 2453.972656 683.632812 C 2382.109375 715.488281 2294.699219 731.796875 2200.917969 731.796875 Z M 1708.566406 641.839844 C 1778.648438 641.839844 1847.707031 661.714844 1914.984375 681.082031 C 1946.078125 690.003906 1978.441406 699.175781 2009.785156 706.3125 C 2171.863281 742.5 2333.179688 732.816406 2452.1875 679.808594 C 2549.28125 636.742188 2608.914062 555.449219 2611.464844 462.6875 C 2614.011719 367.375 2564.0625 280.730469 2473.851562 225.429688 C 2300.558594 118.652344 2026.097656 101.578125 1821.460938 184.910156 L 1820.695312 183.125 L 1821.460938 184.910156 C 1687.414062 239.445312 1596.179688 332.460938 1564.070312 446.886719 C 1555.152344 478.742188 1551.328125 512.378906 1547.507812 544.746094 C 1543.175781 583.480469 1538.585938 623.488281 1525.082031 660.953125 C 1523.042969 666.8125 1520.238281 672.929688 1517.691406 679.554688 C 1513.359375 690.003906 1508.769531 700.707031 1505.714844 711.410156 C 1503.929688 718.289062 1507.75 723.132812 1511.574219 725.171875 C 1515.398438 727.210938 1521.511719 727.71875 1526.355469 722.621094 C 1555.917969 689.238281 1582.417969 662.734375 1630.585938 651.011719 C 1657.089844 644.640625 1682.828125 641.839844 1708.566406 641.839844 Z M 1708.566406 641.839844 " fill-opacity="1" fill-rule="nonzero"/><path fill="#161010" d="M 1542.917969 476.957031 L 1539.097656 476.445312 C 1552.859375 379.609375 1609.179688 288.628906 1689.707031 233.074219 L 1692 236.386719 C 1612.234375 291.179688 1556.425781 381.136719 1542.917969 476.957031 Z M 1542.917969 476.957031 " fill-opacity="1" fill-rule="nonzero"/><path fill="#161010" d="M 1576.050781 704.785156 L 1572.480469 703 C 1581.144531 686.691406 1597.964844 674.203125 1619.371094 667.578125 C 1637.976562 661.96875 1656.832031 661.207031 1678.238281 660.695312 C 1725.386719 659.933594 1779.410156 661.460938 1819.929688 689.75 L 1817.636719 693.0625 C 1778.136719 665.285156 1724.875 663.753906 1678.238281 664.519531 C 1657.34375 664.773438 1638.484375 665.539062 1620.644531 671.144531 C 1600.003906 677.515625 1584.203125 689.492188 1576.050781 704.785156 Z M 1576.050781 704.785156 " fill-opacity="1" fill-rule="nonzero"/><path fill="#161010" d="M 2616.304688 588.832031 L 2612.992188 586.792969 C 2699.894531 430.832031 2600.25 293.472656 2532.972656 225.683594 L 2535.777344 222.882812 C 2588.78125 276.398438 2624.96875 335.519531 2641.023438 393.625 C 2659.375 461.15625 2650.964844 526.652344 2616.304688 588.832031 Z M 2616.304688 588.832031 " fill-opacity="1" fill-rule="nonzero"/></svg>