<svg xmlns="http://www.w3.org/2000/svg" xmlns:xlink="http://www.w3.org/1999/xlink" width="4000" zoomAndPan="magnify" viewBox="0 0 3000 2999.999989" height="4000" preserveAspectRatio="xMidYMid meet" version="1.0"><path fill="#d18765" d="M 297.480469 829.003906 C 297.480469 791.113281 328.308594 760.285156 366.199219 760.285156 C 404.085938 760.285156 434.914062 791.113281 434.914062 829.003906 C 434.914062 866.894531 404.085938 897.71875 366.199219 897.71875 C 328.308594 897.71875 297.480469 866.894531 297.480469 829.003906 Z M 2882.21875 913.0625 L 2882.21875 1027.84375 L 2995.746094 1050.113281 L 2995.746094 935.328125 Z M 2601.742188 2514.875 C 2606.6875 2520.964844 2629.398438 2562.125 2625.191406 2574.695312 C 2624.65625 2576.28125 2623.789062 2577.109375 2622.269531 2577.488281 L 2441.867188 2621.996094 C 2440.023438 2622.449219 2438.359375 2622.679688 2436.917969 2622.679688 C 2434.503906 2622.679688 2432.734375 2622.046875 2431.511719 2620.746094 C 2428.21875 2617.25 2428.722656 2608.960938 2428.992188 2604.511719 C 2429.890625 2589.769531 2459.320312 2566.453125 2478.792969 2551.027344 C 2484.046875 2546.863281 2488.761719 2543.125 2492.351562 2540.035156 C 2494.546875 2538.152344 2496.761719 2537.261719 2499.328125 2537.261719 C 2501.0625 2537.261719 2502.984375 2537.671875 2505.191406 2538.515625 L 2507.105469 2539.25 L 2508.484375 2537.730469 C 2508.71875 2537.472656 2508.886719 2537.226562 2509.109375 2536.96875 C 2508.148438 2536.5 2507.203125 2536.074219 2506.257812 2535.714844 C 2513.460938 2527.753906 2514.519531 2520.90625 2510.347656 2512.0625 C 2503.007812 2496.503906 2394.871094 2268.714844 2366.496094 2185.753906 C 2367.535156 2185.820312 2368.65625 2185.859375 2369.730469 2185.914062 C 2369.605469 2185.546875 2369.453125 2185.148438 2369.332031 2184.785156 L 2368.691406 2182.898438 L 2366.6875 2182.769531 C 2343.328125 2181.300781 2339.875 2177.730469 2339.5625 2177.328125 C 2338.46875 2175.941406 2335.3125 2167.339844 2329.601562 2117.609375 L 2323.683594 2117.328125 C 2322.089844 2124.914062 2320.535156 2132.105469 2319.054688 2138.695312 C 2316.546875 2149.808594 2315.886719 2159.59375 2315.40625 2166.75 C 2315.03125 2172.242188 2314.613281 2178.460938 2313.402344 2179.457031 C 2312.230469 2180.414062 2309.589844 2181.726562 2303.699219 2182.535156 L 2300.242188 2183.003906 L 2301.066406 2185.800781 C 2302.089844 2185.710938 2303.160156 2185.640625 2304.105469 2185.507812 C 2332.046875 2280.847656 2320.21875 2529.871094 2330.160156 2545.679688 C 2331.3125 2547.511719 2332.335938 2549.492188 2333.308594 2551.523438 C 2332.210938 2551.363281 2331.054688 2551.367188 2329.890625 2551.496094 C 2330.117188 2551.949219 2330.382812 2552.359375 2330.605469 2552.820312 L 2331.292969 2554.265625 L 2332.878906 2554.5 C 2334.089844 2554.675781 2336.25 2555.234375 2337.078125 2556.996094 C 2340.425781 2564.089844 2352.628906 2609.464844 2345.511719 2620.679688 C 2344.625 2622.089844 2343.574219 2622.695312 2342.007812 2622.695312 L 2156.195312 2622.695312 C 2151.484375 2622.695312 2148.324219 2621.648438 2146.800781 2619.570312 C 2143.847656 2615.558594 2146.46875 2607.152344 2147.886719 2602.640625 C 2152.289062 2588.550781 2186.441406 2572.960938 2209.03125 2562.648438 C 2215.140625 2559.859375 2220.617188 2557.355469 2224.835938 2555.21875 C 2226.585938 2554.339844 2228.238281 2553.90625 2229.898438 2553.90625 C 2232.328125 2553.90625 2234.796875 2554.824219 2237.65625 2556.8125 L 2239.34375 2557.988281 L 2241.042969 2556.835938 C 2241.328125 2556.644531 2241.558594 2556.4375 2241.835938 2556.246094 C 2241.019531 2555.570312 2240.195312 2554.925781 2239.367188 2554.351562 C 2248.265625 2548.34375 2250.941406 2541.949219 2249.003906 2532.367188 C 2247.289062 2523.839844 2233.542969 2456.441406 2219.382812 2380.609375 C 2219.203125 2379.636719 2219.023438 2378.636719 2218.835938 2377.65625 L 2152.398438 2391.46875 L 2153.339844 2394.335938 L 2156.292969 2393.726562 C 2158.167969 2399.4375 2159.628906 2403.179688 2160.605469 2404.507812 C 2168.230469 2414.898438 2181.605469 2436.824219 2181.199219 2452.308594 L 2178.171875 2453.046875 L 2178.097656 2456.15625 L 2186.5 2454.089844 L 2191.621094 2474.964844 L 2007.023438 2520.152344 C 2005.1875 2520.59375 2003.53125 2520.824219 2002.097656 2520.824219 C 1999.675781 2520.824219 1997.898438 2520.191406 1996.675781 2518.890625 C 1993.378906 2515.382812 1993.902344 2507.09375 1994.183594 2502.644531 C 1995.109375 2487.914062 2024.574219 2464.652344 2044.070312 2449.261719 C 2049.335938 2445.101562 2054.058594 2441.378906 2057.652344 2438.292969 C 2059.441406 2436.757812 2061.617188 2436.011719 2064.3125 2436.011719 C 2066.039062 2436.011719 2067.988281 2436.332031 2070.109375 2436.949219 L 2072.324219 2437.597656 L 2073.515625 2435.621094 C 2073.625 2435.441406 2073.703125 2435.261719 2073.808594 2435.082031 C 2072.851562 2434.710938 2071.890625 2434.34375 2070.949219 2434.070312 C 2075.964844 2425.765625 2076.929688 2418.054688 2073.9375 2410.824219 L 2076.886719 2410.214844 C 2076.816406 2410.03125 2076.78125 2409.851562 2076.703125 2409.679688 L 2075.753906 2407.382812 L 2000.5625 2423.011719 C 1992.1875 2393.921875 1918.464844 2137.589844 1904.023438 2073.59375 C 1900.902344 2059.789062 1896.726562 2030.058594 1891.613281 1985.222656 L 1885.660156 1985.15625 C 1881.984375 2012.03125 1879.09375 2039.394531 1882.804688 2057.519531 C 1883.976562 2063.222656 1885.9375 2072.246094 1888.457031 2083.84375 C 1904.195312 2156.203125 1945.6875 2346.996094 1944.605469 2432.996094 L 1870.597656 2430.390625 L 1870.828125 2433.402344 L 1873.847656 2433.511719 C 1874.316406 2439.503906 1874.835938 2443.488281 1875.46875 2445.011719 C 1880.398438 2456.917969 1888.175781 2481.390625 1884.109375 2496.335938 L 1881 2496.335938 L 1880.183594 2499.335938 L 1888.828125 2499.335938 L 1888.828125 2520.828125 L 1698.78125 2520.828125 C 1694.070312 2520.828125 1690.90625 2519.78125 1689.390625 2517.703125 C 1686.433594 2513.683594 1689.058594 2505.285156 1690.476562 2500.773438 C 1694.878906 2486.671875 1729.050781 2471.082031 1751.652344 2460.757812 C 1757.746094 2457.980469 1763.207031 2455.484375 1767.417969 2453.351562 C 1768.734375 2452.6875 1770.097656 2452.363281 1771.589844 2452.363281 C 1774.03125 2452.363281 1776.808594 2453.257812 1779.851562 2455.019531 L 1781.851562 2456.179688 L 1783.480469 2454.542969 C 1783.632812 2454.390625 1783.746094 2454.242188 1783.890625 2454.089844 C 1783.042969 2453.503906 1782.199219 2452.914062 1781.351562 2452.421875 C 1788.199219 2445.554688 1790.976562 2438.289062 1789.789062 2430.558594 L 1792.804688 2430.667969 C 1792.78125 2430.480469 1792.78125 2430.296875 1792.757812 2430.109375 L 1792.378906 2427.65625 L 1715.617188 2424.960938 L 1714.480469 2396.363281 L 1594.734375 2425.910156 C 1592.886719 2426.363281 1591.21875 2426.59375 1589.777344 2426.59375 C 1587.367188 2426.59375 1585.597656 2425.964844 1584.371094 2424.660156 C 1581.078125 2421.15625 1581.582031 2412.878906 1581.859375 2408.425781 C 1582.757812 2393.6875 1612.183594 2370.375 1631.652344 2354.949219 C 1636.914062 2350.785156 1641.625 2347.046875 1645.210938 2343.957031 C 1647.40625 2342.066406 1649.621094 2341.183594 1652.191406 2341.183594 C 1653.929688 2341.183594 1655.84375 2341.589844 1658.046875 2342.4375 L 1659.964844 2343.175781 L 1661.347656 2341.644531 C 1661.582031 2341.386719 1661.75 2341.140625 1661.96875 2340.882812 C 1661.015625 2340.414062 1660.0625 2339.988281 1659.121094 2339.628906 C 1666.320312 2331.667969 1667.382812 2324.820312 1663.207031 2315.976562 C 1662.355469 2314.171875 1660.144531 2309.515625 1656.871094 2302.5625 C 1658.011719 2302.6875 1659.164062 2302.734375 1660.3125 2302.820312 L 1658.875 2299.765625 L 1657.207031 2299.578125 C 1643.863281 2298.101562 1631.472656 2293.542969 1621.355469 2286.390625 C 1579.164062 2256.535156 1501.871094 2018.246094 1497.949219 2003.167969 C 1491.324219 1977.691406 1485.378906 1946.457031 1480.300781 1910.324219 L 1474.398438 1910.132812 L 1464.226562 1959.175781 C 1461.886719 1970.441406 1468.070312 2009.605469 1475.886719 2059.1875 C 1488.796875 2141.042969 1506.484375 2253.144531 1490.527344 2279.671875 C 1487.128906 2285.324219 1482.480469 2290.566406 1476.714844 2295.265625 L 1475.574219 2296.195312 L 1475.609375 2297.664062 C 1475.628906 2298.355469 1475.644531 2298.980469 1475.664062 2299.652344 C 1476.628906 2298.941406 1477.6875 2298.34375 1478.609375 2297.585938 C 1479.332031 2325.980469 1480.445312 2345.515625 1483.007812 2349.589844 C 1484.160156 2351.417969 1485.1875 2353.394531 1486.152344 2355.425781 C 1485.054688 2355.265625 1483.890625 2355.269531 1482.730469 2355.398438 C 1482.960938 2355.851562 1483.222656 2356.261719 1483.445312 2356.722656 L 1484.136719 2358.164062 L 1485.71875 2358.398438 C 1486.933594 2358.570312 1489.09375 2359.128906 1489.925781 2360.90625 C 1493.269531 2367.996094 1505.460938 2413.410156 1498.363281 2424.589844 C 1497.46875 2425.992188 1496.421875 2426.597656 1494.859375 2426.597656 L 1309.039062 2426.597656 C 1304.328125 2426.597656 1301.164062 2425.550781 1299.648438 2423.472656 C 1296.691406 2419.453125 1299.316406 2411.054688 1300.734375 2406.542969 C 1305.136719 2392.441406 1339.308594 2376.851562 1361.910156 2366.527344 C 1368.007812 2363.75 1373.464844 2361.253906 1377.679688 2359.125 C 1379.429688 2358.242188 1381.082031 2357.804688 1382.742188 2357.804688 C 1385.179688 2357.804688 1387.644531 2358.726562 1390.507812 2360.714844 L 1392.191406 2361.890625 L 1393.890625 2360.738281 C 1394.179688 2360.546875 1394.40625 2360.339844 1394.675781 2360.148438 C 1393.859375 2359.472656 1393.039062 2358.828125 1392.214844 2358.253906 C 1401.113281 2352.246094 1403.785156 2345.851562 1401.851562 2336.269531 C 1401.304688 2333.558594 1399.542969 2324.875 1396.9375 2311.890625 C 1397.996094 2312.195312 1399.085938 2312.351562 1400.148438 2312.617188 C 1399.769531 2310.738281 1399.523438 2309.515625 1399.523438 2309.515625 L 1397.773438 2309.011719 C 1382.449219 2304.59375 1369.351562 2296.472656 1359.894531 2285.519531 L 1358.753906 2284.195312 L 1326.527344 2290.722656 L 1320.113281 2259.097656 L 1229.972656 2310.296875 L 1142.730469 2327.976562 C 1139.960938 2296.351562 1193.863281 2265.75 1202.738281 2260.945312 L 1208.113281 2263.214844 L 1209.421875 2262.4375 C 1210.0625 2262.054688 1210.621094 2261.664062 1211.246094 2261.28125 L 1207.886719 2259.859375 C 1244.078125 2238.332031 1251.320312 2212.800781 1244.203125 2195.929688 C 1241.894531 2190.445312 1228.601562 2159.101562 1211.179688 2116.976562 C 1212.214844 2116.847656 1213.210938 2116.667969 1214.246094 2116.542969 C 1214.140625 2116.304688 1214.046875 2116.070312 1213.949219 2115.828125 L 1213.074219 2113.71875 L 1210.8125 2114 C 1179.277344 2117.871094 1144.898438 2119.832031 1108.601562 2119.832031 C 1088.480469 2119.832031 1067.820312 2119.214844 1047.222656 2118.011719 L 1043.996094 2117.828125 L 1044.042969 2120.816406 C 1045.042969 2120.875 1046.035156 2120.945312 1047.042969 2121.007812 C 1048.058594 2179.800781 1048.445312 2226.078125 1052.550781 2232.605469 C 1055.945312 2238 1058.507812 2243.910156 1060.472656 2249.765625 L 1057.640625 2250.761719 L 1058.585938 2253.601562 L 1061.214844 2252.683594 C 1063.117188 2257.6875 1066.992188 2269.5 1066.992188 2282.628906 L 1066.992188 2328.539062 L 1033.25 2328.539062 L 1033.25 2296.273438 L 934.730469 2328.539062 L 845.714844 2328.539062 C 849.28125 2297 908.191406 2277.707031 917.839844 2274.757812 L 922.667969 2278.0625 L 924.097656 2277.558594 C 924.804688 2277.3125 925.429688 2277.035156 926.117188 2276.785156 L 923.113281 2274.726562 C 962.855469 2260.820312 975.019531 2237.234375 971.402344 2219.285156 C 970.019531 2212.429688 960.859375 2167.484375 949.957031 2110.710938 C 950.988281 2110.871094 952.0625 2111.027344 953.105469 2111.191406 C 953.042969 2110.84375 952.96875 2110.488281 952.902344 2110.148438 L 952.507812 2108.082031 L 950.429688 2107.746094 C 901.847656 2100.011719 865.214844 2089.441406 853.707031 2079.929688 C 857.675781 2052.703125 910.933594 1688.59375 957.4375 1414.273438 L 958.035156 1410.773438 L 954.996094 1410.773438 L 954.480469 1413.773438 C 954.457031 1413.773438 865.152344 1420.550781 848.035156 1402.921875 C 803.148438 1356.695312 982.6875 1116.878906 1020.398438 1100.785156 C 1022.820312 1099.753906 1025.117188 1099.128906 1027.308594 1098.859375 C 1041.222656 1087.859375 1060.644531 1079.785156 1080.644531 1076.917969 L 1082.484375 1076.652344 L 1083.066406 1074.890625 C 1084.902344 1069.320312 1087.050781 1063.289062 1089.644531 1056.457031 L 1091.40625 1051.800781 L 1088.054688 1052.222656 C 1087.644531 1053.277344 1087.242188 1054.320312 1086.835938 1055.394531 C 1083.15625 1055.851562 1079.640625 1055.953125 1076.425781 1055.671875 C 1051.710938 1053.476562 1046.179688 1019.378906 1053.859375 987.492188 C 1054.5625 984.589844 1055.480469 981.902344 1056.535156 979.363281 C 1057.171875 980.324219 1057.9375 981.1875 1058.742188 982.007812 C 1058.933594 981.511719 1059.089844 981.019531 1059.300781 980.515625 L 1059.914062 979.039062 L 1059.035156 977.707031 C 1052.894531 968.402344 1055.75 952.898438 1060.667969 946.980469 C 1066.78125 939.636719 1073.304688 936.074219 1080.625 936.074219 C 1085.464844 936.074219 1090.691406 937.601562 1096.589844 940.757812 L 1097.621094 941.3125 L 1098.757812 941.015625 C 1105.195312 939.335938 1111.386719 938.484375 1117.164062 938.484375 L 1117.433594 938.484375 L 1117.765625 938.4375 C 1121.238281 937.800781 1124.640625 937.476562 1127.886719 937.476562 C 1135.296875 937.476562 1142.148438 939.101562 1148.820312 942.4375 C 1169.113281 953.261719 1184.417969 975.128906 1187.730469 998.101562 C 1201.390625 1092.542969 1227.773438 1167.949219 1245.234375 1217.851562 C 1257.101562 1251.769531 1266.472656 1278.566406 1261.664062 1284.980469 C 1258.417969 1289.3125 1240.636719 1295.558594 1201.222656 1298.90625 L 1199.101562 1299.085938 L 1198.574219 1301.148438 C 1188.976562 1338.667969 1176.289062 1373.671875 1167.332031 1396.421875 L 1166.652344 1398.144531 L 1167.882812 1399.519531 C 1176.03125 1408.644531 1188.972656 1430.324219 1204.316406 1481.796875 C 1221.636719 1539.851562 1275.0625 1799.40625 1305.367188 1948.957031 L 1311.300781 1948.507812 C 1315.742188 1857.546875 1338.054688 1744.304688 1347.4375 1699.835938 L 1348.027344 1697.058594 L 1345.285156 1696.320312 C 1325.046875 1690.867188 1320.210938 1686.246094 1319.222656 1684.992188 L 1337.179688 1571.929688 L 1333.679688 1571.90625 C 1331.300781 1571.886719 1275.175781 1570.589844 1267.429688 1489.6875 C 1259.40625 1406.027344 1338.804688 1241.886719 1391.863281 1210.039062 C 1423.085938 1191.300781 1453.980469 1180.476562 1483.679688 1177.855469 L 1486.417969 1177.613281 L 1486.417969 1174.6875 C 1485.421875 1174.757812 1484.40625 1174.777344 1483.417969 1174.867188 L 1483.417969 1152.269531 C 1477.421875 1153.65625 1471.640625 1154.167969 1466.59375 1153.722656 C 1441.878906 1151.527344 1436.347656 1117.429688 1444.027344 1085.542969 C 1444.578125 1083.265625 1445.28125 1081.132812 1446.054688 1079.082031 C 1446.761719 1079.929688 1447.5625 1080.703125 1448.425781 1081.410156 C 1448.574219 1080.980469 1448.695312 1080.589844 1448.867188 1080.132812 L 1449.480469 1078.5 L 1448.359375 1077.164062 C 1441.117188 1068.511719 1443.523438 1051.542969 1448.929688 1045.050781 C 1455.042969 1037.707031 1461.566406 1034.144531 1468.882812 1034.144531 C 1473.726562 1034.144531 1478.953125 1035.671875 1484.851562 1038.828125 L 1485.882812 1039.378906 L 1487.015625 1039.085938 C 1493.449219 1037.40625 1499.640625 1036.554688 1505.417969 1036.554688 L 1505.695312 1036.554688 L 1506.023438 1036.507812 C 1509.5 1035.871094 1512.902344 1035.546875 1516.148438 1035.546875 C 1523.558594 1035.546875 1530.410156 1037.171875 1537.082031 1040.507812 C 1558.539062 1051.949219 1559.25 1073.496094 1556.066406 1089.546875 C 1553.417969 1102.898438 1545.695312 1115.25 1539.503906 1125.179688 C 1535.671875 1131.3125 1532.371094 1136.617188 1530.636719 1141.300781 C 1529.621094 1145.339844 1524.15625 1146.03125 1520.988281 1146.101562 L 1518.0625 1146.175781 L 1518.0625 1149 C 1519.070312 1149.0625 1520.082031 1149.125 1521.0625 1149.101562 L 1521.0625 1176 C 1520.058594 1175.851562 1519.0625 1175.773438 1518.0625 1175.640625 L 1518.0625 1178.582031 L 1520.609375 1178.964844 C 1545.957031 1182.804688 1570.371094 1193.207031 1593.199219 1209.902344 C 1655.550781 1255.488281 1725.691406 1429.488281 1703.726562 1519.496094 C 1696.765625 1548.007812 1681.097656 1564.332031 1657.175781 1568.011719 L 1654.453125 1568.425781 L 1654.640625 1571.179688 C 1657.164062 1608.019531 1660.339844 1641.109375 1664.347656 1672.285156 C 1660.890625 1674.949219 1650.109375 1682.652344 1631.539062 1690.679688 L 1629.636719 1691.507812 L 1641.625 1944.667969 C 1642.164062 1956.167969 1657.921875 1992.582031 1677.863281 2038.6875 C 1684.710938 2054.507812 1691.984375 2071.316406 1699.148438 2088.3125 L 1704.914062 2087.117188 C 1704.824219 2077.339844 1704.824219 2069.027344 1704.941406 2062.613281 C 1705.292969 2042.972656 1710.902344 1993.589844 1721.605469 1915.886719 C 1720.644531 1915.507812 1719.683594 1915.160156 1718.738281 1914.734375 C 1717.457031 1914.15625 1716.175781 1913.605469 1714.925781 1912.933594 C 1714.734375 1914.347656 1713.746094 1915.699219 1711.6875 1916.945312 C 1698.269531 1925.078125 1673.910156 1902.847656 1666.589844 1890.917969 C 1653.167969 1864.890625 1659.890625 1791.648438 1661.390625 1768.410156 C 1662.890625 1745.171875 1713.480469 1597.535156 1751.105469 1554.535156 C 1757.082031 1547.699219 1761.671875 1538.117188 1765.410156 1526.765625 L 1768.453125 1527.109375 L 1769.417969 1524.191406 L 1723.082031 1519.03125 C 1727.863281 1490.480469 1766.394531 1274.839844 1838.582031 1274.839844 C 1840.976562 1274.839844 1843.429688 1275.085938 1845.851562 1275.566406 C 1853.582031 1277.105469 1860.800781 1279.777344 1867.304688 1283.503906 L 1868.542969 1284.21875 L 1869.875 1283.699219 C 1883.171875 1278.578125 1897.609375 1275.804688 1911.628906 1275.683594 L 1914.605469 1275.660156 L 1914.605469 1272.78125 C 1913.609375 1272.761719 1912.597656 1272.679688 1911.605469 1272.683594 L 1911.605469 1254.152344 C 1905.613281 1255.535156 1899.828125 1256.046875 1894.789062 1255.597656 C 1870.074219 1253.402344 1864.542969 1219.304688 1872.222656 1187.417969 C 1872.925781 1184.515625 1873.84375 1181.828125 1874.898438 1179.289062 C 1875.535156 1180.25 1876.300781 1181.113281 1877.113281 1181.941406 C 1877.304688 1181.441406 1877.460938 1180.949219 1877.671875 1180.441406 L 1878.28125 1178.964844 L 1877.40625 1177.632812 C 1871.257812 1168.332031 1874.105469 1152.824219 1879.03125 1146.902344 C 1885.144531 1139.558594 1891.667969 1135.992188 1898.988281 1135.992188 C 1903.832031 1135.992188 1909.054688 1137.527344 1914.960938 1140.683594 L 1915.992188 1141.238281 L 1919.285156 1140.34375 C 1924.144531 1138.96875 1932.265625 1136.671875 1942.164062 1136.671875 C 1951.082031 1136.671875 1959.511719 1138.589844 1967.207031 1142.371094 C 1982.519531 1149.894531 1997.585938 1168.136719 1996.742188 1191.925781 L 1996.644531 1194.542969 L 1999.230469 1194.984375 C 2028.59375 1200.054688 2053.722656 1232.203125 2062.457031 1259.875 C 2074.976562 1294.644531 2068.226562 1320.523438 2060.40625 1350.492188 L 2059.160156 1355.300781 L 2059.550781 1356.234375 C 2086.535156 1420.1875 2090.015625 1504.308594 2090.4375 1520.5625 L 2071.890625 1522.109375 L 2071.765625 1524.738281 C 2071.757812 1524.871094 2071.746094 1525.003906 2071.742188 1525.136719 L 2074.757812 1524.882812 C 2072.550781 1571.808594 2057.984375 1631.359375 2001.90625 1653.402344 C 2001.558594 1652.449219 2001.210938 1651.523438 2000.863281 1650.582031 C 2000.84375 1650.589844 2000.828125 1650.601562 2000.808594 1650.605469 L 1998.078125 1651.6875 L 1999.085938 1654.433594 C 2016.527344 1702.019531 2029.710938 1744.988281 2038.253906 1782.140625 C 2049.589844 1831.394531 2054.089844 1880.273438 2058.0625 1923.402344 C 2062.273438 1969.175781 2065.601562 2005.328125 2075.582031 2026.386719 C 2078.070312 2031.632812 2082.101562 2039.898438 2087.285156 2050.519531 C 2114.234375 2105.71875 2170.316406 2220.582031 2203.40625 2308.976562 L 2206.265625 2308.195312 C 2206.25 2308.105469 2206.230469 2308.007812 2206.21875 2307.917969 C 2195.75 2247.816406 2187.296875 2192.351562 2186.570312 2166.324219 C 2186.5625 2166.15625 2186.5625 2165.964844 2186.558594 2165.796875 C 2187.535156 2166.15625 2188.585938 2166.503906 2189.59375 2166.859375 C 2189.585938 2166.667969 2189.574219 2166.4375 2189.570312 2166.246094 L 2189.507812 2164.214844 L 2187.601562 2162.984375 C 2161.824219 2153.515625 2158.679688 2146.925781 2158.320312 2145.128906 C 2155.910156 2132.855469 2169.769531 2039.75 2195.398438 1896.050781 L 2195.886719 1893.332031 L 2193.214844 1892.621094 C 2172.527344 1887.128906 2167.476562 1882.453125 2166.40625 1881.132812 L 2186.5625 1779.402344 C 2185.417969 1780.183594 2184.257812 1780.914062 2183.082031 1781.558594 C 2174.683594 1786.160156 2165.554688 1787.238281 2155.726562 1782.949219 C 2107.804688 1762.015625 2122.660156 1670.609375 2128.917969 1640.828125 C 2129.148438 1639.734375 2129.351562 1638.816406 2129.554688 1637.898438 L 2114.179688 1633.679688 C 2123.667969 1608.445312 2190.101562 1435.488281 2239.027344 1406.132812 C 2269 1388.144531 2299.855469 1378.226562 2330.71875 1376.648438 L 2333.566406 1376.503906 L 2333.566406 1373.582031 C 2332.570312 1373.617188 2331.5625 1373.605469 2330.566406 1373.652344 L 2330.566406 1348.363281 C 2324.574219 1349.75 2318.789062 1350.257812 2313.75 1349.808594 C 2289.035156 1347.613281 2283.503906 1313.515625 2291.183594 1281.628906 C 2291.734375 1279.351562 2292.4375 1277.226562 2293.210938 1275.167969 C 2293.921875 1276.015625 2294.71875 1276.78125 2295.582031 1277.492188 C 2295.730469 1277.066406 2295.851562 1276.675781 2296.019531 1276.226562 L 2296.644531 1274.582031 L 2295.515625 1273.238281 C 2288.117188 1264.441406 2290.558594 1247.304688 2296.019531 1241.207031 C 2305.171875 1230.980469 2318.695312 1225.792969 2336.203125 1225.792969 C 2357.808594 1225.792969 2378.640625 1233.785156 2384.238281 1236.589844 C 2401.90625 1246.007812 2411.929688 1265.660156 2410.320312 1287.835938 C 2407.867188 1321.703125 2383.710938 1337.921875 2368.164062 1338.21875 L 2365.222656 1338.269531 L 2365.222656 1341.109375 C 2366.195312 1341.199219 2367.199219 1341.234375 2368.222656 1341.21875 L 2368.222656 1375.78125 C 2367.214844 1375.621094 2366.226562 1375.519531 2365.222656 1375.375 L 2365.222656 1378.332031 L 2367.738281 1378.746094 C 2392.054688 1382.726562 2416.574219 1391.941406 2440.613281 1406.136719 C 2505.796875 1444.644531 2558.867188 1598.394531 2566.027344 1619.898438 C 2562.347656 1621.621094 2554.703125 1625.144531 2545.277344 1629.152344 L 2542.984375 1630.121094 L 2543.519531 1632.546875 C 2543.554688 1632.726562 2543.59375 1632.90625 2543.628906 1633.085938 C 2544.5625 1632.695312 2545.546875 1632.289062 2546.449219 1631.90625 C 2558.65625 1687.902344 2563.097656 1764.835938 2521.667969 1782.929688 C 2515.144531 1785.78125 2508.691406 1786.238281 2502.355469 1784.921875 C 2502.199219 1783.878906 2502.042969 1782.8125 2501.886719 1781.761719 L 2498.753906 1781.113281 L 2502.269531 1804.820312 C 2506.339844 1832.195312 2509.871094 1856.023438 2511.515625 1868.359375 C 2508.113281 1870.980469 2497.664062 1878.449219 2479.703125 1886.316406 L 2477.371094 1887.34375 L 2478 1889.808594 C 2485.042969 1917.230469 2485.570312 1969.6875 2486.125 2025.230469 C 2486.441406 2057.136719 2486.773438 2090.125 2488.402344 2119.238281 C 2489.304688 2135.386719 2492.464844 2147.125 2494.546875 2154.886719 C 2495.722656 2159.257812 2496.839844 2163.382812 2496.421875 2164.691406 C 2496.109375 2165.648438 2494.507812 2168.203125 2486.214844 2171.316406 L 2483.089844 2172.488281 L 2484.402344 2175.085938 C 2485.367188 2174.765625 2486.386719 2174.453125 2487.269531 2174.117188 C 2534.867188 2268.726562 2579.496094 2493.132812 2592.359375 2505.535156 C 2593.914062 2507.035156 2595.382812 2508.714844 2596.820312 2510.453125 C 2595.714844 2510.5625 2594.585938 2510.84375 2593.488281 2511.242188 C 2593.820312 2511.628906 2594.171875 2511.960938 2594.496094 2512.355469 L 2595.507812 2513.59375 L 2597.105469 2513.441406 C 2597.394531 2513.414062 2597.679688 2513.402344 2597.96875 2513.402344 C 2599.128906 2513.414062 2600.757812 2513.664062 2601.742188 2514.875 Z M 1334.363281 2206.992188 L 1332.457031 2195.875 C 1327.488281 2167.03125 1322.957031 2132.359375 1318.980469 2092.820312 L 1318.597656 2088.949219 L 1314.960938 2090.304688 C 1310.363281 2092.007812 1305.660156 2093.632812 1300.859375 2095.171875 L 1298.253906 2096.011719 L 1298.878906 2098.867188 C 1299.820312 2098.574219 1300.828125 2098.332031 1301.773438 2098.03125 C 1312.972656 2148.941406 1321.476562 2187.714844 1326.371094 2192.851562 C 1327.457031 2193.992188 1328.496094 2195.171875 1329.496094 2196.386719 C 1329.851562 2198.441406 1330.230469 2200.40625 1330.59375 2202.425781 Z M 1725.78125 1885.746094 C 1724.8125 1885.207031 1723.867188 1884.65625 1722.996094 1884.097656 C 1721.011719 1882.820312 1719.34375 1881.535156 1718.105469 1880.316406 L 1718.101562 1880.324219 C 1719.167969 1881.390625 1720.835938 1882.820312 1722.929688 1884.546875 C 1723.769531 1885.242188 1724.667969 1885.980469 1725.617188 1886.75 Z M 1745.085938 1754.035156 L 1742.429688 1753.082031 C 1742.328125 1753.25 1742.21875 1753.421875 1742.125 1753.589844 C 1727.785156 1777.511719 1717.972656 1794.425781 1718.203125 1796.632812 C 1728.550781 1809.007812 1729.929688 1824.242188 1729.777344 1836.890625 C 1729.777344 1836.960938 1729.769531 1837.019531 1729.769531 1837.09375 L 1732.746094 1837.328125 C 1736.824219 1809.304688 1741.011719 1781.066406 1745.085938 1754.035156 Z M 1994.460938 1284.078125 L 1998.082031 1285.300781 L 1998.402344 1281.488281 C 1998.648438 1278.511719 1998.796875 1275.5 1998.796875 1272.460938 C 1998.796875 1259.496094 1997.863281 1240.578125 1989.75 1226.09375 L 1987.375 1221.851562 L 1984.644531 1225.871094 L 1983.761719 1227.269531 C 1976.585938 1237.457031 1960.558594 1244.402344 1948.703125 1246.535156 L 1946.238281 1246.980469 L 1946.238281 1249.992188 C 1946.308594 1249.988281 1946.375 1249.992188 1946.445312 1249.988281 C 1947.347656 1249.871094 1948.308594 1249.65625 1949.238281 1249.488281 L 1949.238281 1278.65625 C 1948.234375 1278.3125 1947.238281 1278.089844 1946.238281 1277.785156 L 1946.238281 1280.808594 L 1948.277344 1281.5 C 1949.554688 1281.929688 1950.828125 1282.394531 1952.105469 1282.871094 L 1953.222656 1283.296875 L 1954.324219 1282.84375 C 1958.8125 1280.976562 1963.691406 1280.027344 1968.820312 1280.015625 L 1969.039062 1280.015625 C 1977.917969 1280.027344 1986.472656 1281.390625 1994.460938 1284.078125 Z M 138.703125 1374.421875 L 4.042969 1909.074219 L 203.21875 1909.074219 L 211.625 1979.917969 L 791.550781 1979.917969 L 719.65625 1374.421875 Z M 138.703125 1374.421875 " fill-opacity="1" fill-rule="nonzero"/><path fill="#ffde59" d="M 2997.292969 934.25 L 2997.292969 1053.46875 L 2879.21875 1030.308594 L 2879.21875 911.089844 Z M 2078.285156 2025.085938 C 2059.230469 1984.867188 2064.472656 1882.722656 2041.167969 1781.449219 C 2031.097656 1737.671875 2015.902344 1691.605469 2001.898438 1653.382812 C 1994.394531 1632.914062 1987.242188 1614.714844 1981.390625 1600.320312 C 1962.648438 1604.707031 1946.195312 1573.625 1915.609375 1575.4375 C 1888.625 1577.039062 1847.6875 1611.894531 1826.453125 1610.582031 C 1802.652344 1654.148438 1766.074219 1713.648438 1742.136719 1753.589844 C 1738.0625 1780.632812 1733.867188 1808.863281 1729.789062 1836.886719 C 1729.691406 1844.660156 1729.019531 1851.449219 1729.488281 1855.988281 C 1731.925781 1871.167969 1756.648438 1877.035156 1753.972656 1887.859375 C 1751.753906 1896.839844 1733.386719 1890.761719 1723.015625 1884.097656 C 1722.988281 1884.246094 1722.972656 1884.398438 1722.949219 1884.546875 C 1736.472656 1895.710938 1765.769531 1918.160156 1738.574219 1919.089844 C 1732.042969 1919.449219 1725.265625 1917.660156 1718.734375 1914.703125 C 1709.359375 1982.710938 1702.34375 2040.222656 1701.941406 2062.535156 C 1701.828125 2068.96875 1701.820312 2077.308594 1701.910156 2087.125 C 1702.351562 2135.789062 1705.0625 2221.109375 1707.664062 2294.207031 C 1708.453125 2316.292969 1709.226562 2337.253906 1709.929688 2355.757812 C 1710.582031 2373.085938 1711.167969 2388.257812 1711.636719 2400.152344 C 1712.316406 2417.472656 1712.742188 2427.847656 1712.742188 2427.847656 L 1789.804688 2430.550781 L 1873.859375 2433.503906 L 1947.558594 2436.097656 C 1950.019531 2338.535156 1894.699219 2100.515625 1885.75 2056.914062 C 1882.324219 2040.210938 1884.535156 2015.492188 1888.632812 1985.558594 C 1893.335938 2026.777344 1897.683594 2059.140625 1901.101562 2074.261719 C 1916.539062 2142.65625 1998.449219 2426.519531 1998.449219 2426.519531 L 2073.933594 2410.832031 L 2156.285156 2393.710938 L 2219.371094 2380.597656 C 2214.90625 2356.679688 2210.398438 2331.929688 2206.210938 2307.914062 C 2166.585938 2202.085938 2093.472656 2057.136719 2078.285156 2025.085938 Z M 1900.789062 1542.527344 C 1901.035156 1541.617188 1925.484375 1450.242188 1918.800781 1374.425781 L 1918.535156 1371.4375 L 1909.671875 1372.210938 L 1909.9375 1375.207031 C 1916.550781 1450.265625 1892.449219 1539.292969 1892.203125 1540.183594 L 1891.410156 1543.082031 L 1900 1545.425781 Z M 769.855469 1771.730469 L 722.328125 1371.421875 L 136.363281 1371.421875 L 65.605469 1855.433594 L 200.550781 1912.074219 L 208.960938 1982.917969 L 794.925781 1982.917969 L 770.214844 1774.746094 Z M 769.855469 1771.730469 " fill-opacity="1" fill-rule="nonzero"/><path fill="#ffbd59" d="M 421.859375 874.195312 C 420.550781 875.800781 419.160156 877.339844 417.71875 878.828125 C 417.59375 878.957031 417.480469 879.101562 417.347656 879.234375 C 415.789062 880.824219 414.148438 882.332031 412.445312 883.769531 C 412.429688 883.789062 412.410156 883.804688 412.390625 883.820312 C 400.261719 894.054688 384.691406 900.300781 367.65625 900.640625 C 367.65625 900.640625 367.648438 900.640625 367.648438 900.640625 C 367.164062 900.65625 366.691406 900.714844 366.203125 900.714844 C 365.710938 900.714844 365.238281 900.648438 364.75 900.640625 C 364.75 900.640625 364.75 900.640625 364.746094 900.640625 C 347.710938 900.300781 332.140625 894.054688 320.011719 883.820312 C 319.980469 883.792969 319.957031 883.765625 319.925781 883.742188 C 318.234375 882.304688 316.601562 880.804688 315.046875 879.222656 C 314.921875 879.097656 314.808594 878.953125 314.683594 878.820312 C 313.242188 877.332031 311.84375 875.796875 310.535156 874.183594 C 310.308594 873.902344 310.109375 873.59375 309.890625 873.3125 C 308.710938 871.820312 307.566406 870.304688 306.511719 868.722656 C 306.210938 868.273438 305.957031 867.785156 305.664062 867.332031 C 304.742188 865.871094 303.816406 864.410156 302.996094 862.878906 C 302.640625 862.222656 302.351562 861.527344 302.023438 860.855469 C 301.339844 859.476562 300.636719 858.109375 300.035156 856.679688 C 299.664062 855.796875 299.382812 854.878906 299.046875 853.980469 C 298.574219 852.707031 298.0625 851.453125 297.660156 850.152344 C 297.3125 849.023438 297.066406 847.859375 296.777344 846.707031 C 296.492188 845.585938 296.15625 844.484375 295.921875 843.335938 C 295.625 841.890625 295.453125 840.402344 295.25 838.925781 C 295.125 838.039062 294.9375 837.167969 294.847656 836.269531 C 294.605469 833.875 294.480469 831.445312 294.480469 828.984375 C 294.480469 826.523438 294.605469 824.09375 294.847656 821.699219 C 294.9375 820.800781 295.125 819.929688 295.25 819.042969 C 295.453125 817.566406 295.625 816.078125 295.921875 814.632812 C 296.15625 813.488281 296.492188 812.386719 296.777344 811.261719 C 297.074219 810.113281 297.320312 808.945312 297.660156 807.816406 C 298.0625 806.515625 298.574219 805.261719 299.046875 803.988281 C 299.382812 803.089844 299.664062 802.171875 300.035156 801.289062 C 300.636719 799.859375 301.339844 798.488281 302.023438 797.113281 C 302.359375 796.445312 302.640625 795.75 302.996094 795.089844 C 303.816406 793.558594 304.734375 792.097656 305.664062 790.636719 C 305.953125 790.183594 306.210938 789.695312 306.511719 789.246094 C 307.566406 787.664062 308.710938 786.152344 309.890625 784.65625 C 310.109375 784.375 310.308594 784.070312 310.535156 783.785156 C 311.84375 782.179688 313.242188 780.640625 314.683594 779.148438 C 314.808594 779.015625 314.921875 778.878906 315.046875 778.746094 C 316.601562 777.164062 318.234375 775.664062 319.925781 774.226562 C 319.957031 774.203125 319.980469 774.175781 320.011719 774.152344 C 332.140625 763.914062 347.710938 757.667969 364.746094 757.328125 C 364.746094 757.328125 364.746094 757.328125 364.75 757.328125 C 365.238281 757.316406 365.710938 757.253906 366.203125 757.253906 C 366.691406 757.253906 367.164062 757.316406 367.648438 757.328125 C 367.648438 757.328125 367.65625 757.328125 367.65625 757.328125 C 384.691406 757.667969 400.261719 763.914062 412.390625 774.152344 C 412.410156 774.167969 412.429688 774.1875 412.445312 774.199219 C 414.148438 775.636719 415.789062 777.144531 417.347656 778.734375 C 417.472656 778.867188 417.59375 779.011719 417.71875 779.140625 C 419.160156 780.628906 420.550781 782.167969 421.859375 783.773438 C 422.074219 784.042969 422.269531 784.332031 422.476562 784.601562 C 423.667969 786.109375 424.824219 787.632812 425.886719 789.230469 C 426.179688 789.671875 426.425781 790.140625 426.714844 790.589844 C 427.648438 792.0625 428.574219 793.53125 429.394531 795.066406 C 429.75 795.71875 430.03125 796.410156 430.367188 797.078125 C 431.058594 798.457031 431.761719 799.832031 432.359375 801.265625 C 432.730469 802.148438 433.015625 803.078125 433.351562 803.976562 C 433.824219 805.242188 434.328125 806.492188 434.730469 807.785156 C 435.078125 808.921875 435.324219 810.089844 435.617188 811.242188 C 435.90625 812.363281 436.242188 813.460938 436.46875 814.601562 C 436.765625 816.035156 436.933594 817.511719 437.136719 818.976562 C 437.261719 819.875 437.449219 820.757812 437.542969 821.671875 C 437.785156 824.066406 437.910156 826.496094 437.910156 828.953125 C 437.910156 831.414062 437.785156 833.84375 437.542969 836.238281 C 437.453125 837.152344 437.261719 838.03125 437.136719 838.933594 C 436.933594 840.398438 436.757812 841.871094 436.46875 843.308594 C 436.234375 844.445312 435.898438 845.542969 435.617188 846.667969 C 435.324219 847.820312 435.078125 848.996094 434.730469 850.121094 C 434.328125 851.417969 433.824219 852.667969 433.351562 853.933594 C 433.011719 854.832031 432.726562 855.761719 432.359375 856.644531 C 431.761719 858.078125 431.058594 859.453125 430.367188 860.832031 C 430.039062 861.5 429.75 862.1875 429.394531 862.84375 C 428.566406 864.378906 427.644531 865.855469 426.714844 867.320312 C 426.425781 867.769531 426.179688 868.242188 425.886719 868.679688 C 424.816406 870.277344 423.667969 871.808594 422.476562 873.308594 C 422.269531 873.636719 422.082031 873.929688 421.859375 874.195312 Z M 2569.660156 1621.484375 C 2569.660156 1621.484375 2513.675781 1445.839844 2442.097656 1403.550781 C 2416.410156 1388.375 2391.695312 1379.628906 2368.1875 1375.78125 C 2355.261719 1373.671875 2342.699219 1373.023438 2330.542969 1373.648438 C 2295.949219 1375.410156 2264.617188 1387.253906 2237.460938 1403.554688 C 2183.40625 1436 2110.199219 1635.707031 2110.199219 1635.707031 L 2128.902344 1640.828125 C 2130.144531 1634.898438 2131.054688 1631.359375 2131.054688 1631.359375 L 2247.179688 1652.375 C 2247.179688 1652.375 2223.792969 1759.261719 2183.0625 1781.554688 L 2163.25 1881.535156 C 2163.246094 1881.535156 2163.769531 1887.914062 2192.429688 1895.515625 C 2213.082031 1900.992188 2259.300781 1934.597656 2319.601562 1939.441406 C 2403.605469 1946.183594 2448.691406 1903.175781 2480.867188 1889.078125 C 2503.847656 1879.003906 2514.667969 1869.65625 2514.667969 1869.65625 C 2512.800781 1855.285156 2507.761719 1821.769531 2502.3125 1784.933594 C 2494.464844 1731.90625 2485.757812 1672.003906 2484.414062 1652.417969 C 2502.28125 1649.671875 2527.910156 1639.78125 2546.40625 1631.917969 C 2559.929688 1626.164062 2569.660156 1621.484375 2569.660156 1621.484375 Z M 1308.292969 1948.34375 C 1275.898438 1788.488281 1224.277344 1538.25 1207.175781 1480.925781 C 1191.417969 1428.089844 1178.050781 1406.402344 1170.101562 1397.507812 C 1180.078125 1372.164062 1192.199219 1338.113281 1201.464844 1301.875 C 1159.132812 1305.46875 1077.183594 1083.136719 1080.203125 1073.941406 C 1054.734375 1077.59375 1033.0625 1088.921875 1020.382812 1100.773438 C 1058.085938 1084.6875 1067.617188 1165.128906 1052.125 1215.320312 C 1036.625 1265.515625 961.503906 1372.65625 961.503906 1372.65625 L 954.46875 1413.761719 C 933.671875 1536.445312 911.65625 1676.15625 893.265625 1795.933594 C 893.125 1796.886719 892.972656 1797.847656 892.828125 1798.792969 C 868.414062 1957.878906 850.492188 2081.082031 850.492188 2081.082031 C 861.210938 2091.46875 898.828125 2102.5625 949.941406 2110.703125 C 978.804688 2115.300781 1011.960938 2118.949219 1047.027344 2120.996094 C 1100.164062 2124.097656 1157.65625 2123.527344 1211.160156 2116.960938 C 1243.433594 2113.003906 1274.230469 2106.847656 1301.765625 2098.027344 C 1306.613281 2096.472656 1311.359375 2094.839844 1315.992188 2093.117188 C 1310.21875 2035.734375 1307.511719 1986.648438 1307.496094 1980.011719 C 1307.464844 1969.882812 1307.757812 1959.257812 1308.292969 1948.34375 Z M 1308.292969 1948.34375 " fill-opacity="1" fill-rule="nonzero"/><path fill="#000000" d="M 1657.621094 1570.949219 C 1659.894531 1604.144531 1662.976562 1638.488281 1667.53125 1673.550781 C 1667.53125 1673.550781 1656.394531 1683.175781 1632.71875 1693.410156 C 1600.378906 1707.390625 1548.738281 1760.105469 1465.601562 1753.433594 C 1404.515625 1748.53125 1365.027344 1704.734375 1344.492188 1699.195312 C 1316.617188 1691.683594 1316.105469 1685.425781 1316.097656 1685.417969 L 1333.65625 1574.886719 C 1333.65625 1574.886719 1272.550781 1574.738281 1264.425781 1489.957031 C 1256.304688 1405.175781 1336.257812 1239.886719 1390.3125 1207.445312 C 1416.988281 1191.4375 1448.902344 1177.890625 1483.402344 1174.847656 C 1495.667969 1173.769531 1508.25 1174.03125 1521.046875 1175.972656 C 1545.210938 1179.628906 1570.109375 1189.285156 1594.949219 1207.445312 C 1680.109375 1269.71875 1771.050781 1553.507812 1657.621094 1570.949219 Z M 1478.242188 1892.59375 L 1486.984375 1894.277344 L 1512.269531 1763.195312 L 1503.527344 1761.511719 Z M 2350.648438 1957.644531 L 2325.367188 2088.726562 L 2334.109375 2090.414062 L 2359.390625 1959.332031 Z M 0.191406 1912.074219 L 200.550781 1912.074219 L 136.363281 1371.421875 Z M 0.191406 1912.074219 " fill-opacity="1" fill-rule="nonzero"/><path fill="#000000" d="M 2999.023438 931.644531 L 366.480469 415.226562 C 366.054688 415.132812 365.617188 415.25 365.28125 415.523438 C 364.945312 415.800781 364.75 416.207031 364.75 416.640625 L 364.75 1371.421875 L 367.648438 1371.421875 L 367.648438 418.398438 L 2879.21875 911.089844 L 2997.292969 934.25 L 2997.292969 2208.671875 L 2490.882812 2109.332031 C 2487.335938 2031.371094 2491.683594 1931.15625 2480.875 1889.066406 C 2448.695312 1903.164062 2392.621094 1918.6875 2308.613281 1911.941406 C 2248.3125 1907.101562 2213.082031 1900.988281 2192.429688 1895.503906 C 2181.425781 1957.199219 2151.730469 2127.226562 2155.363281 2145.691406 C 2156.652344 2152.253906 2169.101562 2159.371094 2186.542969 2165.777344 C 2222.117188 2178.851562 2278.503906 2188.96875 2304.089844 2185.480469 C 2309.148438 2184.792969 2313.039062 2183.59375 2315.285156 2181.761719 C 2319.582031 2178.246094 2316.886719 2161.84375 2321.964844 2139.335938 C 2323.453125 2132.730469 2325.011719 2125.523438 2326.613281 2117.933594 C 2330.394531 2150.886719 2334.132812 2175.277344 2337.199219 2179.171875 C 2339.921875 2182.632812 2351.140625 2184.785156 2366.496094 2185.746094 C 2402.671875 2188.019531 2461.816406 2183.671875 2487.238281 2174.125 C 2493.875 2171.632812 2498.226562 2168.789062 2499.246094 2165.617188 C 2500.894531 2160.492188 2492.898438 2146.363281 2491.367188 2119.070312 C 2491.242188 2116.835938 2491.128906 2114.582031 2491.019531 2112.304688 L 2998.464844 2211.851562 C 2998.558594 2211.875 2998.648438 2211.882812 2998.746094 2211.882812 C 2999.074219 2211.882812 2999.398438 2211.761719 2999.664062 2211.546875 C 3000 2211.269531 3000.191406 2210.863281 3000.191406 2210.429688 L 3000.191406 933.066406 C 3000.191406 932.371094 2999.699219 931.777344 2999.023438 931.644531 Z M 2331.726562 2086.898438 L 2328.882812 2086.351562 L 2353.03125 1961.167969 L 2355.875 1961.710938 Z M 892.828125 1798.800781 L 770.207031 1774.746094 L 769.847656 1771.730469 L 893.269531 1795.9375 C 893.125 1796.890625 892.980469 1797.851562 892.828125 1798.800781 Z M 1062.910156 2248.898438 C 1062.910156 2248.898438 1069.984375 2264.402344 1069.984375 2282.621094 C 1069.984375 2300.84375 1069.984375 2331.539062 1069.984375 2331.539062 L 1030.242188 2331.539062 L 1030.242188 2300.40625 L 935.203125 2331.539062 L 842.539062 2331.539062 C 842.539062 2292.824219 918.347656 2271.476562 918.347656 2271.476562 L 923.105469 2274.726562 L 945.769531 2290.21875 L 1060.464844 2249.761719 Z M 1086.652344 1017.433594 C 1085.855469 1017.433594 1085.207031 1016.785156 1085.207031 1015.988281 C 1085.207031 1002.511719 1095.773438 1001.136719 1095.882812 1001.117188 C 1096.644531 1001.035156 1097.394531 1001.59375 1097.488281 1002.390625 C 1097.578125 1003.183594 1097.015625 1003.898438 1096.222656 1003.992188 C 1095.886719 1004.035156 1088.097656 1005.152344 1088.097656 1015.980469 C 1088.105469 1016.785156 1087.457031 1017.433594 1086.652344 1017.433594 Z M 1097.253906 1295.710938 C 1076.6875 1281.5 1094.496094 1253.542969 1091.359375 1212.4375 C 1087.679688 1164.269531 1065.695312 1150.664062 1073.417969 1100.464844 C 1074.683594 1092.234375 1077.191406 1083.136719 1080.210938 1073.945312 C 1082.25 1067.726562 1084.519531 1061.460938 1086.820312 1055.386719 C 1093.3125 1038.246094 1099.96875 1022.617188 1101.875 1013.765625 C 1098.046875 1020.445312 1090.230469 1026.191406 1083.277344 1026.191406 C 1082.476562 1026.191406 1081.828125 1025.542969 1081.828125 1024.746094 C 1081.828125 1023.949219 1082.476562 1023.300781 1083.277344 1023.300781 C 1092.019531 1023.300781 1101.378906 1013.128906 1101.378906 1005.964844 C 1101.378906 1002.300781 1099.027344 998.550781 1095.527344 996.628906 C 1092.214844 994.8125 1088.472656 994.945312 1085.261719 996.992188 C 1085.171875 997.050781 1085.0625 997.007812 1084.96875 997.042969 C 1082.941406 999.085938 1081.589844 1002.546875 1079.542969 1007.214844 C 1075.949219 1015.410156 1069.074219 1020.839844 1065.816406 1019.027344 C 1062.558594 1017.214844 1071.042969 989.6875 1062.558594 985.003906 C 1060.019531 983.597656 1058.039062 981.648438 1056.523438 979.355469 C 1049.8125 969.203125 1052.40625 952.199219 1058.351562 945.0625 C 1071.007812 929.855469 1084.675781 930.992188 1097.992188 938.113281 C 1104.910156 936.308594 1111.3125 935.480469 1117.21875 935.484375 C 1128.191406 933.46875 1139.171875 934.261719 1150.152344 939.75 C 1171.871094 951.335938 1187.320312 974.339844 1190.695312 997.667969 C 1214.652344 1163.304688 1277.417969 1268.941406 1264.0625 1286.765625 C 1258.601562 1294.050781 1232.011719 1299.289062 1201.46875 1301.878906 C 1159.132812 1305.46875 1109.195312 1303.96875 1097.253906 1295.710938 Z M 931.746094 1406.976562 C 931.402344 1406.976562 931.054688 1406.855469 930.773438 1406.605469 C 930.179688 1406.070312 930.132812 1405.152344 930.671875 1404.558594 L 955.207031 1377.335938 C 955.746094 1376.75 956.65625 1376.695312 957.25 1377.234375 C 957.84375 1377.769531 957.894531 1378.6875 957.355469 1379.28125 L 932.820312 1406.503906 C 932.539062 1406.816406 932.140625 1406.976562 931.746094 1406.976562 Z M 1492.632812 2359.601562 C 1495.722656 2366.160156 1514.160156 2429.582031 1494.851562 2429.582031 C 1475.542969 2429.582031 1326.921875 2429.582031 1309.039062 2429.582031 C 1291.152344 2429.582031 1294.746094 2415.59375 1297.859375 2405.628906 C 1303.878906 2386.390625 1355.484375 2366.980469 1376.320312 2356.429688 C 1382.242188 2353.429688 1387.324219 2354.84375 1392.210938 2358.242188 C 1404.511719 2366.789062 1415.507812 2388.289062 1435.199219 2386.390625 C 1462.710938 2383.734375 1468.789062 2369.460938 1472.652344 2361.738281 C 1475.09375 2356.847656 1481.203125 2354.6875 1486.144531 2355.410156 C 1489.011719 2355.828125 1491.496094 2357.195312 1492.632812 2359.601562 Z M 1711.621094 2400.144531 C 1663.867188 2411.929688 1606.042969 2426.191406 1595.449219 2428.808594 C 1578.078125 2433.089844 1578.214844 2418.648438 1578.851562 2408.226562 C 1580.082031 2388.101562 1625.542969 2356.902344 1643.242188 2341.664062 C 1648.277344 2337.332031 1653.550781 2337.488281 1659.113281 2339.617188 C 1673.101562 2344.976562 1688.925781 2363.214844 1707.585938 2356.652344 C 1708.402344 2356.363281 1709.136719 2356.050781 1709.910156 2355.75 C 1710.570312 2373.078125 1711.15625 2388.257812 1711.621094 2400.144531 Z M 1324.167969 2294.25 L 1357.613281 2287.46875 C 1367.976562 2299.46875 1381.859375 2307.535156 1396.929688 2311.878906 C 1425.09375 2319.996094 1457.296875 2314.9375 1478.601562 2297.570312 C 1484.273438 2292.941406 1489.265625 2287.554688 1493.085938 2281.199219 C 1519.074219 2238.007812 1461.042969 1989.234375 1467.148438 1959.769531 C 1468.625 1952.664062 1472.421875 1934.347656 1477.324219 1910.722656 C 1481.949219 1943.59375 1487.753906 1975.894531 1495.042969 2003.90625 C 1498.972656 2019.007812 1575.816406 2257.824219 1619.617188 2288.820312 C 1630.691406 2296.65625 1643.574219 2301.074219 1656.871094 2302.546875 C 1674.125 2304.460938 1692.027344 2301.320312 1707.652344 2294.207031 C 1705.050781 2221.117188 1702.335938 2135.789062 1701.898438 2087.125 C 1674.335938 2021.777344 1645.308594 1959.3125 1644.605469 1944.503906 C 1643.304688 1917.019531 1634.261719 1725.9375 1632.71875 1693.410156 C 1600.378906 1707.390625 1544.609375 1722.523438 1461.472656 1715.851562 C 1400.386719 1710.949219 1365.027344 1704.730469 1344.492188 1699.199219 C 1334.644531 1745.832031 1312.710938 1857.804688 1308.292969 1948.34375 C 1307.757812 1959.257812 1307.464844 1969.882812 1307.488281 1980.019531 C 1307.507812 1986.652344 1310.21875 2035.738281 1315.984375 2093.125 C 1319.394531 2127 1323.871094 2163.75 1329.492188 2196.382812 C 1330.367188 2201.460938 1331.265625 2206.441406 1332.195312 2211.292969 L 1233.160156 2270.539062 L 1207.863281 2259.851562 L 1202.5625 2257.613281 C 1202.5625 2257.613281 1132.503906 2293.589844 1140.195312 2331.539062 L 1231.011719 2313.132812 L 1317.976562 2263.738281 Z M 1505.910156 1765.027344 L 1508.753906 1765.574219 L 1484.605469 1890.757812 L 1481.757812 1890.210938 Z M 1476.828125 1115.480469 C 1476.03125 1115.480469 1475.382812 1114.832031 1475.382812 1114.03125 C 1475.382812 1100.554688 1485.953125 1099.183594 1486.0625 1099.164062 C 1486.824219 1099.070312 1487.574219 1099.644531 1487.667969 1100.4375 C 1487.761719 1101.230469 1487.191406 1101.949219 1486.398438 1102.039062 C 1486.015625 1102.085938 1478.28125 1103.234375 1478.28125 1114.027344 C 1478.273438 1114.832031 1477.632812 1115.480469 1476.828125 1115.480469 Z M 1347.546875 1566.503906 C 1346.761719 1566.335938 1346.269531 1565.570312 1346.4375 1564.78125 L 1398.628906 1323.46875 C 1398.792969 1322.6875 1399.558594 1322.183594 1400.351562 1322.359375 C 1401.136719 1322.527344 1401.628906 1323.292969 1401.460938 1324.082031 L 1349.269531 1565.394531 C 1349.117188 1566.074219 1348.519531 1566.539062 1347.851562 1566.539062 C 1347.753906 1566.539062 1347.648438 1566.527344 1347.546875 1566.503906 Z M 1649.507812 1555.636719 L 1617.582031 1323.980469 C 1617.472656 1323.1875 1618.027344 1322.453125 1618.816406 1322.347656 C 1619.578125 1322.246094 1620.34375 1322.789062 1620.449219 1323.582031 L 1652.375 1555.242188 C 1652.484375 1556.035156 1651.929688 1556.765625 1651.140625 1556.875 C 1651.066406 1556.878906 1651.007812 1556.886719 1650.933594 1556.886719 C 1650.226562 1556.886719 1649.605469 1556.359375 1649.507812 1555.636719 Z M 1498.1875 1140.136719 C 1498.433594 1133.136719 1503.742188 1116.253906 1498.914062 1101.773438 C 1495.871094 1092.648438 1490.554688 1091.316406 1486.0625 1091.738281 C 1486.402344 1091.894531 1486.757812 1091.957031 1487.09375 1092.136719 C 1491.558594 1094.585938 1494.441406 1099.25 1494.441406 1104.019531 C 1494.441406 1113.269531 1483.0625 1124.238281 1473.449219 1124.238281 C 1472.652344 1124.238281 1472.003906 1123.589844 1472.003906 1122.792969 C 1472.003906 1121.996094 1472.652344 1121.347656 1473.449219 1121.347656 C 1482.191406 1121.347656 1491.550781 1111.175781 1491.550781 1104.011719 C 1491.550781 1100.347656 1489.199219 1096.589844 1485.703125 1094.675781 C 1482.714844 1093.039062 1479.402344 1093.070312 1476.417969 1094.574219 C 1472.34375 1097.699219 1470.179688 1104.824219 1470.199219 1109.003906 C 1470.214844 1114.175781 1456.878906 1113.347656 1456.679688 1109.257812 C 1456.488281 1105.152344 1459.300781 1087.734375 1450.816406 1083.046875 C 1448.925781 1082.003906 1447.363281 1080.628906 1446.046875 1079.066406 C 1437.804688 1069.21875 1440.324219 1050.660156 1446.613281 1043.105469 C 1459.265625 1027.902344 1472.933594 1029.035156 1486.253906 1036.160156 C 1493.171875 1034.351562 1499.574219 1033.523438 1505.476562 1033.53125 C 1516.453125 1031.515625 1527.429688 1032.308594 1538.410156 1037.796875 C 1558.335938 1048.421875 1563.34375 1068.230469 1558.996094 1090.105469 C 1554.652344 1111.980469 1537.878906 1130.269531 1533.449219 1142.3125 C 1532.273438 1147.050781 1527.097656 1148.929688 1521.054688 1149.074219 C 1510.789062 1149.320312 1498.03125 1144.542969 1498.1875 1140.136719 Z M 2195.230469 2477.160156 C 2195.230469 2477.160156 2025.09375 2518.808594 2007.726562 2523.0625 C 1990.355469 2527.316406 1990.519531 2512.871094 1991.171875 2502.449219 C 1992.4375 2482.332031 2037.953125 2451.214844 2055.683594 2436.007812 C 2059.722656 2432.542969 2065.074219 2432.347656 2070.9375 2434.0625 C 2090.820312 2439.90625 2116.554688 2468.113281 2116.554688 2468.113281 L 2181.1875 2452.289062 L 2188.691406 2450.453125 Z M 1884.109375 2496.324219 L 1891.828125 2496.324219 L 1891.828125 2523.816406 C 1891.828125 2523.816406 1716.671875 2523.816406 1698.785156 2523.816406 C 1680.898438 2523.816406 1684.492188 2509.832031 1687.609375 2499.863281 C 1693.625 2480.628906 1745.230469 2461.21875 1766.070312 2450.664062 C 1770.816406 2448.257812 1776.070312 2449.34375 1781.359375 2452.417969 C 1799.28125 2462.828125 1817.5625 2496.324219 1817.5625 2496.324219 Z M 2001.167969 1590.449219 C 2000.585938 1584.589844 2006.371094 1561.195312 2012.785156 1530.035156 L 2074.75 1524.863281 L 2093.488281 1523.296875 C 2093.488281 1523.296875 2092.746094 1427.183594 2062.308594 1355.046875 C 2070.371094 1323.964844 2078.652344 1296.007812 2065.308594 1258.949219 C 2056.066406 1229.699219 2029.632812 1197.167969 1999.726562 1192.003906 C 2000.601562 1167.503906 1985.226562 1147.859375 1968.519531 1139.652344 C 1945.375 1128.28125 1923.28125 1136.207031 1916.359375 1138.007812 C 1903.039062 1130.886719 1889.371094 1129.753906 1876.714844 1144.957031 C 1870.769531 1152.097656 1868.175781 1169.105469 1874.890625 1179.257812 C 1876.410156 1181.550781 1878.390625 1183.496094 1880.921875 1184.898438 C 1889.40625 1189.585938 1880.921875 1217.113281 1884.179688 1218.925781 C 1887.4375 1220.738281 1894.3125 1215.304688 1897.90625 1207.109375 C 1899.953125 1202.449219 1901.304688 1198.992188 1903.324219 1196.945312 C 1903.429688 1196.910156 1903.535156 1196.953125 1903.632812 1196.890625 C 1906.835938 1194.847656 1910.585938 1194.707031 1913.902344 1196.53125 C 1917.394531 1198.453125 1919.746094 1202.203125 1919.746094 1205.867188 C 1919.746094 1213.027344 1910.386719 1223.203125 1901.644531 1223.203125 C 1900.847656 1223.203125 1900.199219 1223.851562 1900.199219 1224.648438 C 1900.199219 1225.445312 1900.847656 1226.09375 1901.644531 1226.09375 C 1911.257812 1226.09375 1922.644531 1215.132812 1922.644531 1205.867188 C 1922.644531 1204.6875 1922.464844 1203.515625 1922.128906 1202.375 C 1923.304688 1204.1875 1924.445312 1206.359375 1925.464844 1209.222656 C 1930.429688 1223.117188 1917.984375 1225.253906 1918.222656 1233.980469 C 1918.464844 1242.695312 1932.941406 1251.746094 1946.460938 1250 C 1947.359375 1249.882812 1948.320312 1249.667969 1949.25 1249.5 C 1962.648438 1247.082031 1978.855469 1239.46875 1986.226562 1229.003906 C 1986.570312 1228.519531 1986.816406 1228.042969 1987.140625 1227.558594 C 1994.386719 1240.5 1995.808594 1257.492188 1995.808594 1272.460938 C 1995.808594 1275.421875 1995.660156 1278.34375 1995.421875 1281.242188 C 1987.253906 1278.488281 1978.402344 1277.003906 1968.824219 1277.027344 C 1963.128906 1277.039062 1957.925781 1278.109375 1953.179688 1280.082031 C 1951.867188 1279.585938 1950.558594 1279.109375 1949.25 1278.667969 C 1936.453125 1274.335938 1923.75 1272.546875 1911.601562 1272.648438 C 1896.066406 1272.78125 1881.46875 1275.980469 1868.789062 1280.867188 C 1862.207031 1277.09375 1854.804688 1274.257812 1846.429688 1272.589844 C 1760.699219 1255.535156 1719.601562 1521.625 1719.601562 1521.625 L 1765.398438 1526.730469 L 1857.9375 1537.050781 C 1851.550781 1557.410156 1844.609375 1575.460938 1837.75 1589.125 C 1834.480469 1595.632812 1830.652344 1602.863281 1826.449219 1610.570312 C 1871.753906 1613.371094 1946.105469 1608.566406 1981.390625 1600.308594 C 1993.878906 1597.398438 2001.523438 1594.050781 2001.167969 1590.449219 Z M 1897.894531 1541.742188 L 1895.101562 1540.980469 C 1895.347656 1540.082031 1919.550781 1450.0625 1912.929688 1374.941406 L 1915.816406 1374.691406 C 1922.484375 1450.328125 1898.140625 1540.832031 1897.894531 1541.742188 Z M 1905.019531 1217.339844 C 1904.21875 1217.339844 1903.570312 1216.691406 1903.570312 1215.894531 C 1903.570312 1202.417969 1914.144531 1201.042969 1914.25 1201.027344 C 1915.007812 1200.925781 1915.765625 1201.507812 1915.859375 1202.296875 C 1915.949219 1203.089844 1915.378906 1203.8125 1914.589844 1203.902344 C 1914.210938 1203.949219 1906.46875 1205.09375 1906.46875 1215.886719 C 1906.464844 1216.691406 1905.816406 1217.339844 1905.019531 1217.339844 Z M 1716.761719 1881.03125 C 1716.167969 1880.386719 1702.144531 1865.207031 1700.496094 1848.144531 L 1703.382812 1847.867188 C 1704.933594 1863.941406 1718.742188 1878.90625 1718.878906 1879.058594 Z M 1678.011719 1855.960938 C 1680.28125 1880.238281 1710.503906 1905.984375 1710.808594 1906.242188 L 1708.945312 1908.449219 C 1707.660156 1907.371094 1677.507812 1881.683594 1675.128906 1856.234375 Z M 2339.773438 2555.699219 C 2342.863281 2562.253906 2361.300781 2625.679688 2341.992188 2625.679688 C 2322.683594 2625.679688 2174.0625 2625.679688 2156.179688 2625.679688 C 2138.292969 2625.679688 2141.886719 2611.691406 2145 2601.726562 C 2151.019531 2582.492188 2202.625 2563.082031 2223.460938 2552.527344 C 2229.382812 2549.527344 2234.464844 2550.941406 2239.351562 2554.332031 C 2251.648438 2562.882812 2262.648438 2584.386719 2282.339844 2582.492188 C 2309.851562 2579.832031 2315.929688 2565.558594 2319.792969 2557.835938 C 2322.234375 2552.945312 2328.34375 2550.785156 2333.292969 2551.507812 C 2336.152344 2551.925781 2338.636719 2553.292969 2339.773438 2555.699219 Z M 2604.078125 2512.988281 C 2608.644531 2518.609375 2641.738281 2575.777344 2622.996094 2580.394531 C 2604.25 2585.023438 2459.957031 2620.621094 2442.59375 2624.90625 C 2425.222656 2629.1875 2425.363281 2614.746094 2425.996094 2604.324219 C 2427.226562 2584.199219 2472.6875 2553 2490.390625 2537.761719 C 2495.421875 2533.429688 2500.699219 2533.585938 2506.257812 2535.714844 C 2520.246094 2541.074219 2536.074219 2559.3125 2554.734375 2552.75 C 2580.808594 2543.585938 2583.292969 2528.269531 2585.191406 2519.84375 C 2586.390625 2514.511719 2591.808594 2510.945312 2596.789062 2510.464844 C 2599.660156 2510.191406 2602.398438 2510.921875 2604.078125 2512.988281 Z M 2323.96875 1311.578125 C 2323.167969 1311.578125 2322.523438 1310.929688 2322.523438 1310.128906 C 2322.523438 1296.65625 2333.09375 1295.28125 2333.203125 1295.261719 C 2333.980469 1295.167969 2334.714844 1295.738281 2334.808594 1296.535156 C 2334.898438 1297.328125 2334.332031 1298.046875 2333.539062 1298.136719 C 2333.160156 1298.183594 2325.417969 1299.332031 2325.417969 1310.125 C 2325.414062 1310.929688 2324.765625 1311.578125 2323.96875 1311.578125 Z M 2480.6875 1635.914062 L 2464.722656 1529.027344 C 2464.601562 1528.238281 2465.148438 1527.5 2465.941406 1527.382812 C 2466.730469 1527.28125 2467.46875 1527.8125 2467.585938 1528.601562 L 2483.550781 1635.488281 C 2483.671875 1636.277344 2483.125 1637.015625 2482.332031 1637.128906 C 2482.261719 1637.144531 2482.1875 1637.148438 2482.117188 1637.148438 C 2481.414062 1637.148438 2480.796875 1636.632812 2480.6875 1635.914062 Z M 2333.203125 1287.828125 C 2333.539062 1287.980469 2333.890625 1288.042969 2334.222656 1288.230469 C 2338.691406 1290.679688 2341.570312 1295.339844 2341.570312 1300.109375 C 2341.578125 1309.367188 2330.195312 1320.332031 2320.578125 1320.332031 C 2319.777344 1320.332031 2319.132812 1319.683594 2319.132812 1318.882812 C 2319.132812 1318.085938 2319.78125 1317.4375 2320.578125 1317.4375 C 2329.320312 1317.4375 2338.679688 1307.269531 2338.679688 1300.105469 C 2338.679688 1296.4375 2336.328125 1292.683594 2332.828125 1290.769531 C 2329.859375 1289.128906 2326.554688 1289.160156 2323.578125 1290.65625 C 2319.484375 1293.769531 2317.308594 1300.914062 2317.324219 1305.101562 C 2317.351562 1310.273438 2304.003906 1309.457031 2303.8125 1305.355469 C 2303.621094 1301.25 2306.4375 1283.832031 2297.953125 1279.148438 C 2296.066406 1278.101562 2294.5 1276.734375 2293.179688 1275.164062 C 2284.867188 1265.269531 2287.191406 1246.523438 2293.746094 1239.203125 C 2320.578125 1209.234375 2374.566406 1228.410156 2385.546875 1233.902344 C 2405.464844 1244.519531 2414.890625 1265.800781 2413.277344 1288.042969 C 2410.703125 1323.535156 2385.539062 1340.878906 2368.179688 1341.214844 C 2366.027344 1341.257812 2363.976562 1341.085938 2362.121094 1340.597656 C 2345.316406 1336.238281 2350.871094 1312.351562 2346.039062 1297.871094 C 2343.003906 1288.757812 2337.695312 1287.414062 2333.203125 1287.828125 Z M 2260.535156 1653.8125 C 2259.738281 1653.726562 2259.160156 1653.019531 2259.246094 1652.226562 L 2270.925781 1538.296875 C 2271.011719 1537.5 2271.730469 1536.894531 2272.511719 1537.007812 C 2273.308594 1537.09375 2273.886719 1537.800781 2273.800781 1538.59375 L 2262.121094 1652.519531 C 2262.046875 1653.265625 2261.417969 1653.816406 2260.683594 1653.816406 C 2260.636719 1653.816406 2260.582031 1653.816406 2260.535156 1653.8125 Z M 351.46875 1681.535156 L 329.371094 1681.535156 L 333.007812 1712.171875 L 314.226562 1712.171875 L 304.648438 1631.527344 L 323.4375 1631.527344 L 327.199219 1663.25 L 349.296875 1663.25 L 345.535156 1631.527344 L 364.3125 1631.527344 L 373.890625 1712.171875 L 355.105469 1712.171875 Z M 450.792969 1649.816406 L 414.664062 1649.816406 L 416.226562 1662.949219 L 446.910156 1662.949219 L 449.082031 1681.238281 L 418.398438 1681.238281 L 419.898438 1693.882812 L 456.023438 1693.882812 L 458.195312 1712.171875 L 403.289062 1712.171875 L 393.714844 1631.527344 L 448.621094 1631.527344 Z M 534.035156 1669.625 C 535.691406 1665.835938 536.238281 1661.453125 535.660156 1656.605469 C 535.085938 1651.765625 533.515625 1647.390625 530.980469 1643.597656 C 528.382812 1639.722656 524.980469 1636.691406 520.855469 1634.574219 C 516.828125 1632.515625 512.316406 1631.472656 507.449219 1631.472656 L 474.550781 1631.472656 L 484.132812 1712.167969 L 502.914062 1712.167969 L 499.300781 1681.730469 L 507.3125 1681.730469 L 526.285156 1712.167969 L 548.136719 1712.167969 L 526.355469 1678.441406 C 529.8125 1676.347656 532.398438 1673.382812 534.035156 1669.625 Z M 515.921875 1660.601562 C 515.585938 1661.542969 515.074219 1662.234375 514.363281 1662.714844 C 513.628906 1663.207031 512.742188 1663.445312 511.644531 1663.445312 L 497.136719 1663.445312 L 495.507812 1649.765625 L 510.019531 1649.765625 C 511.140625 1649.765625 512.082031 1650 512.910156 1650.488281 C 513.730469 1650.964844 514.402344 1651.65625 514.96875 1652.609375 C 515.621094 1653.707031 516.046875 1655.050781 516.234375 1656.605469 C 516.417969 1658.160156 516.3125 1659.503906 515.921875 1660.601562 Z M 623.207031 1693.882812 L 625.378906 1712.171875 L 570.46875 1712.171875 L 560.890625 1631.527344 L 615.804688 1631.527344 L 617.976562 1649.816406 L 581.851562 1649.816406 L 583.402344 1662.949219 L 614.085938 1662.949219 L 616.257812 1681.238281 L 585.574219 1681.238281 L 587.082031 1693.882812 Z M 331.523438 1587.292969 L 295.660156 1506.65625 L 315.847656 1506.65625 L 335.359375 1552.574219 L 343.960938 1506.65625 L 364.144531 1506.65625 L 347.429688 1587.292969 Z M 444.839844 1536.78125 C 444.132812 1530.816406 442.273438 1525.453125 439.308594 1520.832031 C 436.277344 1516.105469 432.28125 1512.382812 427.429688 1509.773438 C 422.652344 1507.210938 417.304688 1505.910156 411.546875 1505.910156 C 405.785156 1505.910156 400.75 1507.210938 396.574219 1509.773438 C 392.339844 1512.382812 389.226562 1516.105469 387.316406 1520.832031 C 385.453125 1525.445312 384.863281 1530.808594 385.570312 1536.78125 L 387.988281 1557.167969 C 388.699219 1563.132812 390.558594 1568.496094 393.523438 1573.109375 C 396.558594 1577.84375 400.558594 1581.566406 405.40625 1584.167969 C 410.183594 1586.738281 415.53125 1588.039062 421.289062 1588.039062 C 427.050781 1588.039062 432.082031 1586.738281 436.253906 1584.167969 C 440.484375 1581.566406 443.597656 1577.84375 445.511719 1573.109375 C 447.378906 1568.492188 447.964844 1563.125 447.257812 1557.167969 Z M 427.660156 1564.09375 C 427.007812 1565.816406 425.992188 1567.09375 424.546875 1568.003906 C 423.070312 1568.941406 421.285156 1569.402344 419.089844 1569.402344 C 416.890625 1569.402344 414.988281 1568.945312 413.285156 1568 C 411.636719 1567.09375 410.316406 1565.816406 409.25 1564.097656 C 408.109375 1562.269531 407.375 1560.054688 407.078125 1557.515625 L 404.574219 1536.433594 C 404.273438 1533.894531 404.476562 1531.679688 405.179688 1529.851562 C 405.847656 1528.128906 406.867188 1526.851562 408.300781 1525.9375 C 409.777344 1525.003906 411.566406 1524.539062 413.761719 1524.539062 C 415.957031 1524.539062 417.859375 1524.996094 419.5625 1525.945312 C 421.210938 1526.851562 422.53125 1528.128906 423.601562 1529.84375 C 424.738281 1531.675781 425.472656 1533.886719 425.773438 1536.425781 L 428.273438 1557.511719 C 428.574219 1560.046875 428.371094 1562.261719 427.660156 1564.09375 Z M 518.753906 1506.65625 L 520.921875 1524.941406 L 500.578125 1524.941406 L 507.984375 1587.292969 L 489.203125 1587.292969 L 481.800781 1524.941406 L 461.460938 1524.941406 L 459.289062 1506.65625 Z M 597.3125 1524.941406 L 561.1875 1524.941406 L 562.746094 1538.078125 L 593.429688 1538.078125 L 595.601562 1556.363281 L 564.917969 1556.363281 L 566.417969 1569.007812 L 602.542969 1569.007812 L 604.714844 1587.292969 L 549.804688 1587.292969 L 540.234375 1506.65625 L 595.140625 1506.65625 Z M 607.96875 1818.007812 L 437.140625 1818.007812 L 440.753906 1848.421875 L 354.871094 1802.015625 L 429.738281 1755.605469 L 433.351562 1786.027344 L 604.167969 1786.027344 Z M 1927.144531 1830.859375 L 1929.949219 1831.574219 L 1893.210938 1976.203125 L 1890.40625 1975.488281 Z M 1927.144531 1830.859375 " fill-opacity="1" fill-rule="nonzero"/></svg>