<svg xmlns="http://www.w3.org/2000/svg" xmlns:xlink="http://www.w3.org/1999/xlink" width="4000" zoomAndPan="magnify" viewBox="0 0 3000 2999.999989" height="4000" preserveAspectRatio="xMidYMid meet" version="1.0"><path fill="#f7d9b0" d="M 2215 1338.382812 L 2211.34375 1336.164062 L 2212.316406 1332 C 2212.441406 1331.464844 2212.582031 1330.867188 2212.710938 1330.3125 C 2214.515625 1331.316406 2216.359375 1332.308594 2218.0625 1333.339844 C 2222.46875 1314.414062 2231.796875 1275.101562 2236.0625 1262.863281 C 2292.964844 1099.652344 2244.375 1043.121094 2219.023438 1041.777344 C 2207.054688 1041.140625 2199.699219 1051.753906 2199.699219 1051.753906 C 2167.332031 1034.195312 2145.898438 1056.152344 2145.898438 1056.152344 C 2145.898438 1056.152344 2094.660156 1044.347656 2082.855469 1079.210938 C 2082.847656 1079.203125 2052.226562 1079.054688 2040.105469 1106.332031 C 2026.652344 1136.589844 2031.03125 1158.425781 2053.238281 1262.863281 C 2055.082031 1271.539062 2054.441406 1283.222656 2052.601562 1295.464844 C 2054.527344 1295.320312 2056.566406 1295.257812 2058.582031 1295.175781 C 2058.523438 1295.582031 2058.5 1295.929688 2058.441406 1296.34375 L 2057.738281 1301.003906 L 2053.042969 1301.351562 C 2030.816406 1302.996094 2016.769531 1308.726562 2014.5 1317.050781 L 2011.355469 1328.460938 L 2004.617188 1324.183594 C 1964.890625 1298.945312 1914.683594 1282.796875 1855.390625 1276.1875 L 1847.167969 1275.273438 L 1850.710938 1267.800781 C 1894.347656 1175.664062 1889.425781 1076.796875 1887.058594 1029.28125 C 1886.675781 1021.527344 1886.371094 1015.402344 1886.371094 1010.902344 C 1886.371094 1009.839844 1884.464844 900.113281 1841.945312 791.328125 C 1790.238281 659.019531 1704.792969 591.941406 1587.980469 591.941406 C 1564.015625 591.941406 1538.445312 594.847656 1511.949219 600.585938 C 1450.871094 613.816406 1424.480469 645.476562 1413.09375 669.703125 L 1411.832031 672.390625 L 1408.925781 672.980469 C 1376.429688 679.558594 1341.3125 705.429688 1319.46875 727.269531 C 1279.4375 770.9375 1253.671875 878.128906 1286.351562 1019.15625 C 1296.976562 1065.003906 1287.226562 1106.09375 1256.535156 1144.796875 L 1250.304688 1152.648438 L 1246.464844 1143.398438 C 1161.78125 939.558594 1013.613281 564.488281 972.722656 342.578125 C 971.167969 334.136719 955.460938 327.042969 930.707031 323.597656 L 925.722656 322.910156 L 925.613281 317.875 C 924.417969 259.421875 926.917969 237.261719 929.261719 228.125 C 933.65625 224.796875 937.890625 221.179688 941.921875 217.234375 C 951.675781 202.695312 971.136719 173.019531 976.488281 146.613281 C 983.066406 114.160156 966.855469 70.183594 958.855469 51.378906 C 950.417969 31.257812 938.167969 33.257812 938.167969 33.257812 C 938.167969 33.257812 927.785156 0.253906 902.566406 3.125 C 890.660156 4.484375 885.15625 16.160156 885.15625 16.160156 C 850.328125 4.199219 832.824219 29.402344 832.824219 29.402344 C 832.824219 29.402344 780.339844 26.242188 774.464844 62.578125 C 774.464844 62.578125 756.476562 56.199219 736.351562 64.644531 C 722.925781 70.277344 716.476562 84.460938 713.808594 98.574219 C 707.230469 131.027344 741.402344 228.957031 759.21875 254.234375 C 771.832031 272.128906 774.328125 311.203125 774.710938 332.523438 C 776.605469 331.90625 778.617188 331.34375 780.570312 330.761719 C 780.582031 331.308594 780.601562 331.875 780.613281 332.417969 L 780.6875 336.777344 L 776.546875 338.128906 C 755.957031 344.867188 721.839844 359.363281 724.683594 380.742188 C 765.097656 684.210938 879.648438 1087.6875 1065.160156 1579.953125 C 1071.296875 1596.230469 1075.953125 1608.585938 1078.742188 1616.277344 C 1108.152344 1687.707031 1154.15625 1939.019531 1146.253906 2010.105469 C 1138.605469 2067.46875 1087.207031 2181.550781 1037.503906 2291.875 C 985.792969 2406.648438 927.191406 2536.738281 940.777344 2560.347656 C 943.609375 2565.273438 953.875 2573.539062 990.765625 2573.539062 L 1000.722656 2573.492188 L 997.445312 2581.640625 C 958.925781 2677.25 936.164062 2739.363281 927.976562 2771.214844 C 946.542969 2787.03125 1062.351562 2880.53125 1247.726562 2920.488281 C 1329.058594 2938.023438 1424.578125 2946.910156 1531.625 2946.910156 C 1834.15625 2946.910156 2093.492188 2879.488281 2100.671875 2853.027344 C 2102.734375 2845.429688 2099.019531 2803.574219 2020.191406 2579.621094 L 2017.121094 2570.886719 L 2026.339844 2571.792969 C 2038.015625 2572.945312 2048.8125 2573.535156 2058.433594 2573.535156 C 2095.3125 2573.535156 2105.574219 2565.273438 2108.410156 2560.347656 C 2122.003906 2536.738281 2063.390625 2406.648438 2011.679688 2291.875 C 1961.976562 2181.550781 1910.578125 2067.46875 1902.914062 2009.984375 C 1901.414062 1996.488281 1901.679688 1976.714844 1903.710938 1951.203125 L 1904.902344 1936.195312 L 1914.222656 1948.019531 C 1934.242188 1973.40625 1969.390625 1987.378906 2013.191406 1987.378906 C 2084.433594 1987.378906 2168.8125 1949.113281 2180.847656 1892.140625 C 2203.597656 1784.523438 2244.792969 1443.964844 2245.289062 1376.207031 C 2245.425781 1360.222656 2228.894531 1346.8125 2215 1338.382812 Z M 932.988281 34.371094 C 932.792969 34.449219 932.582031 34.507812 932.394531 34.585938 C 932.222656 34.101562 931.890625 33.222656 931.421875 32.082031 C 931.839844 32.070312 932.253906 32.019531 932.671875 32.023438 C 934.09375 32.03125 934.210938 33.90625 932.988281 34.371094 Z M 2198.605469 1057.871094 L 2196.890625 1056.9375 C 2195.925781 1056.417969 2194.972656 1056.023438 2194.015625 1055.570312 C 2195.898438 1054.332031 2198.695312 1055.34375 2198.605469 1057.871094 Z M 2146.476562 1062.335938 L 2144.578125 1061.90625 C 2144.546875 1061.898438 2143.503906 1061.667969 2141.761719 1061.378906 C 2141.863281 1061.136719 2141.9375 1060.898438 2142.039062 1060.660156 C 2143.191406 1058.007812 2146.683594 1059.933594 2146.476562 1062.335938 Z M 2084.488281 1085.113281 C 2084.347656 1086.1875 2084.085938 1087.199219 2083.839844 1088.21875 L 2080.628906 1085.214844 C 2080.515625 1085.226562 2080.375 1085.238281 2080.257812 1085.25 C 2080.464844 1084.878906 2080.613281 1084.488281 2080.835938 1084.125 C 2081.773438 1082.621094 2084.757812 1083.0625 2084.488281 1085.113281 Z M 2084.488281 1085.113281 " fill-opacity="1" fill-rule="nonzero"/><path fill="#ffffff" d="M 1749.632812 2318.042969 C 1631.703125 2348.484375 1472.519531 2370.621094 1335.4375 2323.988281 C 1375 2209.285156 1410.3125 2053.246094 1367.980469 1908.324219 C 1273.761719 1585.765625 1333.515625 1403.078125 1316.695312 1297.089844 L 1390.628906 1291.0625 C 1390.628906 1291.0625 1393.277344 1292.96875 1398.070312 1295.988281 C 1417.320312 1308.140625 1471.722656 1338.632812 1533.042969 1338.632812 C 1600.601562 1338.632812 1661.398438 1279.679688 1674.78125 1265.792969 C 1676.570312 1263.941406 1677.542969 1262.855469 1677.542969 1262.855469 C 1677.542969 1262.855469 1709.171875 1265.1875 1748.660156 1270.742188 C 1736.074219 1278.035156 1738.777344 1821.457031 1728.410156 1970.945312 C 1722.3125 2058.824219 1734.917969 2203.25 1749.632812 2318.042969 Z M 1467.386719 1071.753906 C 1452.398438 1071.292969 1438.15625 1068.371094 1424.292969 1063.910156 C 1441.460938 1091.304688 1467.398438 1105.003906 1499.773438 1088.75 C 1517.699219 1079.746094 1533.851562 1066.5625 1545.378906 1050.058594 C 1521.21875 1062.507812 1494.78125 1072.589844 1467.386719 1071.753906 Z M 1365.875 930.523438 C 1357.933594 932.996094 1351.203125 937.285156 1350.628906 944.566406 C 1350.613281 944.765625 1350.464844 944.898438 1350.382812 945.066406 C 1353.367188 946 1361.070312 947.96875 1373.273438 948.4375 C 1372.027344 947.851562 1364.953125 943.746094 1365.875 930.523438 Z M 1547.503906 930.523438 C 1539.5625 932.996094 1532.832031 937.285156 1532.257812 944.566406 C 1532.242188 944.765625 1532.09375 944.898438 1532.011719 945.066406 C 1534.996094 946 1542.699219 947.96875 1554.902344 948.4375 C 1553.65625 947.851562 1546.582031 943.746094 1547.503906 930.523438 Z M 1547.503906 930.523438 " fill-opacity="1" fill-rule="nonzero"/><path fill="#ffbd59" d="M 2251.207031 1376.242188 C 2250.71875 1443.433594 2209.738281 1784.105469 2186.640625 1893.355469 C 2167.613281 1983.378906 1974.535156 2034 1909.601562 1951.664062 C 1907.703125 1975.570312 1907.265625 1995.597656 1908.792969 2009.320312 C 1924.953125 2130.53125 2141.816406 2514.152344 2113.53125 2563.285156 C 2104.652344 2578.714844 2069.839844 2582.019531 2025.769531 2577.664062 C 2073.796875 2714.117188 2111.925781 2834.105469 2106.371094 2854.566406 C 2093.601562 2901.621094 1588.707031 3000.011719 1246.488281 2926.253906 C 1040.566406 2881.871094 921.386719 2773.292969 921.386719 2773.292969 C 929.84375 2738.046875 957.816406 2664.234375 991.980469 2579.433594 C 963.386719 2579.570312 942.304688 2574.808594 935.675781 2563.292969 C 907.390625 2514.160156 1124.253906 2130.535156 1140.410156 2009.328125 C 1148.492188 1936.601562 1101.574219 1687.210938 1073.289062 1618.523438 C 1040.964844 1529.640625 785.792969 884.308594 718.835938 381.523438 C 716.023438 360.429688 740.15625 343.828125 774.710938 332.523438 C 804.511719 322.773438 842.058594 316.960938 876.808594 315.617188 C 896.617188 314.851562 915.496094 315.535156 931.519531 317.757812 C 957.714844 321.40625 976.253906 329.175781 978.53125 341.511719 C 1019.207031 562.234375 1166.011719 934.347656 1251.914062 1141.121094 C 1289.691406 1232.058594 1315.710938 1291.0625 1315.710938 1291.0625 C 1316.085938 1293.027344 1316.375 1295.074219 1316.699219 1297.089844 C 1333.519531 1403.078125 1273.769531 1585.765625 1367.988281 1908.324219 C 1410.316406 2053.246094 1375 2209.285156 1335.445312 2323.988281 C 1472.523438 2370.621094 1631.710938 2348.484375 1749.636719 2318.042969 C 1734.929688 2203.25 1722.324219 2058.824219 1728.417969 1970.945312 C 1738.78125 1821.457031 1736.082031 1278.035156 1748.664062 1270.742188 C 1751.300781 1269.214844 1797.492188 1263.792969 1856.039062 1270.320312 C 1904.027344 1275.667969 1960.316406 1289.042969 2007.773438 1319.199219 C 2008.152344 1317.839844 2008.503906 1316.574219 2008.796875 1315.511719 C 2012.058594 1303.558594 2029.03125 1297.210938 2052.601562 1295.46875 C 2100.359375 1291.933594 2175.191406 1307.316406 2218.0625 1333.34375 C 2238.214844 1345.574219 2251.324219 1360.160156 2251.207031 1376.242188 Z M 2251.207031 1376.242188 " fill-opacity="1" fill-rule="nonzero"/><path fill="#fe9c9c" d="M 1610.109375 964.902344 C 1640.742188 964.902344 1665.574219 977.261719 1665.574219 992.511719 C 1665.574219 1007.765625 1640.742188 1020.125 1610.109375 1020.125 C 1579.480469 1020.125 1554.648438 1007.765625 1554.648438 992.511719 C 1554.648438 977.261719 1579.480469 964.902344 1610.109375 964.902344 Z M 1323.460938 1019.285156 C 1327.746094 1019.851562 1332.226562 1020.136719 1336.835938 1020.136719 C 1367.460938 1020.136719 1392.3125 1007.777344 1392.3125 992.5 C 1392.3125 977.269531 1367.460938 964.902344 1336.835938 964.910156 C 1333.4375 964.910156 1330.128906 965.066406 1326.894531 965.351562 C 1326.070312 972.160156 1325.066406 979.226562 1324.300781 986.886719 C 1324.242188 987.46875 1324.175781 988.042969 1324.121094 988.636719 C 1323.992188 990.046875 1323.878906 991.503906 1323.773438 992.960938 C 1323.703125 993.933594 1323.621094 994.890625 1323.554688 995.894531 C 1323.492188 996.980469 1323.449219 998.105469 1323.398438 999.222656 C 1323.332031 1000.625 1323.253906 1002.003906 1323.21875 1003.457031 C 1323.207031 1003.988281 1323.214844 1004.546875 1323.207031 1005.085938 C 1323.125 1009.5625 1323.179688 1014.257812 1323.460938 1019.285156 Z M 1323.460938 1019.285156 " fill-opacity="1" fill-rule="nonzero"/><path fill="#000000" d="M 2189.925781 1070.949219 C 2188.722656 1068.8125 2189.613281 1065.699219 2190.300781 1063.476562 C 2190.976562 1061.273438 2191.886719 1059.175781 2192.765625 1057.042969 C 2194.199219 1053.574219 2199.539062 1054.785156 2198.554688 1058.636719 C 2197.914062 1061.109375 2197.421875 1063.699219 2196.339844 1066.023438 C 2195.425781 1067.980469 2194.730469 1070.703125 2192.605469 1071.652344 C 2191.644531 1072.082031 2190.492188 1071.953125 2189.925781 1070.949219 Z M 1486.878906 1014.660156 C 1489.261719 1014.296875 1491.519531 1013.535156 1493.621094 1012.332031 C 1495.023438 1011.527344 1497.378906 1009.804688 1496.859375 1007.917969 C 1496.277344 1005.792969 1493.542969 1006.347656 1491.96875 1006.609375 C 1489.433594 1007.019531 1487.195312 1009.066406 1485.046875 1010.332031 C 1482.582031 1011.789062 1484.347656 1015.042969 1486.878906 1014.660156 Z M 2140.09375 1080.054688 C 2142.210938 1077.933594 2143.035156 1074.585938 2144.039062 1071.828125 C 2145.144531 1068.800781 2145.957031 1065.691406 2146.480469 1062.523438 C 2146.902344 1060.035156 2143.21875 1057.933594 2142.046875 1060.65625 C 2140.769531 1063.617188 2139.769531 1066.609375 2138.960938 1069.734375 C 2138.1875 1072.730469 2137.054688 1076.347656 2137.722656 1079.429688 C 2137.953125 1080.488281 2139.371094 1080.777344 2140.09375 1080.054688 Z M 1420.046875 996.546875 C 1413.613281 1015.1875 1443.578125 1031.804688 1458.523438 1026.148438 C 1461.066406 1025.1875 1460.59375 1021.753906 1457.890625 1021.5 C 1445.3125 1020.308594 1413.34375 1010.5 1430.757812 990.367188 C 1437.058594 983.085938 1446.003906 979.824219 1451.886719 971.851562 C 1458.257812 963.222656 1459.273438 950.148438 1457.675781 939.875 C 1457.359375 937.859375 1454.070312 938.359375 1454.144531 940.355469 C 1454.53125 950.308594 1451.914062 960.390625 1446.808594 968.878906 C 1439.667969 980.742188 1424.867188 982.585938 1420.046875 996.546875 Z M 1335.566406 903.492188 C 1401.738281 887.464844 1429.148438 909.46875 1436.1875 905.28125 C 1443.554688 900.898438 1440.359375 883.421875 1424.671875 879.039062 C 1385.539062 868.105469 1363.65625 873.320312 1342.746094 885.453125 C 1332.222656 891.5625 1329.808594 904.886719 1335.566406 903.492188 Z M 1420.277344 1057.121094 C 1437.15625 1062.925781 1454.699219 1066.835938 1472.582031 1065.722656 C 1501.726562 1063.90625 1527.804688 1052.738281 1552.996094 1038.546875 C 1555.933594 1036.890625 1558.996094 1040.148438 1557.480469 1043.03125 C 1528.664062 1097.921875 1445.578125 1132.933594 1414.628906 1060.765625 C 1414.59375 1060.683594 1414.605469 1060.609375 1414.578125 1060.53125 C 1407.632812 1057.917969 1400.757812 1054.984375 1393.933594 1051.765625 C 1391.179688 1050.464844 1393.578125 1046.558594 1396.292969 1047.730469 C 1402.964844 1050.613281 1409.796875 1053.378906 1416.730469 1055.886719 C 1417.957031 1055.417969 1419.347656 1055.675781 1420.277344 1057.121094 Z M 1424.292969 1063.910156 C 1441.460938 1091.304688 1467.398438 1105.003906 1499.773438 1088.75 C 1517.699219 1079.746094 1533.851562 1066.558594 1545.378906 1050.058594 C 1521.226562 1062.511719 1494.789062 1072.597656 1467.386719 1071.753906 C 1452.398438 1071.292969 1438.15625 1068.371094 1424.292969 1063.910156 Z M 2077.851562 1100.597656 C 2080.398438 1099.800781 2081.324219 1096.152344 2082.132812 1093.933594 C 2083.203125 1091.003906 2084.074219 1088.207031 2084.488281 1085.113281 C 2084.757812 1083.0625 2081.773438 1082.621094 2080.84375 1084.128906 C 2079.300781 1086.621094 2078.269531 1089.269531 2077.308594 1092.023438 C 2076.546875 1094.199219 2074.84375 1097.757812 2076.28125 1099.957031 C 2076.617188 1100.464844 2077.238281 1100.789062 2077.851562 1100.597656 Z M 2194.210938 1405.675781 C 2213.6875 1416.921875 2232.132812 1397.179688 2224.605469 1376.429688 C 2221.136719 1366.875 2212.960938 1360.28125 2204.589844 1358.335938 C 2188.457031 1354.585938 2178.664062 1372.738281 2182.210938 1387.753906 C 2183.957031 1395.15625 2188 1402.089844 2194.210938 1405.675781 Z M 1518.347656 905.28125 C 1525.386719 909.46875 1552.792969 887.464844 1618.964844 903.492188 C 1624.722656 904.886719 1622.3125 891.5625 1611.785156 885.453125 C 1590.878906 873.320312 1568.996094 868.105469 1529.863281 879.039062 C 1514.175781 883.421875 1510.976562 900.898438 1518.347656 905.28125 Z M 1423.773438 949.34375 C 1424.394531 950.046875 1425.734375 949.511719 1425.664062 948.566406 C 1424.121094 928.269531 1399.25 920.460938 1382.289062 921.640625 C 1370.199219 922.476562 1344.769531 928.507812 1347.21875 945.03125 C 1347.484375 946.855469 1349.757812 946.441406 1350.382812 945.066406 C 1350.457031 944.898438 1350.613281 944.765625 1350.628906 944.566406 C 1351.203125 937.285156 1357.933594 932.996094 1365.875 930.523438 C 1364.953125 943.746094 1372.027344 947.851562 1373.277344 948.4375 C 1373.398438 948.488281 1373.550781 948.566406 1373.550781 948.566406 L 1423.089844 948.566406 C 1423.320312 948.824219 1423.539062 949.078125 1423.773438 949.34375 Z M 1563.914062 921.640625 C 1551.828125 922.476562 1526.398438 928.507812 1528.847656 945.03125 C 1529.113281 946.855469 1531.382812 946.441406 1532.011719 945.066406 C 1532.085938 944.898438 1532.242188 944.765625 1532.257812 944.566406 C 1532.832031 937.285156 1539.5625 932.996094 1547.503906 930.523438 C 1546.582031 943.746094 1553.65625 947.851562 1554.90625 948.4375 C 1555.023438 948.488281 1555.179688 948.566406 1555.179688 948.566406 L 1604.71875 948.566406 C 1604.949219 948.824219 1605.167969 949.078125 1605.402344 949.34375 C 1606.023438 950.046875 1607.359375 949.511719 1607.289062 948.566406 C 1605.75 928.269531 1580.878906 920.460938 1563.914062 921.640625 Z M 1504.972656 1853.828125 C 1520.050781 1844.320312 1531.285156 1831.386719 1542.242188 1817.515625 C 1555.101562 1801.238281 1568.480469 1788.460938 1585.390625 1776.414062 C 1586.84375 1775.375 1586.015625 1772.871094 1584.128906 1773.410156 C 1547.265625 1783.921875 1532.480469 1828.789062 1502.546875 1849.6875 C 1500.050781 1851.433594 1502.324219 1855.5 1504.972656 1853.828125 Z M 1509.542969 2806.707031 C 1466.699219 2773.34375 1424.210938 2739.355469 1384.269531 2702.53125 C 1381.976562 2700.417969 1378.558594 2703.800781 1380.832031 2705.976562 C 1420.074219 2743.617188 1462.105469 2777.847656 1504.832031 2811.421875 C 1545.746094 2843.570312 1585.699219 2877.769531 1627.855469 2908.230469 C 1629.992188 2909.769531 1632.40625 2906.429688 1630.613281 2904.660156 C 1593.898438 2868.4375 1550.167969 2838.347656 1509.542969 2806.707031 Z M 850.949219 437.453125 C 814.808594 447.304688 780.292969 462.898438 751.132812 486.578125 C 749.691406 487.746094 751.550781 490.046875 753.078125 489.101562 C 783.085938 470.695312 814.003906 456.21875 847.78125 446.234375 C 869.492188 439.816406 891.734375 435.644531 914.339844 434.3125 C 940.339844 432.777344 961.574219 439.667969 985.816406 447.25 C 989.277344 448.335938 990.613281 443.71875 988.105469 441.828125 C 951.746094 414.464844 891.007812 426.53125 850.949219 437.453125 Z M 1717.804688 1347.917969 C 1705.667969 1367.5625 1693.273438 1381.746094 1670.929688 1389.273438 C 1650.742188 1396.078125 1628 1399.675781 1606.824219 1399.179688 C 1578.9375 1398.53125 1547.550781 1385.980469 1527.886719 1365.699219 C 1526.128906 1363.886719 1523.519531 1364.589844 1522.179688 1366.4375 C 1482.246094 1421.25 1366.804688 1405.101562 1335.601562 1351.214844 C 1334.429688 1349.203125 1331.636719 1350.96875 1332.542969 1353.003906 C 1351.902344 1396.589844 1417.386719 1410.578125 1460.464844 1404.789062 C 1483.867188 1401.644531 1509.78125 1392.171875 1525.589844 1373.445312 C 1548.535156 1395.402344 1581.746094 1406.03125 1612.792969 1406.824219 C 1656.324219 1407.945312 1706.410156 1393.78125 1723.226562 1350.207031 C 1724.476562 1346.960938 1719.507812 1345.164062 1717.804688 1347.917969 Z M 1251.910156 1141.121094 C 1276.6875 1109.875 1292.335938 1071.097656 1280.601562 1020.476562 C 1248.003906 879.8125 1272.929688 769.292969 1315.113281 723.273438 C 1337.109375 701.28125 1373.261719 674.171875 1407.75 667.191406 C 1420.046875 641.019531 1447.832031 608.429688 1510.695312 594.8125 C 1871.058594 516.753906 1892.265625 984.054688 1892.265625 1010.898438 C 1892.265625 1041.753906 1907.574219 1161.492188 1856.035156 1270.320312 C 1797.480469 1263.792969 1751.296875 1269.222656 1748.660156 1270.742188 C 1709.171875 1265.1875 1677.542969 1262.855469 1677.542969 1262.855469 C 1677.542969 1262.855469 1676.570312 1263.933594 1674.78125 1265.792969 C 1657.746094 1260.484375 1645.011719 1254.332031 1641.082031 1247.296875 C 1634.253906 1235.078125 1628.601562 1196.996094 1624.3125 1156.542969 C 1612.363281 1170.078125 1599.613281 1182.992188 1586.222656 1195.226562 C 1560.710938 1218.523438 1531.324219 1242.105469 1500.121094 1257.339844 C 1487 1263.746094 1472.328125 1266.613281 1458.695312 1260.175781 C 1450.421875 1256.273438 1443.816406 1249.390625 1438.265625 1241.621094 C 1437.230469 1248.742188 1435.773438 1255.453125 1433.757812 1261.523438 C 1428.3125 1277.851562 1414.777344 1288.75 1398.070312 1295.988281 C 1393.277344 1292.96875 1390.628906 1291.0625 1390.628906 1291.0625 L 1316.695312 1297.089844 C 1316.375 1295.074219 1316.082031 1293.027344 1315.703125 1291.0625 C 1315.703125 1291.0625 1289.6875 1232.058594 1251.910156 1141.121094 Z M 1732.578125 1030.183594 C 1762.949219 1023.523438 1789.085938 1005.441406 1795.101562 969.328125 C 1799.144531 947.101562 1787.023438 928.921875 1764.800781 922.863281 C 1762.3125 922.289062 1759.875 921.976562 1757.46875 921.789062 C 1757.109375 930.972656 1756.265625 940.011719 1755.042969 948.902344 C 1759.296875 950.703125 1763.011719 953.757812 1764.914062 957.5625 C 1765.65625 959.050781 1763.578125 960.289062 1762.675781 958.875 C 1760.699219 955.753906 1757.734375 953.921875 1754.453125 953.003906 C 1753.226562 961.0625 1751.679688 968.984375 1749.855469 976.75 C 1751.125 978.714844 1751.898438 981.125 1751.945312 984.089844 C 1752.039062 989.765625 1748.707031 994.875 1743.945312 998.542969 C 1740.570312 1009.488281 1736.734375 1020.070312 1732.578125 1030.183594 Z M 1323.203125 1005.078125 C 1322.976562 1017.457031 1323.863281 1031.640625 1327.15625 1048.886719 C 1340.492188 1118.832031 1436.035156 1206.925781 1476.648438 1206.925781 C 1512.324219 1206.925781 1623.160156 1179.15625 1670.109375 1098.441406 C 1688.382812 999.246094 1661.945312 896.332031 1568.292969 845.730469 C 1505.988281 812.066406 1466.277344 760.3125 1458.410156 719.375 C 1401.335938 728.390625 1350.710938 755.882812 1332.523438 809.367188 C 1321.160156 842.773438 1322.820312 897.847656 1327.480469 932.1875 C 1329.058594 943.859375 1328.234375 954.332031 1326.894531 965.351562 C 1326.070312 972.160156 1325.066406 979.226562 1324.300781 986.886719 C 1324.242188 987.46875 1324.175781 988.042969 1324.121094 988.636719 C 1323.992188 990.046875 1323.878906 991.503906 1323.773438 992.960938 C 1323.699219 993.933594 1323.621094 994.898438 1323.554688 995.894531 C 1323.492188 996.980469 1323.449219 998.105469 1323.398438 999.222656 C 1323.332031 1000.621094 1323.253906 1002.011719 1323.21875 1003.457031 C 1323.203125 1003.980469 1323.214844 1004.542969 1323.203125 1005.078125 Z M 2009.542969 2572.257812 C 1979.820312 2565.320312 1946.488281 2567.929688 1916.105469 2564.523438 C 1879.4375 2560.414062 1837.15625 2554.382812 1807.253906 2530.9375 C 1776.722656 2506.996094 1778 2453.527344 1772.808594 2418.667969 C 1768.246094 2388.054688 1756.660156 2357.714844 1747.914062 2328.035156 C 1747.25 2325.792969 1743.96875 2326.730469 1744.441406 2328.992188 C 1751.171875 2361.363281 1762.882812 2392.707031 1767.703125 2425.378906 C 1773.121094 2462.09375 1772.660156 2509.007812 1802.769531 2535.414062 C 1828.410156 2557.90625 1867.359375 2564.582031 1899.820312 2569.5625 C 1934.339844 2574.859375 1973.832031 2580.65625 2008.792969 2577.777344 C 2011.804688 2577.527344 2012.808594 2573.019531 2009.542969 2572.257812 Z M 2238.164062 1454.726562 C 2204.960938 1421.464844 2150.996094 1408.648438 2105.957031 1402.890625 C 2069.578125 1398.234375 2031.609375 1396.632812 1997.238281 1410.914062 C 2000.808594 1394.578125 2004.199219 1378.21875 2007.335938 1361.835938 C 2007.992188 1358.394531 2002.90625 1356.902344 2002.039062 1360.371094 C 1985.058594 1428.589844 1970.179688 1497.261719 1951.855469 1565.164062 C 1951.230469 1567.480469 1950.535156 1569.777344 1949.902344 1572.09375 C 1947.875 1561.667969 1943.363281 1548.996094 1942.511719 1544.925781 C 1936.949219 1518.105469 1929.597656 1489.992188 1928.6875 1462.519531 C 1928.589844 1459.433594 1923.863281 1459.414062 1923.890625 1462.519531 C 1924.152344 1487.742188 1930.566406 1513.363281 1935.421875 1537.96875 C 1936.835938 1545.144531 1938.941406 1578.40625 1946.105469 1585.5625 C 1933.363281 1630.570312 1919.136719 1675.15625 1906.746094 1720.277344 C 1889.171875 1784.28125 1872.0625 1853.605469 1877.203125 1920.449219 C 1877.433594 1923.425781 1881.542969 1923.398438 1881.808594 1920.449219 C 1888.203125 1850.257812 1898.085938 1783.367188 1916.8125 1715.273438 C 1930.890625 1664.089844 1946.871094 1613.464844 1960.242188 1562.082031 C 1972.882812 1513.46875 1985.402344 1464.519531 1996.265625 1415.328125 C 2029.054688 1405.433594 2062.394531 1405.859375 2096.175781 1409.34375 C 2117.621094 1411.558594 2138.675781 1415.546875 2159.355469 1421.65625 C 2187.402344 1429.945312 2209.519531 1445.363281 2234.570312 1459.386719 C 2237.507812 1461.03125 2240.578125 1457.136719 2238.164062 1454.726562 Z M 1319.390625 2348.714844 C 1312.445312 2412.789062 1284.792969 2484.3125 1239.480469 2531.144531 C 1209.425781 2562.199219 1156.613281 2564.703125 1116.429688 2567.523438 C 1075.703125 2570.382812 1033.574219 2569.226562 994.316406 2581.710938 C 992.613281 2582.253906 993.308594 2584.800781 995.054688 2584.390625 C 1039.84375 2573.722656 1087.289062 2576.03125 1132.925781 2572.460938 C 1171.648438 2569.433594 1214.777344 2563.597656 1244.253906 2535.917969 C 1293.507812 2489.664062 1317.390625 2414.3125 1324.503906 2348.714844 C 1324.859375 2345.441406 1319.746094 2345.46875 1319.390625 2348.714844 Z M 775.308594 376.867188 C 767.34375 376.425781 759.3125 379.953125 754.996094 388.160156 C 751.898438 394.042969 751.480469 402.066406 753.519531 409.1875 C 755.492188 416.070312 759.769531 422.113281 766.144531 424.542969 C 786.132812 432.152344 804.222656 409.886719 796.039062 391.03125 C 792.269531 382.34375 783.820312 377.339844 775.308594 376.867188 Z M 1014.882812 921.707031 C 1050.214844 918.933594 1072.699219 938.742188 1102.605469 952.765625 C 1104.902344 953.839844 1107.332031 951.101562 1105.398438 949.152344 C 1082.652344 926.171875 1047.109375 911.96875 1014.882812 915.203125 C 1010.777344 915.617188 1010.675781 922.035156 1014.882812 921.707031 Z M 1681.53125 1316.71875 C 1681.910156 1316.71875 1681.910156 1316.128906 1681.53125 1316.128906 C 1681.148438 1316.128906 1681.148438 1316.71875 1681.53125 1316.71875 Z M 1081.109375 1569.863281 C 1094.203125 1550.777344 1088.566406 1518.644531 1085.613281 1497.457031 C 1080.894531 1463.558594 1070.351562 1429.886719 1055.203125 1399.222656 C 1053.914062 1396.621094 1050.097656 1398.898438 1051.332031 1401.480469 C 1076.117188 1453.5 1088.09375 1511.746094 1077.761719 1568.453125 C 1077.390625 1570.507812 1079.910156 1571.617188 1081.109375 1569.863281 Z M 764.144531 148.425781 C 775.863281 153.933594 790.363281 151.828125 798.855469 141.964844 C 800.453125 140.105469 801.46875 137.996094 802.121094 135.765625 C 813.414062 140.585938 829.550781 144.523438 837.574219 133.101562 C 839.578125 130.246094 841.191406 127.191406 842.480469 123.988281 C 842.695312 124.453125 842.867188 124.910156 843.136719 125.378906 C 844.542969 127.800781 846.546875 129.792969 848.949219 131.078125 C 832.417969 145.1875 818.941406 163.308594 810.929688 180.621094 C 809.988281 182.648438 812.882812 184.4375 813.980469 182.402344 C 833.910156 145.285156 876.074219 112.417969 918.894531 113.308594 C 922.664062 113.386719 923.648438 107.25 919.804688 106.613281 C 912.292969 105.367188 904.8125 105.59375 897.460938 106.8125 C 897.746094 105.859375 898 104.902344 898.230469 104.035156 C 898.8125 101.835938 899.296875 99.28125 899.085938 96.898438 C 912.140625 97.675781 924.882812 94.171875 933.609375 85.078125 C 934.660156 83.976562 933.335938 82.40625 932.039062 83.039062 C 903.414062 97.050781 871.5625 89.742188 855.089844 62.207031 C 842.890625 41.8125 869.367188 44.308594 875.820312 44.660156 C 880.976562 44.945312 885.992188 44.378906 891.136719 44.125 C 905.023438 43.441406 920.070312 39.328125 932.988281 34.371094 C 934.210938 33.90625 934.09375 32.03125 932.671875 32.019531 C 920.421875 31.875 908.742188 38.09375 896.492188 39.664062 C 885.863281 41.019531 874.9375 38.867188 864.292969 38.855469 C 851.125 38.835938 844.617188 48.578125 847.863281 60.855469 C 852.835938 79.644531 872.628906 92.957031 893.054688 96.210938 C 893.46875 98.660156 893.070312 101.007812 892.480469 103.402344 C 892.09375 104.984375 891.398438 106.5625 891.011719 108.164062 C 878.503906 111.363281 866.503906 117.574219 855.609375 125.734375 C 855.445312 125.652344 855.320312 125.539062 855.132812 125.480469 C 852.570312 124.660156 849.925781 123.851562 848.257812 121.574219 C 846.941406 119.789062 845.773438 117.59375 845.097656 115.421875 C 849.625 95.085938 844.15625 70.824219 839.378906 52.320312 C 838.9375 50.613281 836.335938 50.585938 835.910156 52.320312 C 831.460938 70.554688 839.808594 90.058594 839.195312 108.648438 C 838.792969 120.75 833.023438 134.464844 819.433594 134.441406 C 813.796875 134.429688 808.421875 132.523438 802.867188 131.839844 C 803.457031 125.25 801.296875 118.066406 798.757812 112.507812 C 792.441406 98.667969 784.351562 84.355469 776.09375 71.570312 C 774.917969 69.753906 772.292969 70.535156 772.152344 72.636719 C 771.65625 80.128906 776.882812 86.96875 780.554688 93.085938 C 786.398438 102.824219 792.640625 112.40625 795.878906 123.402344 C 802.578125 146.128906 774.953125 148.128906 760.503906 140.644531 C 747.503906 133.90625 745.34375 114.566406 735.277344 104.8125 C 734 103.550781 731.925781 105.152344 732.8125 106.71875 C 741.4375 122.019531 747.285156 140.496094 764.144531 148.425781 Z M 938.023438 223.078125 C 938.242188 222.742188 938.480469 222.378906 938.734375 221.996094 C 938.917969 221.722656 939.113281 221.429688 939.308594 221.132812 C 939.921875 220.210938 940.617188 219.175781 941.378906 218.042969 C 941.5625 217.765625 941.734375 217.515625 941.921875 217.234375 C 910.398438 248.105469 866.902344 259.429688 823.46875 259.46875 C 844.253906 274.945312 861.285156 294.542969 876.800781 315.617188 C 896.613281 314.851562 915.492188 315.535156 931.515625 317.757812 C 930.789062 282.53125 930.949219 233.699219 936.984375 224.695312 C 937.261719 224.253906 937.621094 223.691406 938.023438 223.078125 Z M 938.023438 223.078125 " fill-opacity="1" fill-rule="nonzero"/></svg>